<svg width="447" height="175" viewBox="0 0 447 175" fill="none" xmlns="http://www.w3.org/2000/svg">
<path d="M3.18333 39.8097V33.8267L17.1627 20.8828C18.3517 19.7322 19.3488 18.6967 20.1542 17.7763C20.9724 16.8558 21.5924 15.9545 22.0143 15.0724C22.4362 14.1776 22.6471 13.2124 22.6471 12.1768C22.6471 11.0263 22.385 10.0355 21.8609 9.20455C21.3367 8.3608 20.6208 7.7152 19.7132 7.26776C18.8055 6.80753 17.7764 6.57742 16.6258 6.57742C15.4241 6.57742 14.3758 6.82031 13.4809 7.30611C12.586 7.7919 11.8957 8.48864 11.4099 9.39631C10.9241 10.304 10.6812 11.3842 10.6812 12.6371H2.7998C2.7998 10.0675 3.38148 7.83665 4.54483 5.9446C5.70819 4.05256 7.33816 2.58878 9.43475 1.55327C11.5313 0.517755 13.9475 0 16.6833 0C19.4958 0 21.944 0.49858 24.0278 1.49574C26.1244 2.48011 27.7544 3.84801 28.9177 5.59943C30.0811 7.35085 30.6627 9.35796 30.6627 11.6207C30.6627 13.1037 30.3687 14.5675 29.7806 16.0121C29.2053 17.4567 28.1762 19.0611 26.6933 20.8253C25.2103 22.5767 23.1201 24.6797 20.4227 27.1342L14.689 32.7528V33.0213H31.1805V39.8097H3.18333Z" fill="#F5F4EB"/>
<path fill-rule="evenodd" clip-rule="evenodd" d="M42.081 38.2372C44.4588 39.848 47.2969 40.6598 50.5952 40.6726C53.8935 40.6726 56.7252 39.8672 59.0902 38.2564C61.4553 36.6456 63.2706 34.3125 64.5362 31.2571C65.8146 28.2017 66.4539 24.5199 66.4539 20.2116C66.4666 15.929 65.8338 12.2855 64.5554 9.28125C63.277 6.2642 61.4489 3.96307 59.071 2.37784C56.706 0.792614 53.8807 0 50.5952 0C47.3097 0 44.478 0.792614 42.1002 2.37784C39.7351 3.95028 37.9134 6.24503 36.635 9.26207C35.3693 12.2791 34.7365 15.929 34.7365 20.2116C34.7237 24.5071 35.3502 28.1825 36.6158 31.2379C37.8942 34.2933 39.7159 36.6264 42.081 38.2372ZM55.9837 30.3942C54.6414 32.657 52.8452 33.7884 50.5952 33.7884C49.0994 33.7884 47.7955 33.2898 46.6833 32.2926C45.571 31.2827 44.7081 29.7741 44.0945 27.767C43.4936 25.7472 43.1932 23.2287 43.1932 20.2116C43.206 15.75 43.8835 12.4006 45.2259 10.1634C46.5682 7.92614 48.358 6.80753 50.5952 6.80753C52.0909 6.80753 53.3885 7.30611 54.4879 8.30327C55.6002 9.30043 56.4567 10.7898 57.0575 12.7713C57.6712 14.7528 57.978 17.233 57.978 20.2116C57.9908 24.7372 57.326 28.1314 55.9837 30.3942Z" fill="#F5F4EB"/>
<path d="M249.913 30.4579V39.8097H241.744V0.536926H249.913V21.5348H250.354L259.789 10.3551H269.166L258.242 23.1139L269.722 39.8097H260.153L252.127 27.9301L249.913 30.4579Z" fill="#F5F4EB"/>
<path d="M304.234 10.3551V39.8096H312.403V23.1456C312.403 21.9439 312.672 20.8828 313.209 19.9623C313.759 19.0419 314.5 18.326 315.433 17.8146C316.379 17.2905 317.453 17.0284 318.655 17.0284C319.217 17.0284 319.837 17.0731 320.515 17.1626C321.192 17.2521 321.723 17.3544 322.107 17.4694V10.2209C321.749 10.1314 321.333 10.0611 320.86 10.0099C320.387 9.95879 319.946 9.93323 319.537 9.93323C317.888 9.93323 316.43 10.4062 315.165 11.3523C313.899 12.2855 312.998 13.6662 312.461 15.4943H312.154V10.3551H304.234Z" fill="#F5F4EB"/>
<path d="M350.837 18.7543L343.359 19.2145C343.231 18.5753 342.956 18 342.534 17.4887C342.112 16.9645 341.556 16.549 340.866 16.2422C340.188 15.9226 339.377 15.7628 338.43 15.7628C337.165 15.7628 336.097 16.0313 335.228 16.5682C334.359 17.0924 333.924 17.7955 333.924 18.6776C333.924 19.3807 334.205 19.9752 334.768 20.461C335.33 20.9468 336.296 21.3367 337.663 21.6307L342.994 22.7046C345.858 23.2926 347.993 24.2387 349.399 25.5426C350.805 26.8466 351.509 28.5597 351.509 30.6818C351.509 32.6122 350.94 34.3061 349.802 35.7635C348.677 37.2209 347.13 38.3587 345.161 39.1769C343.205 39.9823 340.949 40.385 338.392 40.385C334.493 40.385 331.386 39.5732 329.073 37.9496C326.771 36.3132 325.423 34.0888 325.026 31.2763L333.061 30.8544C333.304 32.0434 333.892 32.951 334.825 33.5774C335.759 34.1911 336.954 34.4979 338.411 34.4979C339.843 34.4979 340.994 34.223 341.863 33.6733C342.745 33.1108 343.193 32.3885 343.205 31.5064C343.193 30.7649 342.879 30.1577 342.266 29.6847C341.652 29.1989 340.706 28.8282 339.428 28.5725L334.327 27.5561C331.45 26.9809 329.309 25.9837 327.903 24.5647C326.509 23.1456 325.813 21.3367 325.813 19.1378C325.813 17.2458 326.324 15.6158 327.347 14.2479C328.382 12.88 329.833 11.8253 331.7 11.0838C333.579 10.3424 335.778 9.97162 338.296 9.97162C342.016 9.97162 344.944 10.7578 347.079 12.3303C349.227 13.9027 350.479 16.0441 350.837 18.7543Z" fill="#F5F4EB"/>
<path fill-rule="evenodd" clip-rule="evenodd" d="M285.385 40.385C282.355 40.385 279.747 39.7713 277.561 38.5441C275.388 37.304 273.713 35.5526 272.537 33.2898C271.361 31.0142 270.772 28.3232 270.772 25.2166C270.772 22.1868 271.361 19.5277 272.537 17.2394C273.713 14.951 275.368 13.1676 277.503 11.8892C279.651 10.6108 282.169 9.97162 285.059 9.97162C287.002 9.97162 288.811 10.2848 290.486 10.9112C292.173 11.5249 293.643 12.4517 294.896 13.6918C296.162 14.9318 297.146 16.4915 297.849 18.3708C298.552 20.2372 298.904 22.4233 298.904 24.929V27.1726H278.846V27.1918C278.846 28.6492 279.114 29.9084 279.651 30.9695C280.201 32.0306 280.974 32.8487 281.971 33.424C282.969 33.9993 284.151 34.287 285.519 34.287C286.427 34.287 287.258 34.1591 288.012 33.9034C288.766 33.6478 289.412 33.2642 289.949 32.7529C290.486 32.2415 290.895 31.6151 291.176 30.8736L298.731 31.3722C298.348 33.1875 297.562 34.7728 296.373 36.1279C295.196 37.4702 293.675 38.5185 291.809 39.2728C289.955 40.0142 287.814 40.385 285.385 40.385ZM278.853 22.1101H291.214C291.214 20.934 290.959 19.8921 290.447 18.9844C289.936 18.0767 289.226 17.3672 288.319 16.8559C287.424 16.3317 286.382 16.0696 285.193 16.0696C283.953 16.0696 282.853 16.3573 281.895 16.9326C280.949 17.4951 280.207 18.2557 279.67 19.2145C279.175 20.0872 278.903 21.0524 278.853 22.1101Z" fill="#F5F4EB"/>
<path fill-rule="evenodd" clip-rule="evenodd" d="M213.795 39.3878C215.265 40.0398 216.94 40.3658 218.819 40.3658C220.276 40.3658 221.561 40.174 222.673 39.7905C223.786 39.3942 224.738 38.8509 225.531 38.1605C226.323 37.4574 226.956 36.6456 227.429 35.7252H227.659V39.8097H235.406V19.9432C235.406 18.1918 235.067 16.6897 234.39 15.4368C233.712 14.1712 232.786 13.1357 231.609 12.3303C230.446 11.5249 229.11 10.9304 227.602 10.5469C226.106 10.1634 224.54 9.97162 222.903 9.97162C220.551 9.97162 218.48 10.3296 216.69 11.0455C214.913 11.7486 213.462 12.7585 212.337 14.0753C211.212 15.3793 210.458 16.9262 210.075 18.7159L217.63 19.3296C217.911 18.358 218.487 17.5526 219.356 16.9134C220.225 16.2614 221.395 15.9354 222.865 15.9354C224.259 15.9354 225.332 16.2678 226.087 16.9326C226.854 17.5973 227.237 18.537 227.237 19.7514V19.8665C227.237 20.4929 227.001 20.9659 226.528 21.2855C226.055 21.6051 225.294 21.848 224.246 22.0142C223.197 22.1676 221.817 22.3338 220.104 22.5128C218.646 22.6534 217.253 22.8963 215.923 23.2415C214.607 23.5867 213.43 24.098 212.395 24.7756C211.359 25.4532 210.541 26.348 209.94 27.4603C209.339 28.5725 209.039 29.9468 209.039 31.5831C209.039 33.5263 209.461 35.1499 210.305 36.4539C211.161 37.7451 212.325 38.723 213.795 39.3878ZM224.342 34.0185C223.421 34.4915 222.36 34.728 221.158 34.728C219.906 34.728 218.87 34.4404 218.052 33.8651C217.246 33.277 216.844 32.4269 216.844 31.3147C216.844 30.5476 217.042 29.9084 217.438 29.397C217.835 28.8729 218.391 28.4574 219.107 28.1506C219.822 27.8438 220.66 27.6201 221.619 27.4794C222.066 27.4155 222.565 27.3452 223.114 27.2685C223.664 27.179 224.214 27.0831 224.764 26.9809C225.313 26.8658 225.805 26.7443 226.24 26.6165C226.688 26.4759 227.039 26.3225 227.295 26.1563V29.282C227.295 30.3175 227.033 31.2443 226.509 32.0625C225.984 32.8807 225.262 33.5327 224.342 34.0185Z" fill="#F5F4EB"/>
<path fill-rule="evenodd" clip-rule="evenodd" d="M183.746 38.5441C185.932 39.7713 188.54 40.385 191.57 40.385C193.999 40.385 196.141 40.0142 197.994 39.2728C199.861 38.5185 201.382 37.4702 202.558 36.1279C203.747 34.7728 204.533 33.1875 204.917 31.3722L197.361 30.8736C197.08 31.6151 196.671 32.2415 196.134 32.7529C195.597 33.2642 194.952 33.6478 194.197 33.9034C193.443 34.1591 192.612 34.287 191.704 34.287C190.337 34.287 189.154 33.9993 188.157 33.424C187.16 32.8487 186.386 32.0306 185.837 30.9695C185.3 29.9084 185.031 28.6492 185.031 27.1918V27.1726H205.089V24.929C205.089 22.4233 204.738 20.2372 204.035 18.3708C203.332 16.4915 202.347 14.9318 201.082 13.6918C199.829 12.4517 198.359 11.5249 196.671 10.9112C194.996 10.2848 193.187 9.97162 191.244 9.97162C188.355 9.97162 185.837 10.6108 183.689 11.8892C181.554 13.1676 179.898 14.951 178.722 17.2394C177.546 19.5277 176.958 22.1868 176.958 25.2166C176.958 28.3232 177.546 31.0142 178.722 33.2898C179.898 35.5526 181.573 37.304 183.746 38.5441ZM197.4 22.1101H185.039C185.088 21.0524 185.36 20.0872 185.856 19.2145C186.393 18.2557 187.134 17.4951 188.08 16.9326C189.039 16.3573 190.138 16.0696 191.378 16.0696C192.567 16.0696 193.609 16.3317 194.504 16.8559C195.412 17.3672 196.121 18.0767 196.633 18.9844C197.144 19.8921 197.4 20.934 197.4 22.1101Z" fill="#F5F4EB"/>
<path fill-rule="evenodd" clip-rule="evenodd" d="M143.975 10.3551V50.8551H152.144V35.0924H152.393C152.764 35.9105 153.301 36.7223 154.004 37.5277C154.707 38.3203 155.608 38.9787 156.708 39.5029C157.82 40.027 159.168 40.2891 160.754 40.2891C162.991 40.2891 165.011 39.7138 166.813 38.5632C168.629 37.3999 170.061 35.6932 171.109 33.4432C172.17 31.1804 172.7 28.4063 172.7 25.1208C172.7 21.7458 172.157 18.9397 171.07 16.7024C169.984 14.4524 168.533 12.7713 166.717 11.6591C164.902 10.5341 162.921 9.97162 160.773 9.97162C159.124 9.97162 157.743 10.2529 156.631 10.8154C155.531 11.3651 154.637 12.0554 153.946 12.8864C153.269 13.7046 152.751 14.51 152.393 15.3026H152.029V10.3551H143.975ZM152.7 29.6655C152.214 28.3615 151.971 26.8338 151.971 25.0824C151.971 23.331 152.214 21.8097 152.7 20.5185C153.186 19.2273 153.882 18.2301 154.79 17.527C155.71 16.8239 156.835 16.4723 158.165 16.4723C159.507 16.4723 160.639 16.8367 161.559 17.5654C162.48 18.2941 163.176 19.304 163.649 20.5952C164.122 21.8864 164.359 23.3821 164.359 25.0824C164.359 26.7955 164.116 28.3104 163.63 29.6272C163.157 30.9311 162.46 31.9539 161.54 32.6953C160.619 33.424 159.494 33.7884 158.165 33.7884C156.848 33.7884 155.73 33.4304 154.809 32.7145C153.889 31.9858 153.186 30.9695 152.7 29.6655Z" fill="#F5F4EB"/>
<path d="M130.681 19.2145L138.16 18.7543C137.802 16.0441 136.549 13.9027 134.401 12.3303C132.266 10.7578 129.339 9.97162 125.619 9.97162C123.1 9.97162 120.901 10.3424 119.022 11.0838C117.155 11.8253 115.704 12.88 114.669 14.2479C113.646 15.6158 113.135 17.2458 113.135 19.1378C113.135 21.3367 113.832 23.1456 115.225 24.5647C116.631 25.9837 118.773 26.9809 121.649 27.5561L126.75 28.5725C128.028 28.8282 128.974 29.1989 129.588 29.6847C130.202 30.1577 130.515 30.7649 130.528 31.5064C130.515 32.3885 130.067 33.1108 129.185 33.6733C128.316 34.223 127.165 34.4979 125.734 34.4979C124.276 34.4979 123.081 34.1911 122.148 33.5774C121.214 32.951 120.626 32.0434 120.383 30.8544L112.349 31.2763C112.745 34.0888 114.094 36.3132 116.395 37.9496C118.709 39.5732 121.815 40.385 125.714 40.385C128.271 40.385 130.528 39.9823 132.484 39.1769C134.452 38.3587 135.999 37.2209 137.124 35.7635C138.262 34.3061 138.831 32.6122 138.831 30.6818C138.831 28.5597 138.128 26.8466 136.722 25.5426C135.315 24.2387 133.18 23.2926 130.317 22.7046L124.986 21.6307C123.618 21.3367 122.653 20.9468 122.09 20.461C121.528 19.9752 121.246 19.3807 121.246 18.6776C121.246 17.7955 121.681 17.0924 122.55 16.5682C123.42 16.0313 124.487 15.7628 125.753 15.7628C126.699 15.7628 127.511 15.9226 128.188 16.2422C128.878 16.549 129.435 16.9645 129.856 17.4887C130.278 18 130.553 18.5753 130.681 19.2145Z" fill="#F5F4EB"/>
<path d="M80.111 33.8267V23.6825H69.9668V16.8175H80.111V6.67328H86.976V16.8175H97.1202V23.6825H86.976V33.8267H80.111Z" fill="#F5F4EB"/>
<path fill-rule="evenodd" clip-rule="evenodd" d="M333.118 105.289C330.88 105.289 328.854 104.714 327.039 103.563C325.236 102.4 323.804 100.693 322.743 98.4432C321.695 96.1804 321.171 93.4062 321.171 90.1207C321.171 86.7457 321.714 83.9396 322.801 81.7024C323.888 79.4524 325.332 77.7713 327.135 76.6591C328.95 75.5341 330.938 74.9716 333.098 74.9716C334.748 74.9716 336.122 75.2528 337.221 75.8153C338.334 76.3651 339.228 77.0554 339.906 77.8864C340.596 78.7045 341.12 79.5099 341.478 80.3026H341.728V65.5369H349.878V104.81H341.824V100.092H341.478C341.095 100.911 340.552 101.722 339.848 102.528C339.158 103.32 338.257 103.979 337.145 104.503C336.045 105.027 334.703 105.289 333.118 105.289ZM335.706 98.7883C337.023 98.7883 338.135 98.4304 339.043 97.7145C339.964 96.9858 340.667 95.9695 341.152 94.6655C341.651 93.3615 341.9 91.8338 341.9 90.0824C341.9 88.331 341.657 86.8097 341.172 85.5185C340.686 84.2273 339.983 83.2301 339.062 82.527C338.142 81.8239 337.023 81.4723 335.706 81.4723C334.364 81.4723 333.233 81.8366 332.312 82.5653C331.392 83.294 330.695 84.304 330.222 85.5952C329.749 86.8864 329.513 88.3821 329.513 90.0824C329.513 91.7954 329.749 93.3104 330.222 94.6271C330.708 95.9311 331.405 96.9538 332.312 97.6953C333.233 98.424 334.364 98.7883 335.706 98.7883Z" fill="#F5F4EB"/>
<path fill-rule="evenodd" clip-rule="evenodd" d="M362.194 103.544C364.38 104.771 366.988 105.385 370.017 105.385C372.446 105.385 374.588 105.014 376.441 104.273C378.308 103.518 379.829 102.47 381.005 101.128C382.194 99.7727 382.981 98.1875 383.364 96.3722L375.809 95.8736C375.527 96.6151 375.118 97.2415 374.581 97.7528C374.044 98.2642 373.399 98.6477 372.645 98.9034C371.89 99.1591 371.059 99.2869 370.152 99.2869C368.784 99.2869 367.601 98.9993 366.604 98.424C365.607 97.8487 364.834 97.0305 364.284 95.9695C363.747 94.9084 363.478 93.6491 363.478 92.1918V92.1726H383.537V89.929C383.537 87.4233 383.185 85.2372 382.482 83.3707C381.779 81.4915 380.794 79.9318 379.529 78.6918C378.276 77.4517 376.806 76.5249 375.118 75.9112C373.444 75.2848 371.635 74.9716 369.691 74.9716C366.802 74.9716 364.284 75.6108 362.136 76.8892C360.001 78.1676 358.346 79.951 357.169 82.2393C355.993 84.5277 355.405 87.1868 355.405 90.2166C355.405 93.3232 355.993 96.0142 357.169 98.2898C358.346 100.553 360.02 102.304 362.194 103.544ZM363.486 87.1101C363.535 86.0524 363.808 85.0872 364.303 84.2145C364.84 83.2557 365.581 82.495 366.527 81.9325C367.486 81.3572 368.586 81.0696 369.826 81.0696C371.015 81.0696 372.057 81.3317 372.951 81.8558C373.859 82.3672 374.569 83.0767 375.08 83.9844C375.591 84.892 375.847 85.9339 375.847 87.1101H363.486Z" fill="#F5F4EB"/>
<path fill-rule="evenodd" clip-rule="evenodd" d="M394.467 103.544C396.653 104.771 399.261 105.385 402.291 105.385C404.72 105.385 406.861 105.014 408.715 104.273C410.581 103.518 412.103 102.47 413.279 101.128C414.468 99.7727 415.254 98.1875 415.638 96.3722L408.082 95.8736C407.801 96.6151 407.392 97.2415 406.855 97.7528C406.318 98.2642 405.672 98.6477 404.918 98.9034C404.164 99.1591 403.333 99.2869 402.425 99.2869C401.057 99.2869 399.875 98.9993 398.878 98.424C397.88 97.8487 397.107 97.0305 396.557 95.9695C396.02 94.9084 395.752 93.6491 395.752 92.1918V92.1726H415.81V89.929C415.81 87.4233 415.459 85.2372 414.755 83.3707C414.052 81.4915 413.068 79.9318 411.802 78.6918C410.549 77.4517 409.079 76.5249 407.392 75.9112C405.717 75.2848 403.908 74.9716 401.965 74.9716C399.076 74.9716 396.557 75.6108 394.41 76.8892C392.275 78.1676 390.619 79.951 389.443 82.2393C388.267 84.5277 387.679 87.1868 387.679 90.2166C387.679 93.3232 388.267 96.0142 389.443 98.2898C390.619 100.553 392.294 102.304 394.467 103.544ZM395.76 87.1101C395.809 86.0524 396.081 85.0872 396.576 84.2145C397.113 83.2557 397.855 82.495 398.801 81.9325C399.76 81.3572 400.859 81.0696 402.099 81.0696C403.288 81.0696 404.33 81.3317 405.225 81.8558C406.133 82.3672 406.842 83.0767 407.353 83.9844C407.865 84.892 408.12 85.9339 408.12 87.1101H395.76Z" fill="#F5F4EB"/>
<path d="M445.648 83.7543L438.169 84.2145C438.041 83.5753 437.767 83 437.345 82.4886C436.923 81.9645 436.367 81.549 435.676 81.2422C434.999 80.9226 434.187 80.7628 433.241 80.7628C431.975 80.7628 430.908 81.0312 430.039 81.5682C429.169 82.0923 428.735 82.7954 428.735 83.6776C428.735 84.3807 429.016 84.9751 429.578 85.4609C430.141 85.9467 431.106 86.3366 432.474 86.6307L437.805 87.7045C440.669 88.2926 442.804 89.2386 444.21 90.5426C445.616 91.8466 446.319 93.5597 446.319 95.6818C446.319 97.6122 445.75 99.3061 444.612 100.763C443.487 102.221 441.941 103.359 439.972 104.177C438.016 104.982 435.76 105.385 433.203 105.385C429.304 105.385 426.197 104.573 423.883 102.95C421.582 101.313 420.233 99.0888 419.837 96.2763L427.872 95.8544C428.115 97.0433 428.703 97.951 429.636 98.5774C430.569 99.191 431.764 99.4979 433.222 99.4979C434.654 99.4979 435.804 99.223 436.674 98.6733C437.556 98.1108 438.003 97.3885 438.016 96.5064C438.003 95.7649 437.69 95.1577 437.076 94.6847C436.463 94.1989 435.517 93.8281 434.238 93.5724L429.137 92.5561C426.261 91.9808 424.12 90.9837 422.713 89.5646C421.32 88.1456 420.623 86.3366 420.623 84.1378C420.623 82.2457 421.135 80.6158 422.157 79.2479C423.193 77.88 424.644 76.8253 426.51 76.0838C428.389 75.3423 430.588 74.9716 433.107 74.9716C436.827 74.9716 439.755 75.7578 441.889 77.3303C444.037 78.9027 445.29 81.044 445.648 83.7543Z" fill="#F5F4EB"/>
<path d="M296.841 87.7812V104.81H288.672V75.3551H296.457V80.5518H296.803C297.455 78.8388 298.548 77.4837 300.082 76.4865C301.616 75.4766 303.476 74.9716 305.662 74.9716C307.707 74.9716 309.491 75.419 311.012 76.3139C312.533 77.2088 313.716 78.4872 314.56 80.1491C315.403 81.7983 315.825 83.767 315.825 86.0554V104.81H307.656V87.5128C307.669 85.7102 307.209 84.304 306.276 83.294C305.342 82.2713 304.058 81.7599 302.421 81.7599C301.322 81.7599 300.35 81.9964 299.506 82.4695C298.675 82.9425 298.023 83.6328 297.55 84.5405C297.09 85.4354 296.854 86.5156 296.841 87.7812Z" fill="#F5F4EB"/>
<path fill-rule="evenodd" clip-rule="evenodd" d="M269.822 105.385C266.792 105.385 264.184 104.771 261.998 103.544C259.825 102.304 258.15 100.553 256.974 98.2898C255.798 96.0142 255.21 93.3232 255.21 90.2166C255.21 87.1868 255.798 84.5277 256.974 82.2393C258.15 79.951 259.806 78.1676 261.941 76.8892C264.089 75.6108 266.607 74.9716 269.496 74.9716C271.439 74.9716 273.248 75.2848 274.923 75.9112C276.611 76.5249 278.081 77.4517 279.334 78.6918C280.599 79.9318 281.584 81.4915 282.287 83.3707C282.99 85.2372 283.341 87.4233 283.341 89.929V92.1726H263.283V92.1918C263.283 93.6491 263.552 94.9084 264.089 95.9695C264.638 97.0305 265.412 97.8487 266.409 98.424C267.406 98.9993 268.589 99.2869 269.956 99.2869C270.864 99.2869 271.695 99.1591 272.449 98.9034C273.204 98.6477 273.849 98.2642 274.386 97.7528C274.923 97.2415 275.332 96.6151 275.613 95.8736L283.169 96.3722C282.785 98.1875 281.999 99.7727 280.81 101.128C279.634 102.47 278.113 103.518 276.246 104.273C274.392 105.014 272.251 105.385 269.822 105.385ZM275.652 87.1101H263.291C263.34 86.0524 263.612 85.0872 264.108 84.2145C264.645 83.2557 265.386 82.495 266.332 81.9325C267.291 81.3572 268.39 81.0696 269.63 81.0696C270.819 81.0696 271.861 81.3317 272.756 81.8558C273.664 82.3672 274.373 83.0767 274.885 83.9844C275.396 84.892 275.652 85.9339 275.652 87.1101Z" fill="#F5F4EB"/>
<path d="M251.393 75.3551V81.4915H245.851V95.7585C245.851 96.5128 245.966 97.1008 246.196 97.5227C246.427 97.9318 246.746 98.2194 247.155 98.3856C247.577 98.5518 248.063 98.6349 248.613 98.6349C248.996 98.6349 249.38 98.603 249.763 98.539C250.147 98.4623 250.441 98.4048 250.645 98.3665L251.93 104.445C251.521 104.573 250.946 104.72 250.204 104.886C249.463 105.065 248.562 105.174 247.5 105.212C245.532 105.289 243.806 105.027 242.323 104.426C240.853 103.825 239.709 102.892 238.89 101.626C238.072 100.361 237.669 98.7628 237.682 96.8324V81.4915H233.655V75.3551H237.682V68.2983H245.851V75.3551H251.393Z" fill="#F5F4EB"/>
<path d="M230.405 75.3551V81.4915H224.863V95.7585C224.863 96.5128 224.978 97.1008 225.208 97.5227C225.438 97.9318 225.758 98.2194 226.167 98.3856C226.589 98.5518 227.075 98.6349 227.624 98.6349C228.008 98.6349 228.391 98.603 228.775 98.539L228.958 98.5026L229.123 98.4698C229.342 98.4267 229.52 98.3922 229.657 98.3665L230.942 104.445C230.533 104.573 229.957 104.72 229.216 104.886C228.475 105.065 227.573 105.174 226.512 105.212C224.543 105.289 222.818 105.027 221.335 104.426C219.864 103.825 218.72 102.892 217.902 101.626C217.084 100.361 216.681 98.7628 216.694 96.8324V81.4915H212.667V75.3551H216.694V68.2983H224.863V75.3551H230.405Z" fill="#F5F4EB"/>
<path fill-rule="evenodd" clip-rule="evenodd" d="M191.813 105.366C189.934 105.366 188.259 105.04 186.789 104.388C185.319 103.723 184.155 102.745 183.299 101.454C182.455 100.15 182.033 98.5263 182.033 96.5831C182.033 94.9467 182.334 93.5724 182.934 92.4602C183.535 91.348 184.354 90.4531 185.389 89.7756C186.425 89.098 187.601 88.5866 188.917 88.2415C190.247 87.8963 191.64 87.6534 193.098 87.5128C194.811 87.3338 196.192 87.1676 197.24 87.0142C198.288 86.848 199.049 86.6051 199.522 86.2855C199.995 85.9659 200.231 85.4929 200.231 84.8665V84.7514C200.231 83.5369 199.848 82.5973 199.081 81.9325C198.327 81.2678 197.253 80.9354 195.859 80.9354C194.389 80.9354 193.219 81.2614 192.35 81.9133C191.481 82.5526 190.905 83.358 190.624 84.3295L183.069 83.7159C183.452 81.9261 184.206 80.3793 185.331 79.0753C186.456 77.7585 187.907 76.7486 189.684 76.0454C191.474 75.3295 193.545 74.9716 195.898 74.9716C197.534 74.9716 199.1 75.1633 200.596 75.5469C202.104 75.9304 203.44 76.5249 204.604 77.3303C205.78 78.1357 206.707 79.1712 207.384 80.4368C208.062 81.6896 208.4 83.1918 208.4 84.9432V104.81H200.653V100.725H200.423C199.95 101.646 199.317 102.457 198.525 103.161C197.732 103.851 196.78 104.394 195.667 104.79C194.555 105.174 193.27 105.366 191.813 105.366ZM194.153 99.728C195.354 99.728 196.415 99.4915 197.336 99.0185C198.256 98.5327 198.979 97.8807 199.503 97.0625C200.027 96.2443 200.289 95.3175 200.289 94.282V91.1562C200.033 91.3224 199.682 91.4758 199.234 91.6165C198.8 91.7443 198.307 91.8658 197.758 91.9808C197.208 92.0831 196.658 92.179 196.108 92.2685C195.559 92.3452 195.06 92.4155 194.613 92.4794C193.654 92.62 192.817 92.8438 192.101 93.1506C191.385 93.4574 190.829 93.8729 190.432 94.397C190.036 94.9084 189.838 95.5476 189.838 96.3146C189.838 97.4268 190.241 98.277 191.046 98.8651C191.864 99.4403 192.9 99.728 194.153 99.728Z" fill="#F5F4EB"/>
<path fill-rule="evenodd" clip-rule="evenodd" d="M150.06 105.673C146.762 105.66 143.924 104.848 141.546 103.237C139.181 101.626 137.359 99.2933 136.081 96.2379C134.815 93.1825 134.189 89.5071 134.201 85.2116C134.201 80.929 134.834 77.2791 136.1 74.2621C137.378 71.245 139.2 68.9503 141.565 67.3778C143.943 65.7926 146.775 65 150.06 65C153.346 65 156.171 65.7926 158.536 67.3778C160.914 68.9631 162.742 71.2642 164.02 74.2812C165.299 77.2855 165.931 80.929 165.919 85.2116C165.919 89.5199 165.279 93.2017 164.001 96.2571C162.735 99.3125 160.92 101.646 158.555 103.256C156.19 104.867 153.358 105.673 150.06 105.673ZM150.06 98.7884C152.31 98.7884 154.106 97.657 155.449 95.3942C156.791 93.1314 157.456 89.7372 157.443 85.2116C157.443 82.233 157.136 79.7528 156.522 77.7713C155.922 75.7898 155.065 74.3004 153.953 73.3033C152.853 72.3061 151.556 71.8075 150.06 71.8075C147.823 71.8075 146.033 72.9261 144.691 75.1634C143.348 77.4006 142.671 80.75 142.658 85.2116C142.658 88.2287 142.958 90.7472 143.559 92.767C144.173 94.7741 145.036 96.2827 146.148 97.2926C147.26 98.2898 148.564 98.7884 150.06 98.7884Z" fill="#F5F4EB"/>
<path fill-rule="evenodd" clip-rule="evenodd" d="M107.368 103.237C109.746 104.848 112.584 105.66 115.882 105.673C119.181 105.673 122.012 104.867 124.377 103.256C126.742 101.646 128.558 99.3125 129.823 96.2571C131.102 93.2017 131.741 89.5199 131.741 85.2116C131.754 80.929 131.121 77.2855 129.843 74.2812C128.564 71.2642 126.736 68.9631 124.358 67.3778C121.993 65.7926 119.168 65 115.882 65C112.597 65 109.765 65.7926 107.387 67.3778C105.022 68.9503 103.2 71.245 101.922 74.2621C100.656 77.2791 100.024 80.929 100.024 85.2116C100.011 89.5071 100.637 93.1825 101.903 96.2379C103.181 99.2933 105.003 101.626 107.368 103.237ZM121.271 95.3942C119.928 97.657 118.132 98.7884 115.882 98.7884C114.387 98.7884 113.083 98.2898 111.97 97.2926C110.858 96.2827 109.995 94.7741 109.382 92.767C108.781 90.7472 108.48 88.2287 108.48 85.2116C108.493 80.75 109.171 77.4006 110.513 75.1634C111.855 72.9261 113.645 71.8075 115.882 71.8075C117.378 71.8075 118.676 72.3061 119.775 73.3033C120.887 74.3004 121.744 75.7898 122.345 77.7713C122.958 79.7528 123.265 82.233 123.265 85.2116C123.278 89.7372 122.613 93.1314 121.271 95.3942Z" fill="#F5F4EB"/>
<path fill-rule="evenodd" clip-rule="evenodd" d="M81.7047 105.673C78.4064 105.66 75.5684 104.848 73.1905 103.237C70.8255 101.626 69.0037 99.2933 67.7253 96.2379C66.4597 93.1825 65.8333 89.5071 65.8461 85.2116C65.8461 80.929 66.4789 77.2791 67.7445 74.2621C69.0229 71.245 70.8446 68.9503 73.2097 67.3778C75.5875 65.7926 78.4192 65 81.7047 65C84.9902 65 87.8155 65.7926 90.1806 67.3778C92.5584 68.9631 94.3866 71.2642 95.665 74.2812C96.9434 77.2855 97.5762 80.929 97.5634 85.2116C97.5634 89.5199 96.9242 93.2017 95.6458 96.2571C94.3801 99.3125 92.5648 101.646 90.1998 103.256C87.8347 104.867 85.003 105.673 81.7047 105.673ZM81.7047 98.7884C83.9547 98.7884 85.7509 97.657 87.0932 95.3942C88.4355 93.1314 89.1003 89.7372 89.0875 85.2116C89.0875 82.233 88.7807 79.7528 88.1671 77.7713C87.5662 75.7898 86.7097 74.3004 85.5975 73.3033C84.498 72.3061 83.2005 71.8075 81.7047 71.8075C79.4675 71.8075 77.6777 72.9261 76.3354 75.1634C74.9931 77.4006 74.3155 80.75 74.3027 85.2116C74.3027 88.2287 74.6032 90.7472 75.204 92.767C75.8176 94.7741 76.6806 96.2827 77.7928 97.2926C78.905 98.2898 80.209 98.7884 81.7047 98.7884Z" fill="#F5F4EB"/>
<path d="M56.9723 104.81V65.5369H49.1676L39.4453 71.6925V79.0561L48.4389 73.4183H48.669V104.81H56.9723Z" fill="#F5F4EB"/>
<path d="M31.8516 88.7976L4.85156 100.687V92.9205L23.0881 85.5994V85.2458L4.85156 77.9247V70.1584L31.8516 82.0476V88.7976Z" fill="#F5F4EB"/>
<path fill-rule="evenodd" clip-rule="evenodd" d="M20.7491 134.459C19.102 133.88 17.2709 133.591 15.256 133.591C13.1611 133.591 11.1861 133.984 9.33111 134.772C7.49207 135.544 5.86892 136.621 4.46166 138.004C3.07039 139.386 1.97496 140.986 1.17538 142.803C0.391794 144.603 0 146.533 0 148.591C0 151.356 0.687639 153.872 2.06292 156.139C3.4382 158.406 5.27723 160.214 7.58002 161.565C9.88282 162.915 12.4415 163.591 15.256 163.591C17.2709 163.591 19.102 163.301 20.7491 162.722C22.4122 162.144 23.8995 161.428 25.2108 160.576C26.5221 159.708 27.6575 158.84 28.617 157.972C28.9848 157.586 29.3046 157.248 29.5765 156.959C29.8643 156.669 30.1682 156.34 30.488 155.97C30.7599 156.308 31.0317 156.629 31.3036 156.935C31.5914 157.224 31.9512 157.57 32.383 157.972C33.3745 158.872 34.5259 159.756 35.8372 160.624C37.1485 161.476 38.6277 162.184 40.2749 162.747C41.922 163.309 43.7371 163.591 45.72 163.591C47.8309 163.591 49.8059 163.205 51.6449 162.433C53.4999 161.645 55.1231 160.568 56.5144 159.202C57.9216 157.819 59.017 156.227 59.8006 154.427C60.6002 152.61 61 150.665 61 148.591C61 145.857 60.3124 143.357 58.9371 141.091C57.5618 138.808 55.7148 136.991 53.396 135.64C51.0932 134.274 48.5345 133.591 45.72 133.591C42.7936 133.591 40.1949 134.202 37.9241 135.423C35.6693 136.645 33.7823 137.972 32.2631 139.402C31.9113 139.74 31.5914 140.062 31.3036 140.367C31.0317 140.656 30.7599 140.97 30.488 141.308C30.2002 140.97 29.9123 140.656 29.6245 140.367C29.3526 140.078 29.0328 139.756 28.665 139.402C27.6735 138.47 26.5221 137.562 25.2108 136.677C23.8995 135.777 22.4122 135.038 20.7491 134.459ZM9.81085 151.653C9.25115 150.737 8.97129 149.716 8.97129 148.591C8.97129 147.497 9.25115 146.501 9.81085 145.6C10.3866 144.684 11.1462 143.952 12.0897 143.406C13.0492 142.843 14.1046 142.562 15.256 142.562C16.6313 142.562 17.9266 142.883 19.142 143.526C20.3573 144.153 21.4448 144.925 22.4042 145.841C22.7401 146.163 23.1639 146.613 23.6756 147.192C24.2033 147.755 24.6111 148.221 24.8989 148.591C24.6431 148.96 24.3152 149.386 23.9155 149.869C23.5157 150.351 23.0119 150.874 22.4042 151.436C21.3328 152.401 20.2134 153.173 19.046 153.751C17.8946 154.33 16.6313 154.62 15.256 154.62C14.1046 154.62 13.0492 154.354 12.0897 153.824C11.1462 153.277 10.3866 152.554 9.81085 151.653ZM51.1172 145.6C51.6769 146.501 51.9567 147.497 51.9567 148.591C51.9567 149.716 51.6769 150.737 51.1172 151.653C50.5735 152.554 49.8299 153.277 48.8864 153.824C47.9429 154.354 46.8874 154.62 45.72 154.62C44.3288 154.62 43.0414 154.322 41.8581 153.727C40.6907 153.132 39.6032 152.369 38.5958 151.436C38.0361 150.906 37.5563 150.415 37.1565 149.965C36.7567 149.499 36.4049 149.041 36.1011 148.591C36.3409 148.301 36.7087 147.875 37.2045 147.312C37.7002 146.75 38.164 146.259 38.5958 145.841C39.2034 145.263 39.8751 144.724 40.6107 144.226C41.3623 143.711 42.1699 143.309 43.0334 143.02C43.897 142.714 44.7925 142.562 45.72 142.562C46.8874 142.562 47.9429 142.843 48.8864 143.406C49.8299 143.952 50.5735 144.684 51.1172 145.6Z" fill="#F5F4EB"/>
<path fill-rule="evenodd" clip-rule="evenodd" d="M355.179 163.901C352.149 163.901 349.541 163.288 347.355 162.06C345.181 160.82 343.507 159.069 342.331 156.806C341.154 154.531 340.566 151.839 340.566 148.733C340.566 145.703 341.154 143.044 342.331 140.756C343.507 138.467 345.162 136.684 347.297 135.406C349.445 134.127 351.963 133.488 354.853 133.488C356.796 133.488 358.605 133.801 360.279 134.428C361.967 135.041 363.437 135.968 364.69 137.208C365.956 138.448 366.94 140.008 367.643 141.887C368.346 143.754 368.698 145.94 368.698 148.445V150.689H348.64V150.708C348.64 152.165 348.908 153.425 349.445 154.486C349.995 155.547 350.768 156.365 351.765 156.94C352.762 157.516 353.945 157.803 355.313 157.803C356.221 157.803 357.051 157.675 357.806 157.42C358.56 157.164 359.206 156.781 359.743 156.269C360.279 155.758 360.689 155.131 360.97 154.39L368.525 154.889C368.142 156.704 367.355 158.289 366.167 159.644C364.99 160.987 363.469 162.035 361.603 162.789C359.749 163.531 357.608 163.901 355.179 163.901ZM349.464 142.731C348.969 143.604 348.697 144.569 348.647 145.626H361.008C361.008 144.45 360.752 143.408 360.241 142.501C359.73 141.593 359.02 140.884 358.113 140.372C357.218 139.848 356.176 139.586 354.987 139.586C353.747 139.586 352.647 139.874 351.689 140.449C350.743 141.011 350.001 141.772 349.464 142.731Z" fill="#F5F4EB"/>
<path d="M315.585 161.984C317.758 163.262 320.353 163.901 323.37 163.901C325.991 163.901 328.26 163.422 330.178 162.463C332.095 161.504 333.598 160.175 334.684 158.474C335.784 156.761 336.397 154.78 336.525 152.53H328.816C328.663 153.565 328.337 154.454 327.838 155.195C327.352 155.924 326.732 156.48 325.978 156.864C325.237 157.247 324.399 157.439 323.466 157.439C322.201 157.439 321.095 157.094 320.149 156.403C319.203 155.713 318.468 154.71 317.943 153.393C317.432 152.076 317.176 150.478 317.176 148.599C317.176 146.745 317.438 145.166 317.963 143.862C318.487 142.558 319.215 141.567 320.149 140.89C321.095 140.2 322.201 139.854 323.466 139.854C324.962 139.854 326.17 140.308 327.09 141.216C328.024 142.111 328.599 143.293 328.816 144.764H336.525C336.41 142.488 335.79 140.506 334.665 138.819C333.54 137.131 332.012 135.821 330.082 134.888C328.151 133.955 325.901 133.488 323.332 133.488C320.353 133.488 317.784 134.134 315.623 135.425C313.463 136.703 311.794 138.487 310.618 140.775C309.455 143.05 308.873 145.697 308.873 148.714C308.873 151.692 309.448 154.326 310.599 156.614C311.762 158.903 313.424 160.692 315.585 161.984Z" fill="#F5F4EB"/>
<path d="M284.639 146.298V163.326H276.47V133.871H284.256V139.068H284.601C285.253 137.355 286.346 136 287.88 135.003C289.414 133.993 291.274 133.488 293.46 133.488C295.506 133.488 297.289 133.935 298.81 134.83C300.332 135.725 301.514 137.004 302.358 138.665C303.202 140.315 303.624 142.283 303.624 144.572V163.326H295.455V146.029C295.467 144.227 295.007 142.82 294.074 141.81C293.141 140.788 291.856 140.276 290.219 140.276C289.12 140.276 288.148 140.513 287.305 140.986C286.474 141.459 285.822 142.149 285.349 143.057C284.888 143.952 284.652 145.032 284.639 146.298Z" fill="#F5F4EB"/>
<path fill-rule="evenodd" clip-rule="evenodd" d="M249.796 162.06C251.982 163.288 254.59 163.901 257.62 163.901C260.049 163.901 262.19 163.531 264.044 162.789C265.91 162.035 267.432 160.987 268.608 159.644C269.797 158.289 270.583 156.704 270.967 154.889L263.411 154.39C263.13 155.131 262.721 155.758 262.184 156.269C261.647 156.781 261.001 157.164 260.247 157.42C259.493 157.675 258.662 157.803 257.754 157.803C256.386 157.803 255.204 157.516 254.207 156.94C253.21 156.365 252.436 155.547 251.886 154.486C251.349 153.425 251.081 152.165 251.081 150.708V150.689H271.139V148.445C271.139 145.94 270.788 143.754 270.085 141.887C269.381 140.008 268.397 138.448 267.131 137.208C265.879 135.968 264.408 135.041 262.721 134.428C261.046 133.801 259.237 133.488 257.294 133.488C254.405 133.488 251.886 134.127 249.739 135.406C247.604 136.684 245.948 138.467 244.772 140.756C243.596 143.044 243.008 145.703 243.008 148.733C243.008 151.839 243.596 154.531 244.772 156.806C245.948 159.069 247.623 160.82 249.796 162.06ZM251.089 145.626H263.45C263.45 144.45 263.194 143.408 262.683 142.501C262.171 141.593 261.462 140.884 260.554 140.372C259.659 139.848 258.617 139.586 257.428 139.586C256.188 139.586 255.089 139.874 254.13 140.449C253.184 141.011 252.442 141.772 251.906 142.731C251.41 143.604 251.138 144.569 251.089 145.626Z" fill="#F5F4EB"/>
<path d="M229.484 163.326V133.871H237.653V163.326H229.484Z" fill="#F5F4EB"/>
<path d="M233.588 130.075C232.373 130.075 231.331 129.672 230.462 128.866C229.605 128.048 229.177 127.07 229.177 125.933C229.177 124.808 229.605 123.842 230.462 123.037C231.331 122.219 232.373 121.81 233.588 121.81C234.802 121.81 235.838 122.219 236.694 123.037C237.563 123.842 237.998 124.808 237.998 125.933C237.998 127.07 237.563 128.048 236.694 128.866C235.838 129.672 234.802 130.075 233.588 130.075Z" fill="#F5F4EB"/>
<path d="M207.388 133.871V163.326H215.557V146.662C215.557 145.46 215.826 144.399 216.363 143.479C216.912 142.558 217.654 141.842 218.587 141.331C219.533 140.807 220.607 140.545 221.809 140.545C222.371 140.545 222.991 140.589 223.669 140.679C224.346 140.768 224.877 140.871 225.26 140.986V133.737C224.902 133.648 224.487 133.577 224.014 133.526C223.541 133.475 223.1 133.45 222.691 133.45C221.042 133.45 219.584 133.923 218.319 134.869C217.053 135.802 216.152 137.183 215.615 139.011H215.308V133.871H207.388Z" fill="#F5F4EB"/>
<path fill-rule="evenodd" clip-rule="evenodd" d="M188.538 163.901C185.508 163.901 182.9 163.288 180.714 162.06C178.541 160.82 176.866 159.069 175.69 156.806C174.514 154.531 173.926 151.839 173.926 148.733C173.926 145.703 174.514 143.044 175.69 140.756C176.866 138.467 178.522 136.684 180.657 135.406C182.804 134.127 185.323 133.488 188.212 133.488C190.155 133.488 191.964 133.801 193.639 134.428C195.326 135.041 196.797 135.968 198.049 137.208C199.315 138.448 200.299 140.008 201.002 141.887C201.706 143.754 202.057 145.94 202.057 148.445V150.689H181.999V150.708C181.999 152.165 182.267 153.425 182.804 154.486C183.354 155.547 184.127 156.365 185.125 156.94C186.122 157.516 187.304 157.803 188.672 157.803C189.58 157.803 190.411 157.675 191.165 157.42C191.919 157.164 192.565 156.781 193.102 156.269C193.639 155.758 194.048 155.131 194.329 154.39L201.885 154.889C201.501 156.704 200.715 158.289 199.526 159.644C198.35 160.987 196.828 162.035 194.962 162.789C193.108 163.531 190.967 163.901 188.538 163.901ZM194.368 145.626H182.007C182.056 144.569 182.328 143.604 182.824 142.731C183.36 141.772 184.102 141.011 185.048 140.449C186.007 139.874 187.106 139.586 188.346 139.586C189.535 139.586 190.577 139.848 191.472 140.372C192.38 140.884 193.089 141.593 193.6 142.501C194.112 143.408 194.368 144.45 194.368 145.626Z" fill="#F5F4EB"/>
<path fill-rule="evenodd" clip-rule="evenodd" d="M140.943 133.871V174.371H149.112V158.609H149.361C149.732 159.427 150.269 160.239 150.972 161.044C151.675 161.837 152.576 162.495 153.676 163.019C154.788 163.543 156.137 163.805 157.722 163.805C159.959 163.805 161.979 163.23 163.782 162.08C165.597 160.916 167.029 159.21 168.077 156.96C169.138 154.697 169.669 151.923 169.669 148.637C169.669 145.262 169.125 142.456 168.039 140.219C166.952 137.969 165.501 136.288 163.686 135.175C161.87 134.05 159.889 133.488 157.741 133.488C156.092 133.488 154.711 133.769 153.599 134.332C152.5 134.881 151.605 135.572 150.914 136.403C150.237 137.221 149.719 138.026 149.361 138.819H148.997V133.871H140.943ZM149.668 153.182C149.182 151.878 148.939 150.35 148.939 148.599C148.939 146.847 149.182 145.326 149.668 144.035C150.154 142.744 150.851 141.746 151.758 141.043C152.679 140.34 153.804 139.989 155.133 139.989C156.476 139.989 157.607 140.353 158.527 141.082C159.448 141.81 160.145 142.82 160.618 144.112C161.091 145.403 161.327 146.898 161.327 148.599C161.327 150.312 161.084 151.827 160.598 153.143C160.125 154.447 159.429 155.47 158.508 156.212C157.588 156.94 156.463 157.305 155.133 157.305C153.816 157.305 152.698 156.947 151.777 156.231C150.857 155.502 150.154 154.486 149.668 153.182Z" fill="#F5F4EB"/>
<path d="M116.762 133.871L122.169 144.169L127.711 133.871H136.091L127.558 148.599L136.321 163.326H127.98L122.169 153.143L116.455 163.326H108.017L116.762 148.599L108.324 133.871H116.762Z" fill="#F5F4EB"/>
<path fill-rule="evenodd" clip-rule="evenodd" d="M83.7884 162.06C85.9744 163.288 88.5824 163.901 91.6122 163.901C94.0412 163.901 96.1825 163.531 98.0362 162.789C99.9027 162.035 101.424 160.987 102.6 159.644C103.789 158.289 104.575 156.704 104.959 154.889L97.4034 154.39C97.1222 155.131 96.7131 155.758 96.1761 156.269C95.6392 156.781 94.9936 157.164 94.2393 157.42C93.4851 157.675 92.6541 157.803 91.7464 157.803C90.3785 157.803 89.196 157.516 88.1989 156.94C87.2017 156.365 86.4283 155.547 85.8786 154.486C85.3416 153.425 85.0732 152.165 85.0732 150.708V150.689H105.131V148.445C105.131 145.94 104.78 143.754 104.077 141.887C103.374 140.008 102.389 138.448 101.124 137.208C99.8707 135.968 98.4006 135.041 96.7131 134.428C95.0384 133.801 93.2294 133.488 91.2862 133.488C88.397 133.488 85.8785 134.127 83.7308 135.406C81.5959 136.684 79.9403 138.467 78.7642 140.756C77.5881 143.044 77 145.703 77 148.733C77 151.839 77.5881 154.531 78.7642 156.806C79.9403 159.069 81.6151 160.82 83.7884 162.06ZM85.0808 145.626H97.4418C97.4418 144.45 97.1861 143.408 96.6747 142.501C96.1634 141.593 95.4538 140.884 94.5462 140.372C93.6513 139.848 92.6094 139.586 91.4205 139.586C90.1804 139.586 89.081 139.874 88.1222 140.449C87.1761 141.011 86.4347 141.772 85.8977 142.731C85.4024 143.604 85.1301 144.569 85.0808 145.626Z" fill="#F5F4EB"/>
</svg>
