<svg width="61" height="214" viewBox="0 0 61 214" fill="none" xmlns="http://www.w3.org/2000/svg">
<path d="M-1.39615e-07 210.806L0 214L61 214L61 210.806L-1.39615e-07 210.806Z" fill="black"/>
<path d="M-2.79231e-07 207.612L-2.09423e-07 209.209L61 209.209L61 207.612L-2.79231e-07 207.612Z" fill="black"/>
<path d="M-4.88654e-07 202.821L-4.18846e-07 204.418L61 204.418L61 202.821L-4.88654e-07 202.821Z" fill="black"/>
<path d="M-9.07501e-07 193.239L-7.67885e-07 196.433L61 196.433L61 193.239L-9.07501e-07 193.239Z" fill="black"/>
<path d="M-1.11692e-06 188.448L-1.04712e-06 190.045L61 190.045L61 188.448L-1.11692e-06 188.448Z" fill="black"/>
<path d="M-1.25654e-06 185.254L-1.18673e-06 186.851L61 186.851L61 185.254L-1.25654e-06 185.254Z" fill="black"/>
<path d="M-1.60558e-06 177.269L-1.53577e-06 178.866L61 178.866L61 177.269L-1.60558e-06 177.269Z" fill="black"/>
<path d="M-1.815e-06 172.478L-1.67539e-06 175.672L61 175.672L61 172.478L-1.815e-06 172.478Z" fill="black"/>
<path d="M-2.02442e-06 167.687L-1.95462e-06 169.284L61 169.284L61 167.687L-2.02442e-06 167.687Z" fill="black"/>
<path d="M-2.37346e-06 159.701L-2.30366e-06 161.299L61 161.299L61 159.701L-2.37346e-06 159.701Z" fill="black"/>
<path d="M-2.79231e-06 150.119L-2.51308e-06 156.507L61 156.507L61 150.119L-2.79231e-06 150.119Z" fill="black"/>
<path d="M-2.93193e-06 146.925L-2.86212e-06 148.522L61 148.522L61 146.925L-2.93193e-06 146.925Z" fill="black"/>
<path d="M-3.14135e-06 142.134L-3.07154e-06 143.731L61 143.731L61 142.134L-3.14135e-06 142.134Z" fill="black"/>
<path d="M-3.49039e-06 134.149L-3.21116e-06 140.537L61 140.537L61 134.149L-3.49039e-06 134.149Z" fill="black"/>
<path d="M-3.69981e-06 129.358L-3.63e-06 130.955L61 130.955L61 129.358L-3.69981e-06 129.358Z" fill="black"/>
<path d="M-3.90923e-06 124.567L-3.83943e-06 126.164L61 126.164L61 124.567L-3.90923e-06 124.567Z" fill="black"/>
<path d="M-4.18846e-06 118.179L-4.04885e-06 121.373L61 121.373L61 118.179L-4.18846e-06 118.179Z" fill="black"/>
<path d="M-4.4677e-06 111.791L-4.25827e-06 116.582L61 116.582L61 111.791L-4.4677e-06 111.791Z" fill="black"/>
<path d="M-4.67712e-06 107L-4.60731e-06 108.597L61 108.597L61 107L-4.67712e-06 107Z" fill="black"/>
<path d="M-5.02616e-06 99.0149L-4.95635e-06 100.612L61 100.612L61 99.0149L-5.02616e-06 99.0149Z" fill="black"/>
<path d="M-5.23558e-06 94.2239L-5.09596e-06 97.4179L61 97.4179L61 94.2239L-5.23558e-06 94.2239Z" fill="black"/>
<path d="M-5.445e-06 89.4328L-5.3752e-06 91.0299L61 91.0298L61 89.4328L-5.445e-06 89.4328Z" fill="black"/>
<path d="M-5.93366e-06 78.2537L-5.65443e-06 84.6418L61 84.6418L61 78.2537L-5.93366e-06 78.2537Z" fill="black"/>
<path d="M-6.07327e-06 75.0597L-6.00347e-06 76.6567L61 76.6567L61 75.0597L-6.07327e-06 75.0597Z" fill="black"/>
<path d="M-6.21289e-06 71.8657L-6.14308e-06 73.4627L61 73.4627L61 71.8657L-6.21289e-06 71.8657Z" fill="black"/>
<path d="M-6.56193e-06 63.8806L-6.49212e-06 65.4776L61 65.4776L61 63.8806L-6.56193e-06 63.8806Z" fill="black"/>
<path d="M-6.84116e-06 57.4925L-6.70154e-06 60.6866L61 60.6866L61 57.4925L-6.84116e-06 57.4925Z" fill="black"/>
<path d="M-6.98077e-06 54.2985L-6.91097e-06 55.8955L61 55.8955L61 54.2985L-6.98077e-06 54.2985Z" fill="black"/>
<path d="M-7.1902e-06 49.5075L-7.05058e-06 52.7015L61 52.7015L61 49.5075L-7.1902e-06 49.5075Z" fill="black"/>
<path d="M-7.39962e-06 44.7164L-7.32981e-06 46.3134L61 46.3134L61 44.7164L-7.39962e-06 44.7164Z" fill="black"/>
<path d="M-7.74866e-06 36.7313L-7.67885e-06 38.3284L61 38.3284L61 36.7313L-7.74866e-06 36.7313Z" fill="black"/>
<path d="M-8.0977e-06 28.7463L-7.81847e-06 35.1343L61 35.1343L61 28.7463L-8.0977e-06 28.7463Z" fill="black"/>
<path d="M-8.37693e-06 22.3582L-8.16751e-06 27.1493L61 27.1493L61 22.3582L-8.37693e-06 22.3582Z" fill="black"/>
<path d="M-8.58635e-06 17.5672L-8.44674e-06 20.7612L61 20.7612L61 17.5672L-8.58635e-06 17.5672Z" fill="black"/>
<path d="M-9.0052e-06 7.98508L-8.79578e-06 12.7761L61 12.7761L61 7.98507L-9.0052e-06 7.98508Z" fill="black"/>
<path d="M-9.14481e-06 4.79105L-9.07501e-06 6.38806L61 6.38806L61 4.79104L-9.14481e-06 4.79105Z" fill="black"/>
<path d="M-9.35424e-06 2.86102e-06L-9.21462e-06 3.19403L61 3.19403L61 1.94628e-07L-9.35424e-06 2.86102e-06Z" fill="black"/>
</svg>
