<svg width="32" height="196" viewBox="0 0 32 196" fill="none" xmlns="http://www.w3.org/2000/svg">
<path d="M22.976 95.244L22.976 95.356C23.928 95.524 24.7307 96.056 25.384 96.952C26.0187 97.8293 26.336 99.0053 26.336 100.48C26.336 101.637 26.1213 102.711 25.692 103.7C25.2627 104.671 24.628 105.52 23.788 106.248C22.9293 106.957 21.8747 107.517 20.624 107.928C19.3733 108.339 17.9267 108.544 16.284 108.544C14.6413 108.544 13.1947 108.339 11.944 107.928C10.6747 107.499 9.61067 106.901 8.752 106.136C7.89333 105.371 7.24 104.456 6.792 103.392C6.344 102.328 6.12 101.143 6.12 99.836C6.12 98.0813 6.50267 96.588 7.268 95.356C8.03333 94.124 9.13467 93.1533 10.572 92.444L12.336 95.44C11.496 95.7947 10.796 96.3267 10.236 97.036C9.676 97.7267 9.396 98.66 9.396 99.836C9.396 101.292 9.844 102.459 10.74 103.336C11.6173 104.195 12.924 104.624 14.66 104.624L17.796 104.624C19.5133 104.624 20.82 104.185 21.716 103.308C22.612 102.431 23.06 101.255 23.06 99.78C23.06 99.2013 22.9947 98.66 22.864 98.156C22.7147 97.652 22.5 97.2133 22.22 96.84C21.94 96.4667 21.5947 96.168 21.184 95.944C20.7733 95.72 20.288 95.608 19.728 95.608L18.468 95.608L18.468 99.444L15.36 99.444L15.36 92.052L26 92.052L26 95.244L22.976 95.244ZM9.256 87.3224C9.256 88.0691 9.088 88.6104 8.752 88.9464C8.416 89.2637 7.98667 89.4224 7.464 89.4224L6.904 89.4224C6.38133 89.4224 5.952 89.2637 5.616 88.9464C5.28 88.6104 5.112 88.0691 5.112 87.3224C5.112 86.5944 5.28 86.0624 5.616 85.7264C5.952 85.3904 6.38133 85.2224 6.904 85.2224L7.464 85.2224C7.98666 85.2224 8.416 85.3904 8.752 85.7264C9.088 86.0624 9.256 86.5944 9.256 87.3224ZM11.384 89.1144L11.384 85.5304L26 85.5304L26 89.1144L11.384 89.1144ZM26 77.9321C26 79.1641 25.6827 80.1068 25.048 80.7601C24.3947 81.3948 23.4707 81.7121 22.276 81.7121L14.24 81.7121L14.24 83.8681L11.384 83.8681L11.384 82.7481C11.384 82.2068 11.2627 81.8428 11.02 81.6561C10.7587 81.4508 10.376 81.3481 9.872 81.3481L7.38 81.3481L7.38 78.1281L11.384 78.1281L11.384 75.1321L14.24 75.1321L14.24 78.1281L23.144 78.1281L23.144 75.3561L26 75.3561L26 77.9321ZM6.456 72.9195L6.456 63.8755C6.456 63.0728 6.57733 62.3541 6.82 61.7195C7.06266 61.0661 7.39866 60.5155 7.828 60.0675C8.25733 59.6195 8.78933 59.2835 9.424 59.0595C10.04 58.8168 10.7213 58.6955 11.468 58.6955C12.2147 58.6955 12.8493 58.7981 13.372 59.0035C13.876 59.1901 14.296 59.4515 14.632 59.7875C14.968 60.1048 15.22 60.4781 15.388 60.9075C15.556 61.3181 15.6493 61.7475 15.668 62.1955L15.836 62.1955C15.836 61.7661 15.92 61.3088 16.088 60.8235C16.256 60.3195 16.5267 59.8621 16.9 59.4515C17.2547 59.0221 17.7213 58.6675 18.3 58.3875C18.86 58.1075 19.56 57.9675 20.4 57.9675C21.184 57.9675 21.9213 58.0981 22.612 58.3595C23.284 58.6021 23.872 58.9475 24.376 59.3955C24.88 59.8435 25.2813 60.3755 25.58 60.9915C25.86 61.6075 26 62.2795 26 63.0075L26 72.9195L6.456 72.9195ZM22.864 69.2235L22.864 64.0715C22.864 63.3621 22.6867 62.8115 22.332 62.4195C21.9587 62.0275 21.4267 61.8315 20.736 61.8315L19.784 61.8315C19.0933 61.8315 18.5613 62.0275 18.188 62.4195C17.8147 62.8115 17.628 63.3621 17.628 64.0715L17.628 69.2235L22.864 69.2235ZM14.604 69.2235L14.604 64.6595C14.604 63.9875 14.4267 63.4648 14.072 63.0915C13.6987 62.7181 13.1853 62.5315 12.532 62.5315L11.664 62.5315C11.0107 62.5315 10.5067 62.7181 10.152 63.0915C9.77866 63.4648 9.592 63.9875 9.592 64.6595L9.592 69.2235L14.604 69.2235ZM23.564 46.9611L23.564 47.1011C23.9373 47.2317 24.292 47.4091 24.628 47.6331C24.9453 47.8384 25.2347 48.1091 25.496 48.4451C25.7573 48.7624 25.9627 49.1544 26.112 49.6211C26.2613 50.0691 26.336 50.5917 26.336 51.1891C26.336 52.7011 25.8413 53.8584 24.852 54.6611C23.8627 55.4637 22.4533 55.8651 20.624 55.8651L11.384 55.8651L11.384 52.2811L20.26 52.2811C21.268 52.2811 22.0427 52.0851 22.584 51.6931C23.1067 51.3011 23.368 50.6757 23.368 49.8171C23.368 49.4624 23.3213 49.1171 23.228 48.7811C23.1347 48.4264 22.9947 48.1184 22.808 47.8571C22.6027 47.5957 22.36 47.3811 22.08 47.2131C21.7813 47.0451 21.436 46.9611 21.044 46.9611L11.384 46.9611L11.384 43.3771L26 43.3771L26 46.9611L23.564 46.9611ZM26 35.7921C26 37.0241 25.6827 37.9668 25.048 38.6201C24.3947 39.2548 23.4707 39.5721 22.276 39.5721L14.24 39.5721L14.24 41.7281L11.384 41.7281L11.384 40.6081C11.384 40.0668 11.2627 39.7028 11.02 39.5161C10.7587 39.3108 10.376 39.2081 9.872 39.2081L7.38 39.2081L7.38 35.9881L11.384 35.9881L11.384 32.9921L14.24 32.9921L14.24 35.9881L23.144 35.9881L23.144 33.2161L26 33.2161L26 35.7921ZM26 27.4195C26 28.6515 25.692 29.5568 25.076 30.1355C24.46 30.7141 23.592 31.0035 22.472 31.0035L5.28 31.0035L5.28 27.4195L23.144 27.4195L23.144 25.4875L26 25.4875L26 27.4195ZM26.336 17.985C26.336 19.0677 26.1587 20.0383 25.804 20.897C25.4307 21.737 24.9173 22.4557 24.264 23.053C23.592 23.6317 22.7893 24.0797 21.856 24.397C20.904 24.7143 19.84 24.873 18.664 24.873C17.5067 24.873 16.4613 24.7237 15.528 24.425C14.5947 24.1077 13.8013 23.6597 13.148 23.081C12.476 22.5023 11.9627 21.793 11.608 20.953C11.2347 20.113 11.048 19.161 11.048 18.097C11.048 16.9583 11.244 15.969 11.636 15.129C12.028 14.289 12.56 13.5983 13.232 13.057C13.904 12.5157 14.688 12.1143 15.584 11.853C16.4613 11.573 17.404 11.433 18.412 11.433L19.588 11.433L19.588 21.149L19.952 21.149C21.016 21.149 21.8747 20.8503 22.528 20.253C23.1627 19.6557 23.48 18.769 23.48 17.593C23.48 16.697 23.2933 15.969 22.92 15.409C22.5467 14.8303 22.0707 14.317 21.492 13.869L23.648 11.937C24.488 12.5343 25.1507 13.3557 25.636 14.401C26.1027 15.4277 26.336 16.6223 26.336 17.985ZM13.736 18.041C13.736 18.993 14.0533 19.749 14.688 20.309C15.3227 20.869 16.144 21.149 17.152 21.149L17.376 21.149L17.376 15.157L17.124 15.157C16.116 15.157 15.304 15.409 14.688 15.913C14.0533 16.3983 13.736 17.1077 13.736 18.041ZM26 9.39972L11.384 9.39972L11.384 5.81572L14.408 5.81572L14.408 5.67572C14.016 5.58238 13.6427 5.44238 13.288 5.25572C12.9147 5.05038 12.588 4.78905 12.308 4.47172C12.028 4.15438 11.804 3.78105 11.636 3.35172C11.468 2.90372 11.384 2.39038 11.384 1.81172L11.384 1.02772L14.772 1.02772L14.772 2.14772C14.772 3.36105 14.9493 4.27572 15.304 4.89172C15.6587 5.50772 16.2373 5.81572 17.04 5.81572L26 5.81572L26 9.39972Z" fill="black"/>
<path d="M5.28 193.377L5.28 189.793L13.792 189.793L13.792 189.681C12.952 189.42 12.2893 188.925 11.804 188.197C11.3 187.469 11.048 186.62 11.048 185.649C11.048 183.783 11.7107 182.364 13.036 181.393C14.3427 180.404 16.2187 179.909 18.664 179.909C21.128 179.909 23.0227 180.404 24.348 181.393C25.6733 182.364 26.336 183.783 26.336 185.649C26.336 186.62 26.084 187.469 25.58 188.197C25.076 188.907 24.404 189.401 23.564 189.681L23.564 189.793L26 189.793L26 193.377L5.28 193.377ZM23.368 186.797C23.368 185.864 23.06 185.108 22.444 184.529C21.828 183.951 20.9973 183.661 19.952 183.661L17.432 183.661C16.3867 183.661 15.556 183.951 14.94 184.529C14.3053 185.108 13.988 185.864 13.988 186.797C13.988 187.656 14.2027 188.375 14.632 188.953C15.0613 189.513 15.6307 189.793 16.34 189.793L20.988 189.793C21.7533 189.793 22.3413 189.513 22.752 188.953C23.1627 188.375 23.368 187.656 23.368 186.797ZM11.384 168.994L11.384 165.634L28.604 171.514C29.1267 171.701 29.5747 171.916 29.948 172.158C30.34 172.382 30.6573 172.653 30.9 172.97C31.1427 173.288 31.32 173.67 31.432 174.118C31.544 174.566 31.6 175.089 31.6 175.686L31.6 177.842L28.744 177.842L28.744 175.21L26.7 174.538L11.384 179.774L11.384 176.218L19.112 173.67L22.808 172.718L22.808 172.55L19.112 171.542L11.384 168.994Z" fill="black"/>
<path d="M10.679 141.517L8.34297 145.244C5.36577 149.994 3.87717 152.369 4.85771 154.184C5.83825 156 8.60948 156 14.1519 156L18.824 156C24.3665 156 27.1377 156 28.1182 154.184C29.0988 152.369 27.6102 149.994 24.633 145.244L22.2969 141.517C19.684 137.349 18.3775 135.264 16.488 135.264C14.5985 135.264 13.292 137.349 10.679 141.517Z" fill="black"/>
<path d="M21.6543 137.321C21.8853 136.936 22.1267 136.531 22.3804 136.105L25.0514 131.619C27.8534 126.914 29.2544 124.561 28.2665 122.78C27.2785 121 24.572 121 19.159 121L13.817 121C8.4039 121 5.69738 121 4.70944 122.78C3.72151 124.561 5.12251 126.914 7.92451 131.619L10.5955 136.105C10.8492 136.531 11.0906 136.936 11.3216 137.321C11.7493 136.698 12.1569 136.147 12.5539 135.682C13.566 134.496 14.7994 133.515 16.4879 133.515C18.1765 133.515 19.4099 134.496 20.4219 135.682C20.819 136.147 21.2266 136.698 21.6543 137.321Z" fill="black"/>
</svg>
