<svg width="39" height="244" viewBox="0 0 39 244" fill="none" xmlns="http://www.w3.org/2000/svg">
<path d="M30.36 235.03C30.36 236.49 30.09 237.76 29.55 238.84C29.01 239.92 28.27 240.77 27.33 241.39C26.39 241.99 25.33 242.34 24.15 242.44L24.15 239.2C25.13 239 25.92 238.54 26.52 237.82C27.12 237.08 27.42 236.14 27.42 235C27.42 233.66 27 232.6 26.16 231.82C25.3 231.04 24.2 230.65 22.86 230.65C21.44 230.65 20.34 231.05 19.56 231.85C18.78 232.65 18.39 233.67 18.39 234.91C18.39 235.91 18.62 236.76 19.08 237.46C19.54 238.16 20.12 238.71 20.82 239.11L20.82 242.17L9 240.37L9 228.94L11.94 228.94L11.94 237.91L17.31 238.93L17.31 238.72C16.83 238.3 16.43 237.74 16.11 237.04C15.79 236.32 15.63 235.47 15.63 234.49C15.63 233.05 15.94 231.82 16.56 230.8C17.18 229.76 18.04 228.96 19.14 228.4C20.22 227.84 21.45 227.56 22.83 227.56C24.23 227.56 25.5 227.87 26.64 228.49C27.78 229.09 28.69 229.95 29.37 231.07C30.03 232.19 30.36 233.51 30.36 235.03ZM30 224.032L27.15 224.032L27.15 218.842L12.75 218.842L13.65 223.792L11.07 223.792L9 217.612L9 215.662L27.15 215.662L27.15 210.082L30 210.082L30 224.032ZM30.36 199.023C30.36 200.463 30.09 201.733 29.55 202.833C29.01 203.913 28.27 204.763 27.33 205.383C26.39 206.003 25.31 206.313 24.09 206.313C22.79 206.313 21.7 205.973 20.82 205.293C19.92 204.593 19.3 203.813 18.96 202.953L18.78 202.953C18.36 203.773 17.77 204.443 17.01 204.963C16.25 205.483 15.33 205.743 14.25 205.743C13.23 205.743 12.3 205.473 11.46 204.933C10.6 204.393 9.92 203.623 9.42 202.623C8.9 201.623 8.64 200.423 8.64 199.023C8.64 197.643 8.9 196.453 9.42 195.453C9.92 194.453 10.6 193.683 11.46 193.143C12.3 192.583 13.23 192.303 14.25 192.303C15.33 192.303 16.25 192.563 17.01 193.083C17.77 193.603 18.36 194.273 18.78 195.093L18.96 195.093C19.3 194.213 19.92 193.433 20.82 192.753C21.7 192.073 22.79 191.733 24.09 191.733C25.31 191.733 26.39 192.043 27.33 192.663C28.27 193.263 29.01 194.113 29.55 195.213C30.09 196.313 30.36 197.583 30.36 199.023ZM17.67 199.023C17.67 197.903 17.38 197.023 16.8 196.383C16.22 195.723 15.47 195.393 14.55 195.393C13.63 195.393 12.88 195.723 12.3 196.383C11.72 197.023 11.43 197.903 11.43 199.023C11.43 200.143 11.72 201.033 12.3 201.693C12.88 202.333 13.63 202.653 14.55 202.653C15.47 202.653 16.22 202.333 16.8 201.693C17.38 201.033 17.67 200.143 17.67 199.023ZM27.48 199.023C27.48 197.783 27.17 196.783 26.55 196.023C25.91 195.263 25.02 194.883 23.88 194.883C22.74 194.883 21.86 195.263 21.24 196.023C20.6 196.783 20.28 197.783 20.28 199.023C20.28 200.263 20.6 201.263 21.24 202.023C21.86 202.783 22.74 203.163 23.88 203.163C25.02 203.163 25.91 202.783 26.55 202.023C27.17 201.263 27.48 200.263 27.48 199.023ZM30 188.055L27.15 188.055L27.15 182.865L12.75 182.865L13.65 187.815L11.07 187.815L9 181.635L9 179.685L27.15 179.685L27.15 174.105L30 174.105L30 188.055ZM30 169.947L27.48 169.947C25.84 167.887 24.33 166.087 22.95 164.547C21.57 162.987 20.24 161.767 18.96 160.887C17.68 160.007 16.38 159.567 15.06 159.567C13.96 159.567 13.1 159.877 12.48 160.497C11.84 161.117 11.52 161.957 11.52 163.017C11.52 164.237 11.91 165.177 12.69 165.837C13.45 166.497 14.36 166.827 15.42 166.827L15.42 169.917C13.94 169.897 12.7 169.587 11.7 168.987C10.7 168.387 9.94 167.577 9.42 166.557C8.9 165.517 8.64 164.337 8.64 163.017C8.64 160.877 9.22 159.227 10.38 158.067C11.52 156.907 13.05 156.327 14.97 156.327C16.19 156.327 17.37 156.597 18.51 157.137C19.63 157.657 20.7 158.347 21.72 159.207C22.74 160.067 23.71 161.027 24.63 162.087C25.55 163.127 26.43 164.177 27.27 165.237L27.27 155.757L30 155.757L30 169.947ZM30 152.079L27.15 152.079L27.15 146.889L12.75 146.889L13.65 151.839L11.07 151.839L8.99999 145.659L8.99999 143.709L27.15 143.709L27.15 138.129L30 138.129L30 152.079ZM30.18 127.07C30.18 127.81 29.94 128.44 29.46 128.96C28.96 129.48 28.36 129.74 27.66 129.74C26.96 129.74 26.37 129.48 25.89 128.96C25.41 128.44 25.17 127.81 25.17 127.07C25.17 126.31 25.41 125.68 25.89 125.18C26.37 124.66 26.96 124.4 27.66 124.4C28.36 124.4 28.96 124.66 29.46 125.18C29.94 125.68 30.18 126.31 30.18 127.07ZM30 115.982L27.48 115.982C25.84 113.922 24.33 112.122 22.95 110.582C21.57 109.022 20.24 107.802 18.96 106.922C17.68 106.042 16.38 105.602 15.06 105.602C13.96 105.602 13.1 105.912 12.48 106.532C11.84 107.152 11.52 107.992 11.52 109.052C11.52 110.272 11.91 111.212 12.69 111.872C13.45 112.532 14.36 112.862 15.42 112.862L15.42 115.952C13.94 115.932 12.7 115.622 11.7 115.022C10.7 114.422 9.93999 113.612 9.41999 112.592C8.89999 111.552 8.63999 110.372 8.63999 109.052C8.63999 106.912 9.21999 105.262 10.38 104.102C11.52 102.942 13.05 102.362 14.97 102.362C16.19 102.362 17.37 102.632 18.51 103.172C19.63 103.692 20.7 104.382 21.72 105.242C22.74 106.102 23.71 107.062 24.63 108.122C25.55 109.162 26.43 110.212 27.27 111.272L27.27 101.792L30 101.792L30 115.982ZM30 98.1137L27.15 98.1137L27.15 92.9237L12.75 92.9237L13.65 97.8737L11.07 97.8737L8.99999 91.6937L8.99999 89.7437L27.15 89.7437L27.15 84.1637L30 84.1637L30 98.1137ZM30.36 73.4955C30.36 74.8155 30.1 75.9755 29.58 76.9755C29.06 77.9755 28.36 78.7755 27.48 79.3755C26.58 79.9755 25.57 80.3355 24.45 80.4555L24.45 77.3955C25.39 77.1955 26.13 76.7555 26.67 76.0755C27.21 75.3955 27.48 74.5355 27.48 73.4955C27.48 72.0355 26.85 70.8555 25.59 69.9555C24.31 69.0555 22.32 68.5355 19.62 68.3955L19.62 68.6055C20.46 69.1055 21.15 69.7455 21.69 70.5255C22.23 71.3055 22.5 72.4155 22.5 73.8555C22.5 75.0555 22.22 76.1555 21.66 77.1555C21.08 78.1555 20.28 78.9555 19.26 79.5555C18.24 80.1555 17.06 80.4555 15.72 80.4555C14.44 80.4555 13.27 80.1655 12.21 79.5855C11.13 79.0055 10.27 78.1955 9.62999 77.1555C8.96999 76.0955 8.63999 74.8455 8.63999 73.4055C8.63999 71.5655 9.05999 70.0555 9.89999 68.8755C10.72 67.6955 11.89 66.8255 13.41 66.2655C14.91 65.6855 16.69 65.3955 18.75 65.3955C21.07 65.3955 23.1 65.7155 24.84 66.3555C26.58 66.9755 27.94 67.8955 28.92 69.1155C29.88 70.3155 30.36 71.7755 30.36 73.4955ZM19.65 73.1955C19.65 71.9555 19.27 70.9655 18.51 70.2255C17.73 69.4655 16.76 69.0855 15.6 69.0855C14.42 69.0855 13.45 69.4655 12.69 70.2255C11.91 70.9655 11.52 71.9555 11.52 73.1955C11.52 74.4355 11.9 75.4355 12.66 76.1955C13.42 76.9355 14.39 77.3055 15.57 77.3055C16.75 77.3055 17.73 76.9355 18.51 76.1955C19.27 75.4355 19.65 74.4355 19.65 73.1955ZM30 52.8072L25.47 52.8072L25.47 62.7672L22.98 62.7672L8.99999 53.3772L8.99999 49.6272L22.59 49.6272L22.59 46.8972L25.47 46.8972L25.47 49.6272L30 49.6272L30 52.8072ZM22.59 59.2272L22.59 52.6272L12.57 52.6272L22.59 59.2272Z" fill="black"/>
<circle cx="20" cy="19" r="8" stroke="black" stroke-width="3"/>
<path d="M20 0V11" stroke="black" stroke-width="3"/>
<path d="M20 28L20 37" stroke="black" stroke-width="3"/>
</svg>
