<svg width="116" height="124" viewBox="0 0 116 124" fill="none" xmlns="http://www.w3.org/2000/svg">
<path d="M58 3L92.6099 14.268L114 43.768V80.232L92.6099 109.732L58 121L23.3901 109.732L2 80.232V43.768L23.3901 14.268L58 3Z" stroke="black" stroke-width="4" stroke-linecap="square"/>
<path d="M27.8008 63.0937L87.41 61.5931" stroke="black" stroke-width="8.2"/>
<path d="M40.1444 87.2299L48.4506 87.0208C55.1968 86.8509 60.5279 81.2444 60.3581 74.4983V74.4983C60.1883 67.7521 65.5195 62.1456 72.2656 61.9758L73.7314 61.9389" stroke="black" stroke-width="8.2"/>
<path d="M38.91 38.3705L58.3377 37.8814C65.0839 37.7116 70.6904 43.0428 70.8602 49.7889V49.7889C71.03 56.5351 76.6366 61.8663 83.3827 61.6964L88.3851 61.5705" stroke="black" stroke-width="8.2"/>
</svg>
