<svg width="381" height="196" viewBox="0 0 381 196" fill="none" xmlns="http://www.w3.org/2000/svg">
<path d="M1.254 160V144.6H4.95C7.42867 144.6 9.26933 145.289 10.472 146.668C11.6747 148.032 12.276 149.909 12.276 152.3C12.276 154.691 11.6747 156.575 10.472 157.954C9.26933 159.318 7.42867 160 4.95 160H1.254ZM3.586 157.844H4.862C6.65133 157.844 7.942 157.345 8.734 156.348C9.526 155.336 9.922 153.987 9.922 152.3C9.922 150.613 9.526 149.271 8.734 148.274C7.942 147.262 6.65133 146.756 4.862 146.756H3.586V157.844ZM14.9514 160V144.6H24.7854V146.69H17.2834V151.178H24.1254V153.246H17.2834V157.91H24.7854V160H14.9514ZM31.5968 160L26.8448 144.6H29.3528L32.9828 156.92L36.6128 144.6H39.1208L34.3688 160H31.5968ZM41.3342 160V144.6H51.1682V146.69H43.6662V151.178H50.5082V153.246H43.6662V157.91H51.1682V160H41.3342ZM54.5476 160V144.6H56.8796V157.91H64.4696V160H54.5476ZM72.557 160.264C71.3104 160.264 70.2324 159.941 69.323 159.296C68.4137 158.651 67.717 157.734 67.233 156.546C66.749 155.358 66.507 153.943 66.507 152.3C66.507 150.657 66.749 149.242 67.233 148.054C67.717 146.866 68.4137 145.949 69.323 145.304C70.2324 144.659 71.3104 144.336 72.557 144.336C73.8184 144.336 74.8964 144.659 75.791 145.304C76.7004 145.949 77.397 146.866 77.881 148.054C78.365 149.242 78.607 150.657 78.607 152.3C78.607 153.943 78.365 155.358 77.881 156.546C77.397 157.734 76.7004 158.651 75.791 159.296C74.8964 159.941 73.8184 160.264 72.557 160.264ZM72.557 158.064C73.657 158.064 74.5444 157.573 75.219 156.59C75.8937 155.593 76.231 154.163 76.231 152.3C76.231 150.437 75.8937 149.015 75.219 148.032C74.5444 147.035 73.657 146.536 72.557 146.536C71.4424 146.536 70.5477 147.035 69.873 148.032C69.213 149.015 68.883 150.437 68.883 152.3C68.883 154.163 69.213 155.593 69.873 156.59C70.5477 157.573 71.4424 158.064 72.557 158.064ZM80.7104 160V144.6H85.9244C87.0978 144.6 88.0658 144.805 88.8284 145.216C89.5911 145.612 90.1558 146.162 90.5224 146.866C90.8891 147.57 91.0724 148.377 91.0724 149.286C91.0724 150.195 90.8891 151.002 90.5224 151.706C90.1558 152.41 89.5911 152.967 88.8284 153.378C88.0658 153.774 87.0978 153.972 85.9244 153.972H83.0424V160H80.7104ZM83.0424 151.882H85.8144C86.8118 151.882 87.5378 151.647 87.9924 151.178C88.4618 150.709 88.6964 150.078 88.6964 149.286C88.6964 148.509 88.4618 147.885 87.9924 147.416C87.5378 146.932 86.8118 146.69 85.8144 146.69H83.0424V151.882ZM94.0998 160V144.6H103.934V146.69H96.4318V151.178H103.274V153.246H96.4318V157.91H103.934V160H94.0998ZM107.181 160V144.6H112.219C113.422 144.6 114.412 144.805 115.189 145.216C115.981 145.627 116.568 146.184 116.949 146.888C117.345 147.577 117.543 148.362 117.543 149.242C117.543 150.239 117.287 151.127 116.773 151.904C116.275 152.667 115.505 153.224 114.463 153.576L117.697 160H114.991L112.043 153.906H109.513V160H107.181ZM109.513 151.794H112.087C113.143 151.794 113.913 151.559 114.397 151.09C114.896 150.621 115.145 150.005 115.145 149.242C115.145 148.465 114.903 147.849 114.419 147.394C113.935 146.925 113.151 146.69 112.065 146.69H109.513V151.794ZM133.674 160V144.6H143.508V146.69H136.006V151.178H142.848V153.246H136.006V157.91H143.508V160H133.674ZM145.787 160L150.385 152.3L145.743 144.6H148.449L151.771 150.144L155.005 144.6H157.623L153.025 152.234L157.667 160H155.005L151.639 154.39L148.449 160H145.787ZM159.859 160V144.6H165.073C166.246 144.6 167.214 144.805 167.977 145.216C168.74 145.612 169.304 146.162 169.671 146.866C170.038 147.57 170.221 148.377 170.221 149.286C170.221 150.195 170.038 151.002 169.671 151.706C169.304 152.41 168.74 152.967 167.977 153.378C167.214 153.774 166.246 153.972 165.073 153.972H162.191V160H159.859ZM162.191 151.882H164.963C165.96 151.882 166.686 151.647 167.141 151.178C167.61 150.709 167.845 150.078 167.845 149.286C167.845 148.509 167.61 147.885 167.141 147.416C166.686 146.932 165.96 146.69 164.963 146.69H162.191V151.882ZM173.248 160V144.6H183.082V146.69H175.58V151.178H182.422V153.246H175.58V157.91H183.082V160H173.248ZM186.33 160V144.6H191.368C192.57 144.6 193.56 144.805 194.338 145.216C195.13 145.627 195.716 146.184 196.098 146.888C196.494 147.577 196.692 148.362 196.692 149.242C196.692 150.239 196.435 151.127 195.922 151.904C195.423 152.667 194.653 153.224 193.612 153.576L196.846 160H194.14L191.192 153.906H188.662V160H186.33ZM188.662 151.794H191.236C192.292 151.794 193.062 151.559 193.546 151.09C194.044 150.621 194.294 150.005 194.294 149.242C194.294 148.465 194.052 147.849 193.568 147.394C193.084 146.925 192.299 146.69 191.214 146.69H188.662V151.794ZM199.961 160V157.932H203.305V146.668H200.005V144.6H208.937V146.668H205.637V157.932H208.981V160H199.961ZM212.823 160V144.6H222.657V146.69H215.155V151.178H221.997V153.246H215.155V157.91H222.657V160H212.823ZM225.376 160V144.6H227.664L234.11 155.886V144.6H236.332V160H234.044L227.598 148.714V160H225.376ZM244.089 160.264C242.799 160.264 241.699 159.934 240.789 159.274C239.895 158.614 239.205 157.69 238.721 156.502C238.252 155.299 238.017 153.906 238.017 152.322C238.017 150.723 238.252 149.33 238.721 148.142C239.205 146.939 239.902 146.008 240.811 145.348C241.721 144.673 242.813 144.336 244.089 144.336C245.747 144.336 247.067 144.791 248.049 145.7C249.032 146.595 249.604 147.812 249.765 149.352H247.191C247.059 148.545 246.729 147.878 246.201 147.35C245.688 146.807 244.977 146.536 244.067 146.536C242.909 146.536 242.007 147.049 241.361 148.076C240.716 149.103 240.393 150.518 240.393 152.322C240.393 154.111 240.716 155.519 241.361 156.546C242.007 157.558 242.909 158.064 244.067 158.064C245.006 158.064 245.725 157.822 246.223 157.338C246.722 156.839 247.045 156.187 247.191 155.38H249.765C249.531 156.891 248.937 158.086 247.983 158.966C247.03 159.831 245.732 160.264 244.089 160.264ZM252.397 160V144.6H262.231V146.69H254.729V151.178H261.571V153.246H254.729V157.91H262.231V160H252.397ZM6.644 189.264C5.35333 189.264 4.25333 188.934 3.344 188.274C2.44933 187.614 1.76 186.69 1.276 185.502C0.806667 184.299 0.572 182.906 0.572 181.322C0.572 179.723 0.806667 178.33 1.276 177.142C1.76 175.939 2.45667 175.008 3.366 174.348C4.27533 173.673 5.368 173.336 6.644 173.336C8.30133 173.336 9.62133 173.791 10.604 174.7C11.5867 175.595 12.1587 176.812 12.32 178.352H9.746C9.614 177.545 9.284 176.878 8.756 176.35C8.24267 175.807 7.53133 175.536 6.622 175.536C5.46333 175.536 4.56133 176.049 3.916 177.076C3.27067 178.103 2.948 179.518 2.948 181.322C2.948 183.111 3.27067 184.519 3.916 185.546C4.56133 186.558 5.46333 187.064 6.622 187.064C7.56067 187.064 8.27933 186.822 8.778 186.338C9.27667 185.839 9.59933 185.187 9.746 184.38H12.32C12.0853 185.891 11.4913 187.086 10.538 187.966C9.58467 188.831 8.28667 189.264 6.644 189.264ZM19.7914 189.264C18.5447 189.264 17.4667 188.941 16.5574 188.296C15.6481 187.651 14.9514 186.734 14.4674 185.546C13.9834 184.358 13.7414 182.943 13.7414 181.3C13.7414 179.657 13.9834 178.242 14.4674 177.054C14.9514 175.866 15.6481 174.949 16.5574 174.304C17.4667 173.659 18.5447 173.336 19.7914 173.336C21.0527 173.336 22.1307 173.659 23.0254 174.304C23.9347 174.949 24.6314 175.866 25.1154 177.054C25.5994 178.242 25.8414 179.657 25.8414 181.3C25.8414 182.943 25.5994 184.358 25.1154 185.546C24.6314 186.734 23.9347 187.651 23.0254 188.296C22.1307 188.941 21.0527 189.264 19.7914 189.264ZM19.7914 187.064C20.8914 187.064 21.7787 186.573 22.4534 185.59C23.1281 184.593 23.4654 183.163 23.4654 181.3C23.4654 179.437 23.1281 178.015 22.4534 177.032C21.7787 176.035 20.8914 175.536 19.7914 175.536C18.6767 175.536 17.7821 176.035 17.1074 177.032C16.4474 178.015 16.1174 179.437 16.1174 181.3C16.1174 183.163 16.4474 184.593 17.1074 185.59C17.7821 186.573 18.6767 187.064 19.7914 187.064ZM27.5048 189V173.6H29.7928L36.2388 184.886V173.6H38.4608V189H36.1728L29.7268 177.714V189H27.5048ZM41.4222 189V173.6H51.3002V175.778H43.7542V180.486H50.0902V182.532H43.7542V189H41.4222ZM54.5256 189V173.6H64.3596V175.69H56.8576V180.178H63.6996V182.246H56.8576V186.91H64.3596V189H54.5256ZM67.607 189V173.6H72.645C73.8477 173.6 74.8377 173.805 75.615 174.216C76.407 174.627 76.9937 175.184 77.375 175.888C77.771 176.577 77.969 177.362 77.969 178.242C77.969 179.239 77.7124 180.127 77.199 180.904C76.7004 181.667 75.9304 182.224 74.889 182.576L78.123 189H75.417L72.469 182.906H69.939V189H67.607ZM69.939 180.794H72.513C73.569 180.794 74.339 180.559 74.823 180.09C75.3217 179.621 75.571 179.005 75.571 178.242C75.571 177.465 75.329 176.849 74.845 176.394C74.361 175.925 73.5764 175.69 72.491 175.69H69.939V180.794ZM80.9084 189V173.6H90.7424V175.69H83.2404V180.178H90.0824V182.246H83.2404V186.91H90.7424V189H80.9084ZM93.4618 189V173.6H95.7498L102.196 184.886V173.6H104.418V189H102.13L95.6838 177.714V189H93.4618ZM112.175 189.264C110.885 189.264 109.785 188.934 108.875 188.274C107.981 187.614 107.291 186.69 106.807 185.502C106.338 184.299 106.103 182.906 106.103 181.322C106.103 179.723 106.338 178.33 106.807 177.142C107.291 175.939 107.988 175.008 108.897 174.348C109.807 173.673 110.899 173.336 112.175 173.336C113.833 173.336 115.153 173.791 116.135 174.7C117.118 175.595 117.69 176.812 117.851 178.352H115.277C115.145 177.545 114.815 176.878 114.287 176.35C113.774 175.807 113.063 175.536 112.153 175.536C110.995 175.536 110.093 176.049 109.447 177.076C108.802 178.103 108.479 179.518 108.479 181.322C108.479 183.111 108.802 184.519 109.447 185.546C110.093 186.558 110.995 187.064 112.153 187.064C113.092 187.064 113.811 186.822 114.309 186.338C114.808 185.839 115.131 185.187 115.277 184.38H117.851C117.617 185.891 117.023 187.086 116.069 187.966C115.116 188.831 113.818 189.264 112.175 189.264ZM120.483 189V173.6H130.317V175.69H122.815V180.178H129.657V182.246H122.815V186.91H130.317V189H120.483ZM146.711 190.98L154.323 172.28H156.699L149.065 190.98H146.711ZM173.028 189V187.152C174.539 185.949 175.859 184.842 176.988 183.83C178.132 182.818 179.027 181.843 179.672 180.904C180.318 179.965 180.64 179.012 180.64 178.044C180.64 177.237 180.413 176.607 179.958 176.152C179.504 175.683 178.888 175.448 178.11 175.448C177.216 175.448 176.526 175.734 176.042 176.306C175.558 176.863 175.316 177.531 175.316 178.308H173.05C173.065 177.223 173.292 176.313 173.732 175.58C174.172 174.847 174.766 174.289 175.514 173.908C176.277 173.527 177.142 173.336 178.11 173.336C179.68 173.336 180.89 173.761 181.74 174.612C182.591 175.448 183.016 176.57 183.016 177.978C183.016 178.873 182.818 179.738 182.422 180.574C182.041 181.395 181.535 182.18 180.904 182.928C180.274 183.676 179.57 184.387 178.792 185.062C178.03 185.737 177.26 186.382 176.482 186.998H183.434V189H173.028ZM191.28 189.264C190.092 189.264 189.05 188.941 188.156 188.296C187.276 187.651 186.594 186.734 186.11 185.546C185.626 184.343 185.384 182.928 185.384 181.3C185.384 179.657 185.626 178.242 186.11 177.054C186.594 175.866 187.276 174.949 188.156 174.304C189.05 173.659 190.092 173.336 191.28 173.336C192.482 173.336 193.524 173.659 194.404 174.304C195.284 174.949 195.966 175.866 196.45 177.054C196.934 178.242 197.176 179.657 197.176 181.3C197.176 182.928 196.934 184.343 196.45 185.546C195.966 186.734 195.284 187.651 194.404 188.296C193.524 188.941 192.482 189.264 191.28 189.264ZM187.76 181.3C187.76 182.121 187.833 182.869 187.98 183.544C188.126 184.219 188.332 184.805 188.596 185.304L192.446 175.778C192.079 175.602 191.69 175.514 191.28 175.514C190.253 175.514 189.41 176.035 188.75 177.076C188.09 178.103 187.76 179.511 187.76 181.3ZM191.28 187.108C191.969 187.108 192.578 186.873 193.106 186.404C193.634 185.935 194.044 185.267 194.338 184.402C194.646 183.522 194.8 182.488 194.8 181.3C194.8 180.479 194.726 179.731 194.58 179.056C194.433 178.381 194.228 177.802 193.964 177.318L190.114 186.844C190.48 187.02 190.869 187.108 191.28 187.108ZM199.411 189V187.152C200.922 185.949 202.242 184.842 203.371 183.83C204.515 182.818 205.41 181.843 206.055 180.904C206.7 179.965 207.023 179.012 207.023 178.044C207.023 177.237 206.796 176.607 206.341 176.152C205.886 175.683 205.27 175.448 204.493 175.448C203.598 175.448 202.909 175.734 202.425 176.306C201.941 176.863 201.699 177.531 201.699 178.308H199.433C199.448 177.223 199.675 176.313 200.115 175.58C200.555 174.847 201.149 174.289 201.897 173.908C202.66 173.527 203.525 173.336 204.493 173.336C206.062 173.336 207.272 173.761 208.123 174.612C208.974 175.448 209.399 176.57 209.399 177.978C209.399 178.873 209.201 179.738 208.805 180.574C208.424 181.395 207.918 182.18 207.287 182.928C206.656 183.676 205.952 184.387 205.175 185.062C204.412 185.737 203.642 186.382 202.865 186.998H209.817V189H199.411ZM219.357 189V185.678H212.053V183.852L218.939 173.6H221.689V183.566H223.691V185.678H221.689V189H219.357ZM214.649 183.566H219.489V176.218L214.649 183.566ZM239.051 190.98L246.663 172.28H249.039L241.405 190.98H239.051ZM265.06 189V173.6H270.56C272.159 173.6 273.369 173.967 274.19 174.7C275.011 175.433 275.422 176.379 275.422 177.538C275.422 178.433 275.187 179.159 274.718 179.716C274.249 180.273 273.706 180.677 273.09 180.926V181.08C273.823 181.344 274.454 181.777 274.982 182.378C275.51 182.965 275.774 183.742 275.774 184.71C275.774 185.502 275.576 186.228 275.18 186.888C274.799 187.533 274.234 188.047 273.486 188.428C272.738 188.809 271.821 189 270.736 189H265.06ZM267.392 180.024H270.274C271.169 180.024 271.851 179.848 272.32 179.496C272.789 179.129 273.024 178.579 273.024 177.846C273.024 176.394 272.093 175.668 270.23 175.668H267.392V180.024ZM267.392 186.844H270.428C271.381 186.844 272.115 186.639 272.628 186.228C273.141 185.817 273.398 185.216 273.398 184.424C273.398 183.647 273.127 183.053 272.584 182.642C272.041 182.217 271.308 182.004 270.384 182.004H267.392V186.844ZM278.78 189V173.6H288.614V175.69H281.112V180.178H287.954V182.246H281.112V186.91H288.614V189H278.78ZM291.861 189V173.6H296.899C298.102 173.6 299.092 173.805 299.869 174.216C300.661 174.627 301.248 175.184 301.629 175.888C302.025 176.577 302.223 177.362 302.223 178.242C302.223 179.239 301.966 180.127 301.453 180.904C300.954 181.667 300.184 182.224 299.143 182.576L302.377 189H299.671L296.723 182.906H294.193V189H291.861ZM294.193 180.794H296.767C297.823 180.794 298.593 180.559 299.077 180.09C299.576 179.621 299.825 179.005 299.825 178.242C299.825 177.465 299.583 176.849 299.099 176.394C298.615 175.925 297.83 175.69 296.745 175.69H294.193V180.794ZM305.184 189V173.6H307.516V186.91H315.106V189H305.184ZM318.684 189V186.932H322.028V175.668H318.728V173.6H327.66V175.668H324.36V186.932H327.704V189H318.684ZM330.907 189V173.6H333.195L339.641 184.886V173.6H341.863V189H339.575L333.129 177.714V189H330.907Z" fill="black"/>
<path d="M37.8558 80.0352L57.006 1.80443H73.4787V116.007H57.7045V51.921L43.6183 116.007H32.4425L17.9488 51.921V116.007H2V1.80443H18.4727L37.8558 80.0352Z" fill="black"/>
<path d="M177.321 1.80443H201.302C215.932 1.84324 223.246 9.85645 223.246 25.8441V43.0153C223.246 53.0658 218.92 59.682 210.266 62.864L228.776 116.007H210.732L195.889 65.7744L193.793 66.0654V116.007H177.321V1.80443ZM193.793 18.0443V50.7569H197.577C199.866 50.7569 201.438 50.6017 202.292 50.2912C205.28 49.0883 206.774 46.6629 206.774 43.0153V25.8441C206.774 20.6442 204.387 18.0443 199.614 18.0443H193.793Z" fill="black"/>
<path d="M284.248 93.8304C284.248 109.818 276.351 117.831 260.557 117.87C244.803 117.87 236.925 109.857 236.925 93.8304V23.9815C236.925 7.99382 244.803 0 260.557 0C276.351 0 284.248 7.99382 284.248 23.9815V39.3482H267.775V23.9815C267.775 18.8592 265.389 16.2787 260.616 16.2399H260.499C255.765 16.2399 253.398 18.8204 253.398 23.9815V93.8304C253.398 98.9914 255.784 101.572 260.557 101.572C265.369 101.572 267.775 98.9914 267.775 93.8304V67.0549H259.451V50.7569H284.248V93.8304Z" fill="black"/>
<path d="M298.276 1.80443H341V18.0443H314.748V50.7569H337.333V67.0549H314.748V99.7675H341V116.007H298.276V1.80443Z" fill="black"/>
<path d="M32.3491 2.11328V4.23414H30.2974V17.0277H28.1064V4.23414H26.0547V2.11328H32.3491Z" fill="black"/>
<path d="M33.7505 2.11328H35.9415V8.50626H37.8538V2.11328H40.0449V17.0277H37.8538V10.6347H35.9415V17.0277H33.7505V2.11328Z" fill="black"/>
<path d="M42.0656 2.11328H47.7484V4.23414H44.2566V8.50626H47.2606V10.6347H44.2566V14.9068H47.7484V17.0277H42.0656V2.11328Z" fill="black"/>
<path fill-rule="evenodd" clip-rule="evenodd" d="M63.7764 49.4687L181.062 49.4688V66.7732H63.7764V49.4687Z" fill="black"/>
<path fill-rule="evenodd" clip-rule="evenodd" d="M107.986 97.5432H86.8359V114.848H107.986C123.383 114.848 135.865 102.366 135.865 86.9682V77.3546C135.865 71.5142 140.6 66.7796 146.44 66.7796H154.131V49.4751H146.44C131.043 49.4751 118.561 61.9572 118.561 77.3546V86.9682C118.561 92.8086 113.826 97.5432 107.986 97.5432Z" fill="black"/>
<path fill-rule="evenodd" clip-rule="evenodd" d="M129.868 18.7147H86.8359V1.41016H129.868C145.266 1.41016 157.748 13.8922 157.748 29.2896V38.9032C157.748 44.7436 162.482 49.4782 168.323 49.4782H182.972V66.7827H168.323C152.925 66.7827 140.443 54.3007 140.443 38.9032V29.2896C140.443 23.4492 135.709 18.7147 129.868 18.7147Z" fill="black"/>
</svg>
