<svg width="344" height="122" viewBox="0 0 344 122" fill="none" xmlns="http://www.w3.org/2000/svg">
<path d="M21.7674 18.7575C21.6509 17.583 21.151 16.6706 20.2678 16.0202C19.3845 15.3699 18.1857 15.0447 16.6715 15.0447C15.6426 15.0447 14.7739 15.1903 14.0653 15.4815C13.3568 15.763 12.8132 16.1561 12.4347 16.6609C12.0658 17.1656 11.8814 17.7383 11.8814 18.3789C11.862 18.9128 11.9736 19.3787 12.2163 19.7766C12.4686 20.1746 12.8132 20.5192 13.25 20.8104C13.6868 21.0919 14.1915 21.3394 14.7642 21.5529C15.3369 21.7567 15.9484 21.9315 16.5987 22.0771L19.2777 22.7177C20.5784 23.0089 21.7723 23.3971 22.8594 23.8825C23.9465 24.3678 24.888 24.9647 25.6839 25.6733C26.4799 26.3819 27.0962 27.2166 27.533 28.1776C27.9795 29.1385 28.2076 30.2402 28.2173 31.4826C28.2076 33.3074 27.7417 34.8896 26.8196 36.229C25.9072 37.5588 24.5871 38.5926 22.8594 39.3303C21.1413 40.0582 19.069 40.4222 16.6424 40.4222C14.2352 40.4222 12.1386 40.0534 10.3526 39.3157C8.57635 38.578 7.18833 37.486 6.18857 36.0398C5.19851 34.5838 4.67921 32.7833 4.63068 30.6381H10.7312C10.7991 31.6379 11.0855 32.4727 11.5902 33.1424C12.1046 33.8024 12.7889 34.3023 13.6431 34.642C14.507 34.9721 15.4825 35.1371 16.5696 35.1371C17.6373 35.1371 18.5643 34.9818 19.3505 34.6712C20.1464 34.3606 20.7628 33.9286 21.1996 33.3754C21.6364 32.8221 21.8548 32.1863 21.8548 31.468C21.8548 30.7983 21.6558 30.2353 21.2578 29.7791C20.8696 29.3229 20.2969 28.9347 19.5398 28.6143C18.7924 28.294 17.8751 28.0028 16.788 27.7408L13.5412 26.9254C11.0272 26.3139 9.04226 25.3578 7.58629 24.0572C6.13033 22.7565 5.4072 21.0045 5.4169 18.8011C5.4072 16.9957 5.88767 15.4184 6.85831 14.0692C7.83866 12.7201 9.183 11.6669 10.8913 10.9098C12.5997 10.1527 14.541 9.77415 16.7152 9.77415C18.9283 9.77415 20.8598 10.1527 22.5099 10.9098C24.1697 11.6669 25.4607 12.7201 26.3828 14.0692C27.3049 15.4184 27.7805 16.9812 27.8097 18.7575H21.7674ZM46.6826 30.478V17.6364H52.885V40H46.9301V35.9379H46.6972C46.1924 37.2482 45.3528 38.3014 44.1784 39.0973C43.0136 39.8932 41.5916 40.2912 39.9124 40.2912C38.4176 40.2912 37.1024 39.9515 35.9667 39.272C34.8311 38.5926 33.9429 37.6268 33.3023 36.3746C32.6714 35.1225 32.3511 33.6229 32.3414 31.8757V17.6364H38.5438V30.7692C38.5535 32.0893 38.9078 33.1327 39.6066 33.8995C40.3055 34.6663 41.2422 35.0497 42.4166 35.0497C43.164 35.0497 43.8629 34.8799 44.5132 34.5401C45.1636 34.1907 45.6877 33.6763 46.0857 32.9968C46.4933 32.3174 46.6923 31.4777 46.6826 30.478ZM57.8462 48.3864V17.6364H63.9613V21.3928H64.2379C64.5097 20.791 64.9028 20.1795 65.4173 19.5582C65.9414 18.9273 66.6209 18.4032 67.4556 17.9858C68.3001 17.5587 69.3484 17.3452 70.6005 17.3452C72.2312 17.3452 73.7357 17.7723 75.114 18.6264C76.4923 19.4709 77.594 20.7473 78.419 22.4556C79.2441 24.1542 79.6566 26.2848 79.6566 28.8473C79.6566 31.3419 79.2538 33.4482 78.4482 35.1662C77.6522 36.8745 76.5651 38.1703 75.1868 39.0536C73.8182 39.9272 72.2846 40.364 70.5859 40.364C69.3823 40.364 68.3583 40.165 67.5138 39.767C66.6791 39.3691 65.9948 38.8692 65.4609 38.2674C64.9271 37.6559 64.5194 37.0395 64.2379 36.4183H64.0487V48.3864H57.8462ZM63.9176 28.8182C63.9176 30.148 64.102 31.3079 64.4709 32.2979C64.8397 33.288 65.3736 34.0597 66.0724 34.6129C66.7713 35.1565 67.6206 35.4283 68.6204 35.4283C69.6299 35.4283 70.484 35.1516 71.1829 34.5984C71.8817 34.0354 72.4107 33.2589 72.7699 32.2688C73.1387 31.2691 73.3232 30.1188 73.3232 28.8182C73.3232 27.5272 73.1436 26.3916 72.7844 25.4112C72.4253 24.4309 71.8963 23.6641 71.1974 23.1108C70.4986 22.5575 69.6396 22.2809 68.6204 22.2809C67.6109 22.2809 66.7567 22.5478 66.0579 23.0817C65.3687 23.6155 64.8397 24.3726 64.4709 25.353C64.102 26.3333 63.9176 27.4884 63.9176 28.8182ZM93.9833 40.4368C91.6829 40.4368 89.7028 39.9709 88.043 39.0391C86.3929 38.0975 85.1213 36.7678 84.2283 35.0497C83.3353 33.322 82.8888 31.2788 82.8888 28.9201C82.8888 26.6197 83.3353 24.6007 84.2283 22.8633C85.1213 21.1258 86.3783 19.7718 87.9993 18.8011C89.63 17.8305 91.5421 17.3452 93.7358 17.3452C95.2112 17.3452 96.5846 17.583 97.8562 18.0586C99.1374 18.5245 100.254 19.2282 101.205 20.1697C102.166 21.1113 102.913 22.2955 103.447 23.7223C103.981 25.1394 104.248 26.7992 104.248 28.7017V30.4052H85.364V26.5614H98.4094C98.4094 25.6684 98.2153 24.8774 97.8271 24.1882C97.4388 23.4991 96.9001 22.9603 96.2109 22.5721C95.5315 22.1741 94.7404 21.9751 93.8377 21.9751C92.8962 21.9751 92.0614 22.1935 91.3335 22.6303C90.6152 23.0574 90.0522 23.6349 89.6445 24.3629C89.2369 25.0812 89.0282 25.882 89.0185 26.7653V30.4197C89.0185 31.5263 89.2223 32.4824 89.63 33.288C90.0473 34.0936 90.6346 34.7148 91.3917 35.1516C92.1488 35.5884 93.0466 35.8068 94.0852 35.8068C94.7744 35.8068 95.4053 35.7098 95.978 35.5156C96.5507 35.3215 97.0408 35.0303 97.4485 34.642C97.8562 34.2538 98.1668 33.7782 98.3803 33.2152L104.117 33.5938C103.826 34.9721 103.229 36.1757 102.326 37.2045C101.433 38.2237 100.278 39.0196 98.8608 39.5923C97.4534 40.1553 95.8275 40.4368 93.9833 40.4368ZM108.295 40V17.6364H114.309V21.5384H114.542C114.949 20.1503 115.634 19.102 116.594 18.3935C117.555 17.6752 118.662 17.3161 119.914 17.3161C120.225 17.3161 120.56 17.3355 120.919 17.3743C121.278 17.4131 121.593 17.4665 121.865 17.5344V23.038C121.574 22.9506 121.171 22.873 120.657 22.805C120.142 22.7371 119.671 22.7031 119.244 22.7031C118.332 22.7031 117.517 22.9021 116.798 23.3001C116.09 23.6883 115.527 24.2319 115.109 24.9308C114.702 25.6296 114.498 26.4353 114.498 27.3477V40H108.295ZM144.753 40.4368C142.452 40.4368 140.472 39.9709 138.812 39.0391C137.162 38.0975 135.891 36.7678 134.998 35.0497C134.105 33.322 133.658 31.2788 133.658 28.9201C133.658 26.6197 134.105 24.6007 134.998 22.8633C135.891 21.1258 137.148 19.7718 138.769 18.8011C140.4 17.8305 142.312 17.3452 144.505 17.3452C145.981 17.3452 147.354 17.583 148.626 18.0586C149.907 18.5245 151.023 19.2282 151.974 20.1697C152.935 21.1113 153.683 22.2955 154.217 23.7223C154.75 25.1394 155.017 26.7992 155.017 28.7017V30.4052H136.134V26.5614H149.179C149.179 25.6684 148.985 24.8774 148.597 24.1882C148.208 23.4991 147.67 22.9603 146.98 22.5721C146.301 22.1741 145.51 21.9751 144.607 21.9751C143.666 21.9751 142.831 22.1935 142.103 22.6303C141.385 23.0574 140.822 23.6349 140.414 24.3629C140.006 25.0812 139.798 25.882 139.788 26.7653V30.4197C139.788 31.5263 139.992 32.4824 140.4 33.288C140.817 34.0936 141.404 34.7148 142.161 35.1516C142.918 35.5884 143.816 35.8068 144.855 35.8068C145.544 35.8068 146.175 35.7098 146.748 35.5156C147.32 35.3215 147.81 35.0303 148.218 34.642C148.626 34.2538 148.936 33.7782 149.15 33.2152L154.886 33.5938C154.595 34.9721 153.998 36.1757 153.096 37.2045C152.203 38.2237 151.047 39.0196 149.63 39.5923C148.223 40.1553 146.597 40.4368 144.753 40.4368ZM165.442 40.4222C164.015 40.4222 162.744 40.1747 161.627 39.6797C160.511 39.175 159.628 38.4324 158.978 37.4521C158.337 36.462 158.017 35.2293 158.017 33.7539C158.017 32.5115 158.245 31.468 158.701 30.6236C159.157 29.7791 159.778 29.0997 160.565 28.5852C161.351 28.0708 162.244 27.6825 163.244 27.4205C164.253 27.1584 165.311 26.974 166.418 26.8672C167.718 26.7313 168.767 26.6051 169.562 26.4886C170.358 26.3625 170.936 26.178 171.295 25.9354C171.654 25.6927 171.834 25.3336 171.834 24.858V24.7706C171.834 23.8485 171.543 23.1351 170.96 22.6303C170.388 22.1256 169.572 21.8732 168.514 21.8732C167.398 21.8732 166.51 22.1207 165.85 22.6158C165.19 23.1011 164.753 23.7126 164.539 24.4503L158.803 23.9844C159.094 22.6255 159.667 21.451 160.521 20.4609C161.375 19.4612 162.477 18.6944 163.826 18.1605C165.185 17.617 166.757 17.3452 168.543 17.3452C169.786 17.3452 170.975 17.4908 172.11 17.782C173.256 18.0732 174.27 18.5245 175.153 19.136C176.046 19.7475 176.75 20.5337 177.265 21.4947C177.779 22.4459 178.036 23.5864 178.036 24.9162V40H172.154V36.8988H171.979C171.62 37.5977 171.14 38.214 170.538 38.7479C169.936 39.272 169.213 39.6845 168.369 39.9854C167.524 40.2766 166.549 40.4222 165.442 40.4222ZM167.218 36.1417C168.131 36.1417 168.936 35.9621 169.635 35.603C170.334 35.2341 170.883 34.7391 171.281 34.1179C171.679 33.4967 171.877 32.793 171.877 32.0067V29.6335C171.683 29.7597 171.416 29.8762 171.077 29.983C170.747 30.08 170.373 30.1722 169.956 30.2596C169.538 30.3372 169.121 30.41 168.703 30.478C168.286 30.5362 167.908 30.5896 167.568 30.6381C166.84 30.7449 166.204 30.9148 165.661 31.1477C165.117 31.3807 164.695 31.6961 164.394 32.0941C164.093 32.4824 163.942 32.9677 163.942 33.5501C163.942 34.3945 164.248 35.04 164.86 35.4865C165.481 35.9233 166.267 36.1417 167.218 36.1417ZM182.848 40V17.6364H188.861V21.5384H189.094C189.502 20.1503 190.186 19.102 191.147 18.3935C192.108 17.6752 193.215 17.3161 194.467 17.3161C194.777 17.3161 195.112 17.3355 195.471 17.3743C195.831 17.4131 196.146 17.4665 196.418 17.5344V23.038C196.127 22.9506 195.724 22.873 195.209 22.805C194.695 22.7371 194.224 22.7031 193.797 22.7031C192.885 22.7031 192.069 22.9021 191.351 23.3001C190.642 23.6883 190.079 24.2319 189.662 24.9308C189.254 25.6296 189.051 26.4353 189.051 27.3477V40H182.848ZM205.827 10.1818V40H199.625V10.1818H205.827ZM214.625 48.3864C213.838 48.3864 213.101 48.3233 212.412 48.1971C211.732 48.0806 211.169 47.9302 210.723 47.7457L212.12 43.1158C212.848 43.339 213.504 43.4603 214.086 43.4798C214.678 43.4992 215.188 43.3633 215.615 43.0721C216.051 42.7809 216.406 42.2859 216.678 41.587L217.042 40.6406L209.019 17.6364H215.542L220.172 34.0597H220.405L225.078 17.6364H231.645L222.953 42.4169C222.535 43.6205 221.968 44.6688 221.249 45.5618C220.541 46.4645 219.643 47.1585 218.556 47.6438C217.469 48.1388 216.158 48.3864 214.625 48.3864ZM244.425 40V10.1818H250.627V21.3928H250.816C251.088 20.791 251.481 20.1795 251.996 19.5582C252.52 18.9273 253.199 18.4032 254.034 17.9858C254.878 17.5587 255.927 17.3452 257.179 17.3452C258.81 17.3452 260.314 17.7723 261.692 18.6264C263.071 19.4709 264.172 20.7473 264.997 22.4556C265.822 24.1542 266.235 26.2848 266.235 28.8473C266.235 31.3419 265.832 33.4482 265.027 35.1662C264.231 36.8745 263.143 38.1703 261.765 39.0536C260.397 39.9272 258.863 40.364 257.164 40.364C255.961 40.364 254.937 40.165 254.092 39.767C253.257 39.3691 252.573 38.8692 252.039 38.2674C251.505 37.6559 251.098 37.0395 250.816 36.4183H250.54V40H244.425ZM250.496 28.8182C250.496 30.148 250.68 31.3079 251.049 32.2979C251.418 33.288 251.952 34.0597 252.651 34.6129C253.35 35.1565 254.199 35.4283 255.199 35.4283C256.208 35.4283 257.062 35.1516 257.761 34.5984C258.46 34.0354 258.989 33.2589 259.348 32.2688C259.717 31.2691 259.902 30.1188 259.902 28.8182C259.902 27.5272 259.722 26.3916 259.363 25.4112C259.004 24.4309 258.475 23.6641 257.776 23.1108C257.077 22.5575 256.218 22.2809 255.199 22.2809C254.189 22.2809 253.335 22.5478 252.636 23.0817C251.947 23.6155 251.418 24.3726 251.049 25.353C250.68 26.3333 250.496 27.4884 250.496 28.8182ZM270.374 40V17.6364H276.576V40H270.374ZM273.489 14.7536C272.567 14.7536 271.776 14.4478 271.116 13.8363C270.466 13.2151 270.141 12.4725 270.141 11.6087C270.141 10.7545 270.466 10.0217 271.116 9.41016C271.776 8.78894 272.567 8.47834 273.489 8.47834C274.411 8.47834 275.198 8.78894 275.848 9.41016C276.508 10.0217 276.838 10.7545 276.838 11.6087C276.838 12.4725 276.508 13.2151 275.848 13.8363C275.198 14.4478 274.411 14.7536 273.489 14.7536ZM281.544 40V17.6364H287.558V21.5384H287.791C288.198 20.1503 288.883 19.102 289.843 18.3935C290.804 17.6752 291.911 17.3161 293.163 17.3161C293.474 17.3161 293.809 17.3355 294.168 17.3743C294.527 17.4131 294.842 17.4665 295.114 17.5344V23.038C294.823 22.9506 294.42 22.873 293.906 22.805C293.391 22.7371 292.92 22.7031 292.493 22.7031C291.581 22.7031 290.766 22.9021 290.047 23.3001C289.339 23.6883 288.776 24.2319 288.358 24.9308C287.951 25.6296 287.747 26.4353 287.747 27.3477V40H281.544ZM305.521 40.364C303.822 40.364 302.283 39.9272 300.905 39.0536C299.537 38.1703 298.449 36.8745 297.644 35.1662C296.848 33.4482 296.45 31.3419 296.45 28.8473C296.45 26.2848 296.862 24.1542 297.688 22.4556C298.513 20.7473 299.609 19.4709 300.978 18.6264C302.356 17.7723 303.866 17.3452 305.506 17.3452C306.758 17.3452 307.802 17.5587 308.636 17.9858C309.481 18.4032 310.16 18.9273 310.675 19.5582C311.199 20.1795 311.597 20.791 311.869 21.3928H312.058V10.1818H318.246V40H312.131V36.4183H311.869C311.577 37.0395 311.165 37.6559 310.631 38.2674C310.107 38.8692 309.423 39.3691 308.578 39.767C307.743 40.165 306.724 40.364 305.521 40.364ZM307.486 35.4283C308.486 35.4283 309.33 35.1565 310.02 34.6129C310.718 34.0597 311.252 33.288 311.621 32.2979C312 31.3079 312.189 30.148 312.189 28.8182C312.189 27.4884 312.004 26.3333 311.636 25.353C311.267 24.3726 310.733 23.6155 310.034 23.0817C309.335 22.5478 308.486 22.2809 307.486 22.2809C306.467 22.2809 305.608 22.5575 304.909 23.1108C304.21 23.6641 303.681 24.4309 303.322 25.4112C302.963 26.3916 302.783 27.5272 302.783 28.8182C302.783 30.1188 302.963 31.2691 303.322 32.2688C303.691 33.2589 304.22 34.0354 304.909 34.5984C305.608 35.1516 306.467 35.4283 307.486 35.4283ZM341.953 24.0135L336.274 24.3629C336.177 23.8776 335.968 23.4408 335.648 23.0526C335.328 22.6546 334.906 22.3391 334.381 22.1062C333.867 21.8635 333.251 21.7422 332.532 21.7422C331.571 21.7422 330.761 21.946 330.101 22.3537C329.441 22.7517 329.111 23.2855 329.111 23.9553C329.111 24.4891 329.324 24.9405 329.752 25.3093C330.179 25.6781 330.911 25.9742 331.95 26.1974L335.998 27.0128C338.172 27.4593 339.793 28.1776 340.861 29.1676C341.928 30.1577 342.462 31.4583 342.462 33.0696C342.462 34.5353 342.03 35.8214 341.166 36.9279C340.312 38.0344 339.138 38.8983 337.643 39.5195C336.158 40.131 334.445 40.4368 332.503 40.4368C329.543 40.4368 327.184 39.8204 325.427 38.5877C323.68 37.3453 322.656 35.6564 322.355 33.521L328.456 33.2006C328.64 34.1033 329.087 34.7925 329.795 35.2681C330.504 35.734 331.411 35.967 332.518 35.967C333.605 35.967 334.479 35.7583 335.139 35.3409C335.808 34.9138 336.148 34.3654 336.158 33.6957C336.148 33.1327 335.91 32.6716 335.444 32.3125C334.978 31.9437 334.26 31.6622 333.29 31.468L329.417 30.6964C327.233 30.2596 325.607 29.5025 324.539 28.4251C323.481 27.3477 322.952 25.9742 322.952 24.3047C322.952 22.8681 323.34 21.6306 324.117 20.592C324.903 19.5534 326.005 18.7526 327.422 18.1896C328.849 17.6267 330.518 17.3452 332.43 17.3452C335.255 17.3452 337.478 17.9421 339.099 19.136C340.729 20.3299 341.681 21.9557 341.953 24.0135Z" fill="black"/>
<path d="M23.9481 104.807C20.8985 104.807 18.0956 104.269 15.5394 103.193C13.028 102.072 10.8529 100.48 9.01418 98.4166C7.22031 96.3536 5.83007 93.8198 4.84344 90.8151C3.85681 87.8104 3.3635 84.3796 3.3635 80.5228C3.3635 76.7108 3.85681 73.3025 4.84344 70.2977C5.83007 67.2482 7.22031 64.6919 9.01418 62.629C10.8529 60.566 13.028 58.9964 15.5394 57.92C18.0956 56.7989 20.8985 56.2383 23.9481 56.2383C26.1905 56.2383 28.1189 56.485 29.7333 56.9783C31.3927 57.4267 32.8278 58.0322 34.0386 58.7946C35.2495 59.5121 36.281 60.3642 37.133 61.3508C38.03 62.3374 38.8372 63.3241 39.5548 64.3107L32.2223 69.625C31.2357 67.876 30.0921 66.5755 28.7916 65.7234C27.5359 64.8264 25.9214 64.378 23.9481 64.378C21.7955 64.378 19.8671 65.0731 18.1629 66.4633C16.5036 67.8536 15.3376 69.7596 14.6649 72.1813H30.137V78.2356H14.1267V82.8099H30.137V88.8643H14.6649C15.2927 91.4205 16.4363 93.3713 18.0956 94.7167C19.755 96.0173 21.7058 96.6676 23.9481 96.6676C27.7601 96.6676 30.7424 94.7616 32.895 90.9496L40.2275 96.3312C39.5548 97.3627 38.7475 98.3942 37.8057 99.4256C36.9088 100.412 35.7876 101.309 34.4422 102.116C33.1417 102.924 31.6169 103.574 29.8679 104.067C28.1637 104.561 26.1905 104.807 23.9481 104.807ZM48.4985 104V95.8603H61.1453V64.378H60.5398L50.9875 76.8902L44.5296 71.8449L55.7637 57.0455H71.2358V95.8603H81.1917V104H48.4985ZM117.626 65.8579H96.3012L95.2921 80.7246H95.8303C96.2788 79.6034 96.7721 78.5944 97.3102 77.6974C97.8933 76.7556 98.566 75.9708 99.3283 75.343C100.091 74.6703 101.01 74.1545 102.086 73.7958C103.163 73.437 104.441 73.2576 105.921 73.2576C107.939 73.2576 109.822 73.594 111.571 74.2667C113.321 74.9394 114.845 75.926 116.146 77.2265C117.446 78.4822 118.478 80.0519 119.24 81.9354C120.003 83.7742 120.384 85.8595 120.384 88.1915C120.384 90.5684 119.98 92.7883 119.173 94.8513C118.411 96.8694 117.245 98.6184 115.675 100.098C114.15 101.578 112.267 102.744 110.024 103.596C107.782 104.404 105.226 104.807 102.355 104.807C100.068 104.807 98.0502 104.561 96.3012 104.067C94.5522 103.574 93.005 102.924 91.6596 102.116C90.3142 101.264 89.1482 100.3 88.1615 99.2238C87.1749 98.1475 86.3228 97.0039 85.6053 95.7931L92.9377 90.0078C93.9692 91.8466 95.2025 93.4162 96.6375 94.7167C98.0726 95.9724 100.001 96.6003 102.423 96.6003C104.844 96.6003 106.661 95.9052 107.872 94.5149C109.127 93.1247 109.755 91.286 109.755 88.9988V88.4606C109.755 86.308 109.127 84.6038 107.872 83.3481C106.616 82.0924 104.889 81.4646 102.692 81.4646C100.853 81.4646 99.3283 81.8457 98.1175 82.6081C96.9515 83.3257 96.0545 84.0432 95.4267 84.7608L87.1525 83.6172L88.9015 57.0455H117.626V65.8579ZM143.028 104.807C136.884 104.807 132.332 102.677 129.372 98.4166C126.412 94.1562 124.932 88.1916 124.932 80.5228C124.932 72.854 126.412 66.8894 129.372 62.629C132.332 58.3685 136.884 56.2383 143.028 56.2383C149.172 56.2383 153.724 58.3685 156.683 62.629C159.643 66.8894 161.123 72.854 161.123 80.5228C161.123 88.1916 159.643 94.1562 156.683 98.4166C153.724 102.677 149.172 104.807 143.028 104.807ZM143.028 96.264C145.718 96.264 147.58 95.2773 148.611 93.3041C149.642 91.3308 150.158 88.5503 150.158 84.9626V76.0829C150.158 72.4952 149.642 69.7147 148.611 67.7415C147.58 65.7682 145.718 64.7816 143.028 64.7816C140.337 64.7816 138.476 65.7682 137.444 67.7415C136.413 69.7147 135.897 72.4952 135.897 76.0829V84.9626C135.897 88.5503 136.413 91.3308 137.444 93.3041C138.476 95.2773 140.337 96.264 143.028 96.264Z" fill="black"/>
</svg>
