<svg width="308" height="123" viewBox="0 0 308 123" fill="none" xmlns="http://www.w3.org/2000/svg">
<path d="M18.6402 72C13.3069 72 9.27357 70.5 6.54023 67.5C3.8069 64.4333 2.44023 60.0667 2.44023 54.4V50.4H12.8402V55.2C12.8402 59.7333 14.7402 62 18.5402 62C20.4069 62 21.8069 61.4667 22.7402 60.4C23.7402 59.2667 24.2402 57.4667 24.2402 55C24.2402 52.0667 23.5736 49.5 22.2402 47.3C20.9069 45.0333 18.4402 42.3333 14.8402 39.2C10.3069 35.2 7.14023 31.6 5.34023 28.4C3.54023 25.1333 2.64023 21.4667 2.64023 17.4C2.64023 11.8667 4.04023 7.6 6.84023 4.6C9.64023 1.53333 13.7069 -3.8147e-06 19.0402 -3.8147e-06C24.3069 -3.8147e-06 28.2736 1.53333 30.9402 4.6C33.6736 7.6 35.0402 11.9333 35.0402 17.6V20.5H24.6402V16.9C24.6402 14.5 24.1736 12.7667 23.2402 11.7C22.3069 10.5667 20.9402 10 19.1402 10C15.4736 10 13.6402 12.2333 13.6402 16.7C13.6402 19.2333 14.3069 21.6 15.6402 23.8C17.0402 26 19.5402 28.6667 23.1402 31.8C27.7402 35.8 30.9069 39.4333 32.6402 42.7C34.3736 45.9667 35.2402 49.8 35.2402 54.2C35.2402 59.9333 33.8069 64.3333 30.9402 67.4C28.1402 70.4667 24.0402 72 18.6402 72ZM41.5473 0.999995H57.7473C63.2139 0.999995 67.3139 2.46666 70.0473 5.4C72.7806 8.33333 74.1473 12.6333 74.1473 18.3V25.2C74.1473 30.8667 72.7806 35.1667 70.0473 38.1C67.3139 41.0333 63.2139 42.5 57.7473 42.5H52.5473V71H41.5473V0.999995ZM57.7473 32.5C59.5473 32.5 60.8806 32 61.7473 31C62.6806 30 63.1473 28.3 63.1473 25.9V17.6C63.1473 15.2 62.6806 13.5 61.7473 12.5C60.8806 11.5 59.5473 11 57.7473 11H52.5473V32.5H57.7473ZM80.1215 0.999995H110.121V11H91.1215V29.5H106.221V39.5H91.1215V61H110.121V71H80.1215V0.999995ZM124.95 0.999995H139.85L151.25 71H140.25L138.25 57.1V57.3H125.75L123.75 71H113.55L124.95 0.999995ZM136.95 47.8L132.05 13.2H131.85L127.05 47.8H136.95ZM156.586 0.999995H167.586V30.5L181.586 0.999995H192.586L179.486 26.7L192.786 71H181.286L171.986 39.8L167.586 48.7V71H156.586V0.999995ZM197.993 0.999995H227.993V11H208.993V29.5H224.093V39.5H208.993V61H227.993V71H197.993V0.999995ZM234.321 0.999995H250.621C256.287 0.999995 260.421 2.33333 263.021 5C265.621 7.6 266.921 11.6333 266.921 17.1V21.4C266.921 28.6667 264.521 33.2667 259.721 35.2V35.4C262.387 36.2 264.254 37.8333 265.321 40.3C266.454 42.7667 267.021 46.0667 267.021 50.2V62.5C267.021 64.5 267.087 66.1333 267.221 67.4C267.354 68.6 267.687 69.8 268.221 71H257.021C256.621 69.8667 256.354 68.8 256.221 67.8C256.087 66.8 256.021 65 256.021 62.4V49.6C256.021 46.4 255.487 44.1667 254.421 42.9C253.421 41.6333 251.654 41 249.121 41H245.321V71H234.321V0.999995ZM249.321 31C251.521 31 253.154 30.4333 254.221 29.3C255.354 28.1667 255.921 26.2667 255.921 23.6V18.2C255.921 15.6667 255.454 13.8333 254.521 12.7C253.654 11.5667 252.254 11 250.321 11H245.321V31H249.321ZM288.953 72C283.619 72 279.586 70.5 276.853 67.5C274.119 64.4333 272.753 60.0667 272.753 54.4V50.4H283.153V55.2C283.153 59.7333 285.053 62 288.853 62C290.719 62 292.119 61.4667 293.053 60.4C294.053 59.2667 294.553 57.4667 294.553 55C294.553 52.0667 293.886 49.5 292.553 47.3C291.219 45.0333 288.753 42.3333 285.153 39.2C280.619 35.2 277.453 31.6 275.653 28.4C273.853 25.1333 272.953 21.4667 272.953 17.4C272.953 11.8667 274.353 7.6 277.153 4.6C279.953 1.53333 284.019 -3.8147e-06 289.353 -3.8147e-06C294.619 -3.8147e-06 298.586 1.53333 301.253 4.6C303.986 7.6 305.353 11.9333 305.353 17.6V20.5H294.953V16.9C294.953 14.5 294.486 12.7667 293.553 11.7C292.619 10.5667 291.253 10 289.453 10C285.786 10 283.953 12.2333 283.953 16.7C283.953 19.2333 284.619 21.6 285.953 23.8C287.353 26 289.853 28.6667 293.453 31.8C298.053 35.8 301.219 39.4333 302.953 42.7C304.686 45.9667 305.553 49.8 305.553 54.2C305.553 59.9333 304.119 64.3333 301.253 67.4C298.453 70.4667 294.353 72 288.953 72Z" fill="#F5F4EB"/>
<path d="M1.92906 91H13.5691V95H6.32906V102.8H12.0091V106.8H6.32906V119H1.92906V91ZM15.6791 91H22.1991C24.4657 91 26.1191 91.5333 27.1591 92.6C28.1991 93.64 28.7191 95.2533 28.7191 97.44V99.16C28.7191 102.067 27.7591 103.907 25.8391 104.68V104.76C26.9057 105.08 27.6524 105.733 28.0791 106.72C28.5324 107.707 28.7591 109.027 28.7591 110.68V115.6C28.7591 116.4 28.7857 117.053 28.8391 117.56C28.8924 118.04 29.0257 118.52 29.2391 119H24.7591C24.5991 118.547 24.4924 118.12 24.4391 117.72C24.3857 117.32 24.3591 116.6 24.3591 115.56V110.44C24.3591 109.16 24.1457 108.267 23.7191 107.76C23.3191 107.253 22.6124 107 21.5991 107H20.0791V119H15.6791V91ZM21.6791 103C22.5591 103 23.2124 102.773 23.6391 102.32C24.0924 101.867 24.3191 101.107 24.3191 100.04V97.88C24.3191 96.8667 24.1324 96.1333 23.7591 95.68C23.4124 95.2267 22.8524 95 22.0791 95H20.0791V103H21.6791ZM38.1719 119.4C36.0119 119.4 34.3585 118.787 33.2119 117.56C32.0652 116.333 31.4919 114.6 31.4919 112.36V97.64C31.4919 95.4 32.0652 93.6667 33.2119 92.44C34.3585 91.2133 36.0119 90.6 38.1719 90.6C40.3319 90.6 41.9852 91.2133 43.1319 92.44C44.2785 93.6667 44.8519 95.4 44.8519 97.64V112.36C44.8519 114.6 44.2785 116.333 43.1319 117.56C41.9852 118.787 40.3319 119.4 38.1719 119.4ZM38.1719 115.4C39.6919 115.4 40.4519 114.48 40.4519 112.64V97.36C40.4519 95.52 39.6919 94.6 38.1719 94.6C36.6519 94.6 35.8919 95.52 35.8919 97.36V112.64C35.8919 114.48 36.6519 115.4 38.1719 115.4ZM47.8275 91H54.1075L56.9075 111.04H56.9875L59.7875 91H66.0675V119H61.9075V97.8H61.8275L58.6275 119H54.9475L51.7475 97.8H51.6675V119H47.8275V91Z" fill="#F5F4EB"/>
<path fill-rule="evenodd" clip-rule="evenodd" d="M106.172 103.5L94.0858 91.4141L96.9142 88.5857L113.828 105.5L96.9142 122.414L94.0858 119.586L106.172 107.5H78V103.5H106.172Z" fill="#F5F4EB"/>
</svg>
