<svg width="39" height="39" viewBox="0 0 39 39" fill="none" xmlns="http://www.w3.org/2000/svg">
<path d="M11.2996 12.8335C11.1304 14.6385 11.0116 17.8329 12.0774 19.1925C12.0774 19.1925 11.5757 15.6835 16.0733 11.2808C17.8843 9.50848 18.3029 7.09785 17.6705 5.28989C17.3113 4.26567 16.6552 3.41957 16.0852 2.82879C15.7527 2.48145 16.008 1.90848 16.4919 1.92926C19.4191 2.05989 24.1632 2.87332 26.1789 7.93207C27.0636 10.1527 27.1289 12.4475 26.7074 14.781C26.4402 16.2713 25.4902 19.5844 27.6574 19.9911C29.2041 20.2821 29.9522 19.053 30.2877 18.1683C30.4272 17.8002 30.9111 17.7082 31.1724 18.0021C33.7849 20.9738 34.0075 24.4739 33.4672 27.4872C32.4222 33.3119 26.5233 37.5513 20.663 37.5513C13.3421 37.5513 7.51441 33.3624 6.00332 25.7802C5.39473 22.7194 5.70348 16.6632 10.4238 12.3882C10.7741 12.0675 11.3471 12.3525 11.2996 12.8335Z" fill="url(#paint0_radial_822_4174)"/>
<path d="M23.3366 23.7263C20.638 20.2529 21.8463 16.2896 22.5083 14.7102C22.5974 14.5024 22.3599 14.3065 22.1728 14.4341C21.012 15.2238 18.6341 17.0823 17.5267 19.6977C16.0275 23.2335 16.1344 24.9643 17.022 27.078C17.5564 28.3516 16.9359 28.6218 16.6242 28.6693C16.3214 28.7168 16.0424 28.5149 15.8197 28.3041C15.1814 27.6955 14.7213 26.9029 14.5016 26.0479C14.4541 25.8638 14.2136 25.8134 14.1038 25.9648C13.2725 27.1137 12.842 28.9573 12.8213 30.2605C12.7559 34.2891 16.0839 37.5548 20.1095 37.5548C25.1831 37.5548 28.8792 31.9438 25.9639 27.2532C25.1178 25.8876 24.3222 24.994 23.3366 23.7263Z" fill="url(#paint1_radial_822_4174)"/>
<defs>
<radialGradient id="paint0_radial_822_4174" cx="0" cy="0" r="1" gradientUnits="userSpaceOnUse" gradientTransform="translate(19.2131 37.6436) rotate(-179.751) scale(20.9557 34.3841)">
<stop offset="0.3144" stop-color="#FF9800"/>
<stop offset="0.6616" stop-color="#FF6D00"/>
<stop offset="0.9715" stop-color="#F44336"/>
</radialGradient>
<radialGradient id="paint1_radial_822_4174" cx="0" cy="0" r="1" gradientUnits="userSpaceOnUse" gradientTransform="translate(20.3886 16.791) rotate(90.5787) scale(21.9261 16.501)">
<stop offset="0.2141" stop-color="#FFF176"/>
<stop offset="0.3275" stop-color="#FFF27D"/>
<stop offset="0.4868" stop-color="#FFF48F"/>
<stop offset="0.6722" stop-color="#FFF7AD"/>
<stop offset="0.7931" stop-color="#FFF9C4"/>
<stop offset="0.8221" stop-color="#FFF8BD" stop-opacity="0.804"/>
<stop offset="0.8627" stop-color="#FFF6AB" stop-opacity="0.529"/>
<stop offset="0.9101" stop-color="#FFF38D" stop-opacity="0.2088"/>
<stop offset="0.9409" stop-color="#FFF176" stop-opacity="0"/>
</radialGradient>
</defs>
</svg>
