<svg width="123" height="54" viewBox="0 0 123 54" fill="none" xmlns="http://www.w3.org/2000/svg">
<path d="M92.2139 54V15.7871H99.8311V19.5957H103.671V15.7871H115.129V19.5957H118.969V23.436H122.778V31.085H115.129V27.2446H111.32V23.436H107.48V27.2446H103.671V31.085H99.8311V54H92.2139Z" fill="white"/>
<path d="M73.1074 54V46.3828H76.916V23.436H73.1074V15.7871H84.5649V46.3828H88.3735V54H73.1074ZM76.916 8.13818V0.489258H84.5649V8.13818H76.916Z" fill="white"/>
<path d="M57.8096 46.3828V38.7339H46.3521V46.3828H57.8096ZM42.5117 54V50.1914H38.7031V46.3828H34.8945V38.7339H38.7031V34.8936H42.5117V31.085H57.8096V23.436H46.3521V27.2446H38.7031V19.5957H42.5117V15.7871H61.6499V19.5957H65.4585V46.3828H69.2988V54H61.6499V50.1914H57.8096V54H42.5117Z" fill="white"/>
<path d="M0.490234 54V0.489258H31.0542V8.13818H8.10742V23.436H27.2456V31.085H8.10742V54H0.490234Z" fill="white"/>
</svg>
