<svg width="379" height="58" viewBox="0 0 379 58" fill="none" xmlns="http://www.w3.org/2000/svg">
<path d="M370.735 31.085V27.2446H366.895V23.436H355.437V27.2446H351.597V31.085H370.735ZM351.597 54V50.1914H347.788V46.3828H343.979V23.436H347.788V19.5957H351.597V15.7871H370.735V19.5957H374.543V23.436H378.384V38.7339H351.597V42.5425H355.437V46.3828H366.895V42.5425H378.384V46.3828H374.543V50.1914H370.735V54H351.597Z" fill="white"/>
<path d="M313.384 54V50.1914H309.575V46.3828H305.767V23.436H309.575V19.5957H313.384V15.7871H332.522V19.5957H336.331V23.436H340.171V31.085H332.522V27.2446H328.682V23.436H317.224V27.2446H313.384V42.5425H317.224V46.3828H328.682V42.5425H332.522V38.7339H340.171V46.3828H336.331V50.1914H332.522V54H313.384Z" fill="white"/>
<path d="M271.362 54V15.7871H278.979V19.5957H282.82V15.7871H294.277V19.5957H298.118V23.436H301.926V31.085H294.277V27.2446H290.469V23.436H286.628V27.2446H282.82V31.085H278.979V54H271.362Z" fill="white"/>
<path d="M244.575 54V50.1914H240.767V46.3828H236.958V15.7871H244.575V42.5425H248.416V46.3828H256.064V42.5425H259.873V15.7871H267.522V54H259.873V50.1914H256.064V54H244.575Z" fill="white"/>
<path d="M221.66 46.3828V42.5425H225.5V27.2446H221.66V23.436H210.203V27.2446H206.362V42.5425H210.203V46.3828H221.66ZM206.362 54V50.1914H202.554V46.3828H198.745V23.436H202.554V19.5957H206.362V15.7871H225.5V19.5957H229.309V23.436H233.149V46.3828H229.309V50.1914H225.5V54H206.362Z" fill="white"/>
<path d="M164.341 54V46.3828H183.447V42.5425H187.256V34.8936H183.447V31.085H171.958V27.2446H168.149V23.436H164.341V8.13818H168.149V4.29785H171.958V0.489258H194.905V8.13818H175.798V11.9468H171.958V19.5957H175.798V23.436H187.256V27.2446H191.096V31.085H194.905V46.3828H191.096V50.1914H187.256V54H164.341Z" fill="white"/>
<path d="M114.639 54V15.7871H122.256V19.5957H126.096V15.7871H137.554V19.5957H141.394V23.436H145.203V54H137.554V27.2446H133.745V23.436H126.096V27.2446H122.256V54H114.639Z" fill="white"/>
<path d="M103.181 31.085V27.2446H99.3408V23.436H87.8833V27.2446H84.043V31.085H103.181ZM84.043 54V50.1914H80.2344V46.3828H76.4258V23.436H80.2344V19.5957H84.043V15.7871H103.181V19.5957H106.99V23.436H110.83V38.7339H84.043V42.5425H87.8833V46.3828H99.3408V42.5425H110.83V46.3828H106.99V50.1914H103.181V54H84.043Z" fill="white"/>
<path d="M61.1279 42.5425V38.7339H64.9683V27.2446H61.1279V23.436H49.6704V27.2446H45.8301V38.7339H49.6704V42.5425H61.1279ZM38.2129 57.8086V15.7871H45.8301V19.5957H49.6704V15.7871H64.9683V19.5957H68.7769V23.436H72.6172V42.5425H68.7769V46.3828H64.9683V50.1914H49.6704V46.3828H45.8301V57.8086H38.2129Z" fill="white"/>
<path d="M22.915 46.3828V42.5425H26.7554V11.9468H22.915V8.13818H11.4575V11.9468H7.61719V42.5425H11.4575V46.3828H22.915ZM7.61719 54V50.1914H3.80859V46.3828H0V8.13818H3.80859V4.29785H7.61719V0.489258H26.7554V4.29785H30.564V8.13818H34.4043V46.3828H30.564V50.1914H26.7554V54H7.61719Z" fill="white"/>
</svg>
