<svg width="391" height="49" viewBox="0 0 391 49" fill="none" xmlns="http://www.w3.org/2000/svg">
<path d="M11.5915 0.862305C15.1832 0.862305 18.3034 1.36803 20.9518 2.37942C23.6003 3.35474 25.7408 5.21504 27.3734 7.96036C29.0423 10.7056 29.8768 14.5708 29.8768 19.5556C29.8768 26.5634 28.2804 31.4941 25.0878 34.3475C21.9314 37.1652 17.5959 38.5741 12.0813 38.5741H0V0.862305H11.5915ZM10.9929 8.55638V30.8258H12.7343C14.1856 30.8258 15.3284 30.4826 16.1628 29.7963C17.0335 29.11 17.6685 27.9541 18.0675 26.3286C18.4666 24.7031 18.6662 22.4454 18.6662 19.5556C18.6662 16.702 18.4485 14.4805 18.0131 12.8911C17.614 11.2655 16.9973 10.1457 16.1628 9.53165C15.3284 8.88145 14.2219 8.55638 12.8432 8.55638H10.9929ZM57.7288 29.6338C57.7288 30.573 57.8197 31.2593 58.0011 31.6927C58.2186 32.0903 58.6179 32.4151 59.1981 32.668L57.0759 39.4412C55.262 39.2965 53.7561 38.9353 52.559 38.3576C51.362 37.7434 50.4185 36.804 49.7291 35.5399C47.8788 38.2852 45.2304 39.6577 41.7837 39.6577C39.1716 39.6577 37.0673 38.8088 35.471 37.1111C33.8747 35.4134 33.0765 33.1921 33.0765 30.4465C33.0765 27.2678 34.1649 24.8295 36.3417 23.1317C38.5548 21.434 41.7475 20.5851 45.9197 20.5851H47.4435V19.8266C47.4435 18.2733 47.2076 17.2438 46.736 16.7381C46.2644 16.1963 45.3211 15.9253 43.9062 15.9253C42.201 15.9253 39.9879 16.413 37.2669 17.3883L34.9812 10.8321C36.5775 10.1096 38.3552 9.54971 40.3144 9.1524C42.3098 8.75504 44.1601 8.55638 45.8653 8.55638C49.965 8.55638 52.9579 9.40524 54.8444 11.103C56.7675 12.8008 57.7288 15.4918 57.7288 19.1764V29.6338ZM45.1578 32.2886C46.0648 32.2886 46.8267 31.765 47.4435 30.7175V26.0577H46.8449C45.6113 26.0577 44.7043 26.3286 44.1238 26.8704C43.5796 27.4122 43.3075 28.2612 43.3075 29.4171C43.3075 30.3201 43.4708 31.0245 43.7973 31.5302C44.1238 32.0362 44.5773 32.2886 45.1578 32.2886ZM82.7077 37.2193C81.6559 38.0141 80.3857 38.61 78.8986 39.0076C77.447 39.4412 76.0142 39.6577 74.5992 39.6577C71.225 39.6577 68.7217 38.7188 67.0892 36.8405C65.4567 34.9616 64.6402 32.325 64.6402 28.9294V16.7381H61.7015V9.64006H64.6402V3.51728L75.1977 2.32524V9.64006H81.0208L79.9325 16.7381H75.1977V28.8211C75.1977 30.5549 75.8145 31.4218 77.0481 31.4218C77.7737 31.4218 78.5358 31.2051 79.334 30.7716L82.7077 37.2193ZM108.584 29.6338C108.584 30.573 108.675 31.2593 108.856 31.6927C109.074 32.0903 109.473 32.4151 110.053 32.668L107.931 39.4412C106.117 39.2965 104.611 38.9353 103.414 38.3576C102.217 37.7434 101.274 36.804 100.584 35.5399C98.7344 38.2852 96.0857 39.6577 92.6389 39.6577C90.0268 39.6577 87.9229 38.8088 86.3265 37.1111C84.7301 35.4134 83.9319 33.1921 83.9319 30.4465C83.9319 27.2678 85.0202 24.8295 87.1973 23.1317C89.41 21.434 92.6028 20.5851 96.7752 20.5851H98.299V19.8266C98.299 18.2733 98.0632 17.2438 97.5912 16.7381C97.1197 16.1963 96.1767 15.9253 94.7617 15.9253C93.0566 15.9253 90.8433 16.413 88.122 17.3883L85.8367 10.8321C87.4331 10.1096 89.2109 9.54971 91.1695 9.1524C93.1653 8.75504 95.0157 8.55638 96.7208 8.55638C100.82 8.55638 103.813 9.40524 105.7 11.103C107.623 12.8008 108.584 15.4918 108.584 19.1764V29.6338ZM96.0131 32.2886C96.92 32.2886 97.6821 31.765 98.299 30.7175V26.0577H97.7004C96.4668 26.0577 95.5599 26.3286 94.9791 26.8704C94.435 27.4122 94.1626 28.2612 94.1626 29.4171C94.1626 30.3201 94.3263 31.0245 94.6524 31.5302C94.9791 32.0362 95.4329 32.2886 96.0131 32.2886Z" fill="white"/>
<path d="M113.047 48.7056V40.6865H138.189V48.7056H113.047Z" fill="#94A2BB"/>
<path d="M154.062 0.862305C157.654 0.862305 160.774 1.36803 163.423 2.37942C166.071 3.35474 168.212 5.21504 169.844 7.96036C171.513 10.7056 172.348 14.5708 172.348 19.5556C172.348 26.5634 170.751 31.4941 167.558 34.3475C164.402 37.1652 160.067 38.5741 154.552 38.5741H142.471V0.862305H154.062ZM153.464 8.55638V30.8258H155.205C156.656 30.8258 157.799 30.4826 158.633 29.7963C159.504 29.11 160.139 27.9541 160.538 26.3286C160.938 24.7031 161.137 22.4454 161.137 19.5556C161.137 16.702 160.919 14.4805 160.484 12.8911C160.085 11.2655 159.468 10.1457 158.633 9.53165C157.799 8.88145 156.692 8.55638 155.314 8.55638H153.464ZM195.913 18.2552L205.273 38.5741H193.682L189.328 25.4617L185.356 38.5741H173.873L182.798 18.5804L174.471 0.862305H186.063L189.437 11.8616L193.247 0.862305H204.675L195.913 18.2552Z" fill="#A1E3FF"/>
<path d="M246.978 0C249.836 0 252.35 0.414226 254.521 1.24268C256.728 2.07113 258.7 3.31386 260.436 4.97077L255.932 10.2658C253.327 8.2126 250.596 7.18606 247.738 7.18606C246.254 7.18606 245.115 7.47419 244.319 8.05054C243.559 8.59087 243.18 9.36529 243.18 10.3738C243.18 11.0942 243.378 11.6886 243.777 12.1568C244.174 12.6251 244.843 13.0754 245.784 13.5076C246.725 13.9398 248.208 14.4802 250.234 15.1286C254.105 16.3532 256.927 17.9021 258.7 19.7752C260.508 21.6122 261.413 24.1697 261.413 27.4475C261.413 29.8249 260.798 31.9319 259.568 33.7691C258.338 35.5699 256.547 36.9751 254.195 37.9837C251.88 38.9918 249.149 39.4961 246.001 39.4961C239.996 39.4961 235.094 37.6772 231.295 34.0392L236.233 28.5821C239.236 31.0315 242.365 32.2562 245.621 32.2562C247.322 32.2562 248.642 31.896 249.583 31.1756C250.523 30.4192 250.994 29.4287 250.994 28.2039C250.994 27.3395 250.813 26.6371 250.451 26.0967C250.089 25.5204 249.438 25.0161 248.497 24.5839C247.593 24.1156 246.254 23.6113 244.482 23.071C240.213 21.7383 237.21 20.1354 235.474 18.2623C233.737 16.3892 232.869 14.0299 232.869 11.1843C232.869 8.95107 233.466 6.98793 234.66 5.29496C235.89 3.60204 237.572 2.30528 239.706 1.4048C241.877 0.468249 244.301 0 246.978 0ZM293.406 0.972514L292.375 8.59086H283.475V38.5239H273.435V8.59086H263.993V0.972514H293.406ZM315.496 38.5239L313.814 30.8515H303.829L302.147 38.5239H291.727L302.906 0.972514H314.953L326.132 38.5239H315.496ZM305.403 23.7194H312.24L308.821 8.10456L305.403 23.7194ZM346.696 0C351.725 0 356.048 1.58488 359.666 4.75468L354.727 9.88757C353.353 8.915 352.104 8.2126 350.983 7.78037C349.898 7.31212 348.65 7.07797 347.239 7.07797C344.525 7.07797 342.391 8.12257 340.835 10.2118C339.316 12.3009 338.556 15.4888 338.556 19.7752C338.556 22.9089 338.809 25.3943 339.316 27.2314C339.822 29.0324 340.582 30.3291 341.595 31.1216C342.644 31.9142 343.983 32.3103 345.611 32.3103C347.239 32.3103 348.722 31.9678 350.06 31.2837V23.5573H345.774L344.797 16.6954H359.774V35.3898C357.821 36.6868 355.614 37.6954 353.153 38.4157C350.693 39.136 348.27 39.4961 345.882 39.4961C334.088 39.4961 328.191 32.9046 328.191 19.7212C328.191 15.6148 328.987 12.0848 330.579 9.13115C332.207 6.14147 334.414 3.87215 337.199 2.32329C339.985 0.774429 343.151 0 346.696 0ZM391 0.972514L389.969 8.05054H377.108V16.047H388.341V22.9089H377.108V31.4458H390.837V38.5239H367.068V0.972514H391Z" fill="white"/>
</svg>
