<svg width="236" height="44" viewBox="0 0 236 44" fill="none" xmlns="http://www.w3.org/2000/svg">
<path d="M46.25 29H41.7614V14.4545H46.4489C47.8598 14.4545 49.0672 14.7457 50.071 15.3281C51.0748 15.9058 51.8442 16.7367 52.3793 17.821C52.9143 18.9006 53.1818 20.1932 53.1818 21.6989C53.1818 23.214 52.9119 24.5185 52.3722 25.6122C51.8324 26.7012 51.0464 27.5393 50.0142 28.1264C48.982 28.7088 47.7273 29 46.25 29ZM43.5227 27.4375H46.1364C47.339 27.4375 48.3357 27.2055 49.1264 26.7415C49.9171 26.2775 50.5066 25.617 50.8949 24.7599C51.2831 23.9029 51.4773 22.8826 51.4773 21.6989C51.4773 20.5246 51.2855 19.5137 50.902 18.6662C50.5185 17.8139 49.9455 17.1605 49.1832 16.706C48.4209 16.2467 47.4716 16.017 46.3352 16.017H43.5227V27.4375ZM56.0494 29H54.2028L59.5437 14.4545H61.3619L66.7028 29H64.8562L60.5096 16.7557H60.396L56.0494 29ZM56.7312 23.3182H64.1744V24.8807H56.7312V23.3182ZM66.4737 16.017V14.4545H77.3828V16.017H72.8089V29H71.0476V16.017H66.4737ZM78.9986 29H77.152L82.4929 14.4545H84.3111L89.652 29H87.8054L83.4588 16.7557H83.3452L78.9986 29ZM79.6804 23.3182H87.1236V24.8807H79.6804V23.3182ZM99.2188 29V30.5625H90.1278V29H99.2188ZM105.449 29H100.961V14.4545H105.648C107.059 14.4545 108.266 14.7457 109.27 15.3281C110.274 15.9058 111.043 16.7367 111.578 17.821C112.114 18.9006 112.381 20.1932 112.381 21.6989C112.381 23.214 112.111 24.5185 111.571 25.6122C111.032 26.7012 110.246 27.5393 109.213 28.1264C108.181 28.7088 106.926 29 105.449 29ZM102.722 27.4375H105.336C106.538 27.4375 107.535 27.2055 108.326 26.7415C109.116 26.2775 109.706 25.617 110.094 24.7599C110.482 23.9029 110.676 22.8826 110.676 21.6989C110.676 20.5246 110.485 19.5137 110.101 18.6662C109.718 17.8139 109.145 17.1605 108.382 16.706C107.62 16.2467 106.671 16.017 105.534 16.017H102.722V27.4375ZM115.953 14.4545L119.703 20.5057H119.817L123.567 14.4545H125.641L121.067 21.7273L125.641 29H123.567L119.817 23.0625H119.703L115.953 29H113.88L118.567 21.7273L113.88 14.4545H115.953ZM141.513 18.0909C141.428 17.3712 141.082 16.8125 140.476 16.4148C139.87 16.017 139.126 15.8182 138.246 15.8182C137.602 15.8182 137.038 15.9223 136.555 16.1307C136.077 16.339 135.703 16.6255 135.433 16.9901C135.168 17.3546 135.036 17.7689 135.036 18.233C135.036 18.6212 135.128 18.955 135.312 19.2344C135.502 19.509 135.743 19.7386 136.037 19.9233C136.33 20.1032 136.638 20.2524 136.96 20.3707C137.282 20.4844 137.578 20.5767 137.848 20.6477L139.325 21.0455C139.704 21.1449 140.125 21.2822 140.589 21.4574C141.058 21.6326 141.506 21.8717 141.932 22.1747C142.363 22.473 142.718 22.8565 142.997 23.3253C143.277 23.794 143.416 24.3693 143.416 25.0511C143.416 25.8371 143.21 26.5473 142.798 27.1818C142.391 27.8163 141.795 28.3205 141.009 28.6946C140.227 29.0687 139.278 29.2557 138.161 29.2557C137.119 29.2557 136.217 29.0876 135.455 28.7514C134.697 28.4152 134.1 27.9465 133.665 27.3452C133.234 26.7438 132.99 26.0455 132.933 25.25H134.751C134.799 25.7992 134.983 26.2538 135.305 26.6136C135.632 26.9687 136.044 27.2339 136.541 27.4091C137.043 27.5795 137.583 27.6648 138.161 27.6648C138.833 27.6648 139.437 27.5559 139.972 27.3381C140.507 27.1155 140.93 26.8078 141.243 26.4148C141.555 26.017 141.712 25.553 141.712 25.0227C141.712 24.5398 141.577 24.1468 141.307 23.8438C141.037 23.5407 140.682 23.2945 140.241 23.1051C139.801 22.9157 139.325 22.75 138.814 22.608L137.024 22.0966C135.888 21.7699 134.988 21.3035 134.325 20.6974C133.662 20.0914 133.331 19.2983 133.331 18.3182C133.331 17.5038 133.551 16.7936 133.991 16.1875C134.437 15.5767 135.033 15.1032 135.781 14.767C136.534 14.4261 137.375 14.2557 138.303 14.2557C139.24 14.2557 140.073 14.4238 140.803 14.7599C141.532 15.0914 142.109 15.5459 142.536 16.1236C142.966 16.7012 143.194 17.357 143.217 18.0909H141.513ZM145.517 16.017V14.4545H156.426V16.017H151.852V29H150.091V16.017H145.517ZM158.042 29H156.195L161.536 14.4545H163.354L168.695 29H166.848L162.502 16.7557H162.388L158.042 29ZM158.723 23.3182H166.167V24.8807H158.723V23.3182ZM180.22 19C180.064 18.5218 179.858 18.0933 179.602 17.7145C179.351 17.331 179.051 17.0043 178.7 16.7344C178.355 16.4645 177.962 16.2585 177.521 16.1165C177.081 15.9744 176.598 15.9034 176.072 15.9034C175.211 15.9034 174.427 16.1259 173.722 16.571C173.016 17.0161 172.455 17.6719 172.038 18.5384C171.622 19.4048 171.413 20.4678 171.413 21.7273C171.413 22.9867 171.624 24.0497 172.045 24.9162C172.467 25.7827 173.037 26.4384 173.757 26.8835C174.477 27.3286 175.286 27.5511 176.186 27.5511C177.019 27.5511 177.753 27.3736 178.388 27.0185C179.027 26.6586 179.524 26.152 179.879 25.4986C180.239 24.8404 180.419 24.0663 180.419 23.1761L180.959 23.2898H176.584V21.7273H182.124V23.2898C182.124 24.4877 181.868 25.5294 181.357 26.4148C180.85 27.3002 180.149 27.9867 179.254 28.4744C178.364 28.9574 177.341 29.1989 176.186 29.1989C174.898 29.1989 173.767 28.8958 172.791 28.2898C171.821 27.6837 171.063 26.822 170.518 25.7045C169.979 24.5871 169.709 23.2614 169.709 21.7273C169.709 20.5767 169.863 19.5421 170.17 18.6236C170.483 17.7003 170.923 16.9143 171.491 16.2656C172.06 15.617 172.732 15.1198 173.509 14.7741C174.285 14.4285 175.14 14.2557 176.072 14.2557C176.839 14.2557 177.554 14.3717 178.217 14.6037C178.885 14.831 179.479 15.1553 180 15.5767C180.526 15.9934 180.964 16.4929 181.314 17.0753C181.664 17.6529 181.906 18.2945 182.038 19H180.22ZM185.14 29V14.4545H193.919V16.017H186.902V20.9318H193.464V22.4943H186.902V27.4375H194.032V29H185.14Z" fill="#7783FF"/>
</svg>
