<svg width="215" height="69" viewBox="0 0 215 69" fill="none" xmlns="http://www.w3.org/2000/svg">
<g clip-path="url(#clip0_1077_3049)">
<path fill-rule="evenodd" clip-rule="evenodd" d="M0.78213 43.7001C0.0993884 44.8144 0.109955 46.2211 0.809366 47.3251L13.4685 67.3112C14.2901 68.6083 15.8738 69.1998 17.3436 68.7584L53.875 57.7899C55.8686 57.1913 56.8715 54.9656 56.0001 53.0737L32.516 2.08867C31.3708 -0.397749 27.9183 -0.601843 26.4885 1.73235L0.78213 43.7001ZM31.8921 13.7444C31.393 12.5885 29.7028 12.7665 29.455 14.0011L20.4138 59.0568C20.2231 60.0068 21.1119 60.8181 22.0396 60.541L47.2796 53.0001C48.0163 52.7803 48.3959 51.9658 48.091 51.2595L31.8921 13.7444Z" fill="#F5F4EB"/>
<path fill-rule="evenodd" clip-rule="evenodd" d="M78.2024 34.3691H80.4273C82.507 34.3691 84.0617 33.9582 85.0948 33.1358C86.1275 32.3133 86.6435 31.1163 86.6435 29.5446C86.6435 27.959 86.2107 26.7874 85.3457 26.0305C84.48 25.2736 83.1246 24.8951 81.2777 24.8951H78.2024V34.3691ZM93.4706 29.3048C93.4706 32.7396 92.3984 35.3657 90.2527 37.1849C88.1087 39.0048 85.0589 39.9136 81.104 39.9136H78.2027V51.2652H71.4414V19.3506H81.6267C85.4953 19.3506 88.436 20.1838 90.4499 21.8496C92.4638 23.5161 93.4706 26.0012 93.4706 29.3048Z" fill="#F5F4EB"/>
<path fill-rule="evenodd" clip-rule="evenodd" d="M111.393 26.4014C112.295 26.4014 113.044 26.4669 113.64 26.5979L113.138 32.8407C112.6 32.6958 111.947 32.6226 111.175 32.6226C109.052 32.6226 107.399 33.1683 106.213 34.2598C105.028 35.3512 104.436 36.8798 104.436 38.8445V51.2656H97.7832V26.86H102.822L103.804 30.9638H104.13C104.886 29.5964 105.907 28.4933 107.195 27.6562C108.481 26.8199 109.881 26.4014 111.393 26.4014Z" fill="#F5F4EB"/>
<path fill-rule="evenodd" clip-rule="evenodd" d="M117.169 51.2656H123.821V26.8603H117.169V51.2656ZM116.887 20.5509C116.887 18.3826 118.094 17.2988 120.507 17.2988C122.92 17.2988 124.128 18.3826 124.128 20.5509C124.128 21.5845 123.826 22.3885 123.223 22.9635C122.619 23.5385 121.714 23.8253 120.507 23.8253C118.094 23.8253 116.887 22.7338 116.887 20.5509Z" fill="#F5F4EB"/>
<path fill-rule="evenodd" clip-rule="evenodd" d="M147.242 44.0174C147.242 46.5209 146.374 48.4273 144.635 49.7369C142.898 51.0465 140.299 51.7016 136.838 51.7016C135.064 51.7016 133.553 51.5814 132.302 51.341C131.051 51.1012 129.88 50.7481 128.79 50.2825V44.7813C130.026 45.3639 131.418 45.8512 132.968 46.2442C134.516 46.6365 135.879 46.8332 137.056 46.8332C139.47 46.8332 140.677 46.135 140.677 44.7383C140.677 44.214 140.517 43.7887 140.198 43.4611C139.877 43.1332 139.325 42.7625 138.539 42.3471C137.755 41.9324 136.707 41.4491 135.399 40.8956C133.523 40.1103 132.145 39.3826 131.266 38.7129C130.386 38.0435 129.746 37.276 129.347 36.4096C128.947 35.5439 128.746 34.4779 128.746 33.2115C128.746 31.0432 129.585 29.3667 131.266 28.1804C132.945 26.9941 135.326 26.4014 138.409 26.4014C141.346 26.4014 144.203 27.0419 146.981 28.3222L144.974 33.1244C143.753 32.6002 142.611 32.1717 141.549 31.8364C140.488 31.5018 139.404 31.3345 138.3 31.3345C136.337 31.3345 135.355 31.8656 135.355 32.9278C135.355 33.5252 135.672 34.0416 136.304 34.4779C136.937 34.9142 138.322 35.5624 140.459 36.421C142.364 37.1928 143.761 37.9126 144.647 38.5816C145.534 39.2514 146.188 40.0225 146.61 40.8956C147.032 41.7692 147.242 42.8095 147.242 44.0174Z" fill="#F5F4EB"/>
<path fill-rule="evenodd" clip-rule="evenodd" d="M173.597 51.2656H166.944V37.0107C166.944 35.2503 166.649 33.9291 166.062 33.0488C165.472 32.1686 164.545 31.7277 163.28 31.7277C161.579 31.7277 160.343 32.3536 159.572 33.6054C158.801 34.8571 158.416 36.916 158.416 39.7835V51.2656H151.764V26.86H156.846L157.74 29.9818H158.111C158.765 28.861 159.711 27.9839 160.946 27.351C162.182 26.7182 163.6 26.4014 165.2 26.4014C168.85 26.4014 171.321 27.5954 172.616 29.9818H173.204C173.859 28.8464 174.822 27.9661 176.095 27.3402C177.367 26.7143 178.803 26.4014 180.402 26.4014C183.165 26.4014 185.256 27.1113 186.673 28.5296C188.091 29.9486 188.799 32.2225 188.799 35.3512V51.2656H182.125V37.0107C182.125 35.2503 181.83 33.9291 181.242 33.0488C180.653 32.1686 179.726 31.7277 178.461 31.7277C176.833 31.7277 175.615 32.3104 174.807 33.4743C174.001 34.639 173.597 36.4868 173.597 39.0188V51.2656Z" fill="#F5F4EB"/>
<path fill-rule="evenodd" clip-rule="evenodd" d="M208.159 39.9579L205.585 40.045C203.651 40.1037 202.211 40.4526 201.266 41.0932C200.32 41.7338 199.849 42.7083 199.849 44.0186C199.849 45.8954 200.924 46.8344 203.076 46.8344C204.617 46.8344 205.85 46.3902 206.773 45.5024C207.696 44.615 208.159 43.4367 208.159 41.966V39.9579ZM210.121 51.2654L208.834 47.947H208.66C207.54 49.3593 206.388 50.3374 205.202 50.883C204.018 51.4286 202.473 51.7018 200.568 51.7018C198.226 51.7018 196.384 51.0327 195.039 49.6936C193.694 48.3549 193.021 46.4485 193.021 43.9741C193.021 41.3845 193.926 39.4742 195.736 38.2439C197.547 37.0147 200.277 36.334 203.927 36.2031L208.158 36.0718V35.0021C208.158 32.5285 206.893 31.2914 204.363 31.2914C202.414 31.2914 200.124 31.8803 197.492 33.0596L195.289 28.5627C198.096 27.0928 201.208 26.3574 204.625 26.3574C207.896 26.3574 210.405 27.0712 212.15 28.4972C213.894 29.9232 214.767 32.0915 214.767 35.0021V51.2654H210.121Z" fill="#F5F4EB"/>
</g>
<defs>
<clipPath id="clip0_1077_3049">
<rect width="215" height="69" fill="white"/>
</clipPath>
</defs>
</svg>
