<svg width="441" height="88" viewBox="0 0 441 88" fill="none" xmlns="http://www.w3.org/2000/svg">
<path d="M127.032 58.9136L125.243 38.7348L112.645 13.0457L120.201 11.0964L127.878 28.2806L132.431 7.94928L139.999 6L132.377 37.7111L134.101 57.095L127.043 58.9136H127.032Z" fill="white"/>
<path d="M90.5267 75.6293L86.3742 41.7729L84.2383 24.8828L91.7627 20.9951L115.182 62.8991L108.525 66.3294L103.472 56.8879L95.6008 60.9498L97.1837 72.1881L90.5267 75.6184V75.6293ZM94.6575 54.3942L100.556 51.345L93.5408 38.0703C93.2264 37.5476 92.9336 37.0249 92.6626 36.5022C92.3915 35.9795 92.1313 35.4677 91.8711 34.9667C91.9795 35.5548 92.0663 36.1537 92.1422 36.7745C92.2181 37.3952 92.294 38.0268 92.3807 38.6693L94.6467 54.3942H94.6575Z" fill="white"/>
<path d="M41.0772 75.5643L61.7857 31.5586L68.8547 33.5841L50.8568 71.84L66.2418 76.2613L63.5204 82.0002L41.0664 75.5534L41.0772 75.5643Z" fill="white"/>
<path d="M10.0135 49.864L38.1872 10.312L47.9314 15.1492C49.1407 15.7513 50.2479 16.4601 51.2764 17.2827C52.2942 18.1071 53.1159 19.0662 53.7094 20.1658C54.3029 21.2654 54.678 22.4373 54.8046 23.6979C54.942 24.9566 54.8688 26.2088 54.5959 27.4525C54.323 28.6962 53.8805 29.915 53.277 31.0962C52.6734 32.2774 51.9769 33.431 51.1834 34.5356C50.5251 35.4722 49.7843 36.3793 48.9486 37.2481C48.1129 38.1169 47.1814 38.8812 46.154 39.5409C45.1267 40.2006 44.0084 40.7217 42.8031 41.1257C41.5958 41.5189 40.3772 41.7261 39.1668 41.7327C37.9564 41.7393 36.7724 41.5863 35.6169 41.2844C34.4613 40.9824 33.3613 40.5599 32.3099 40.0402L27.5231 37.6672L16.5339 53.1214L9.99411 49.8786L10.0135 49.864ZM31.2328 32.489L35.1476 34.4208C35.6912 34.6885 36.2892 34.8912 36.9272 35.0092C37.5651 35.1273 38.2392 35.1393 38.9455 35.0239C39.6518 34.9084 40.3088 34.7023 40.9164 34.4053C41.5222 34.0977 42.0864 33.7422 42.6158 33.3155C43.1345 32.8907 43.6028 32.4307 44.0208 31.9354C44.4387 31.4401 44.8422 30.9254 45.2437 30.3998C45.5938 29.8946 45.9381 29.3572 46.2786 28.7984C46.6191 28.2396 46.9024 27.6689 47.1266 27.0756C47.3508 26.4823 47.4964 25.8809 47.5829 25.2569C47.6713 24.6437 47.6424 24.0515 47.5173 23.4764C47.3923 22.9014 47.111 22.3765 46.6949 21.8979C46.2787 21.4193 45.7712 21.0456 45.1898 20.7514L41.0435 18.6951L31.2415 32.4763L31.2328 32.489Z" fill="white"/>
<path d="M278.096 58.4889L273.222 38.826L256.819 15.3826L263.986 12.2933L274.216 28.0909L275.585 7.30092L282.763 4.20989L280.113 36.7164L284.801 55.6038L278.107 58.4873L278.096 58.4889Z" fill="white"/>
<path d="M234.866 74.5851L234.087 40.4838L233.634 23.4652L241.507 20.3419L260.66 64.3593L253.696 67.1134L249.604 57.218L241.369 60.4803L241.831 71.8201L234.867 74.5742L234.866 74.5851ZM241.08 53.8635L247.251 51.4135L241.585 37.5093C241.324 36.958 241.085 36.4089 240.867 35.8619C240.649 35.3149 240.44 34.7798 240.231 34.2556C240.281 34.8515 240.308 35.4561 240.322 36.0813C240.336 36.7064 240.349 37.3425 240.371 37.9904L241.069 53.8624L241.08 53.8635Z" fill="white"/>
<path d="M189.194 76.3406L207.305 31.2038L214.48 32.8143L198.74 72.0532L214.356 75.5712L211.974 81.4589L189.183 76.3304L189.194 76.3406Z" fill="white"/>
<path d="M158.404 51.3299L183.705 9.88155L193.767 14.0164C195.016 14.5313 196.171 15.1599 197.255 15.9076C198.329 16.6578 199.216 17.5564 199.886 18.6111C200.556 19.6659 201.013 20.8083 201.229 22.0568C201.455 23.3026 201.471 24.5568 201.286 25.8167C201.102 27.0766 200.747 28.3237 200.229 29.5447C199.711 30.7657 199.097 31.9658 198.384 33.1238C197.794 34.1047 197.119 35.0619 196.347 35.9877C195.575 36.9135 194.7 37.7419 193.722 38.4727C192.744 39.2036 191.665 39.8026 190.492 40.2909C189.315 40.7687 188.115 41.0617 186.908 41.154C185.701 41.2463 184.509 41.1776 183.335 40.9582C182.161 40.7389 181.034 40.3954 179.948 39.9514L175.005 37.9234L165.138 54.1173L158.385 51.3458L158.404 51.3299ZM178.339 32.4955L182.38 34.1451C182.942 34.3737 183.553 34.5335 184.197 34.606C184.842 34.6786 185.515 34.6429 186.212 34.4777C186.908 34.3125 187.549 34.0603 188.134 33.7211C188.716 33.3713 189.254 32.9767 189.752 32.5136C190.239 32.0531 190.674 31.5611 191.055 31.0374C191.437 30.5138 191.803 29.9718 192.166 29.4191C192.48 28.8904 192.785 28.3299 193.085 27.7484C193.385 27.1668 193.628 26.5775 193.809 25.9698C193.991 25.3621 194.093 24.7519 194.135 24.1234C194.18 23.5055 194.109 22.9168 193.944 22.3521C193.779 21.7873 193.461 21.2837 193.012 20.8357C192.563 20.3878 192.03 20.051 191.429 19.7987L187.148 18.0413L178.347 32.4822L178.339 32.4955Z" fill="white"/>
<path d="M422.063 58.8657L419.489 38.7719L405.899 13.5931L413.375 11.3509L421.715 28.223L425.473 7.72972L432.959 5.48711L426.578 37.4711L429.056 56.7731L422.074 58.8653L422.063 58.8657Z" fill="white"/>
<path d="M384.896 75.7507L380.288 41.9532L377.925 25.0934L385.397 21.1049L409.377 62.6901L402.767 66.2096L397.588 56.8369L389.772 61.0043L391.506 72.2203L384.896 75.7398L384.896 75.7507ZM388.741 54.4619L394.597 51.3337L387.404 38.1546C387.083 37.6362 386.783 37.1175 386.505 36.5984C386.227 36.0794 385.96 35.5711 385.693 35.0738C385.809 35.6603 385.904 36.258 385.988 36.8777C386.073 37.4973 386.157 38.1278 386.252 38.7691L388.73 54.4621L388.741 54.4619Z" fill="white"/>
<path d="M337.503 77.1352L352.617 30.9086L359.882 32.0454L346.748 72.2314L362.561 74.7185L360.569 80.7497L337.491 77.1257L337.503 77.1352Z" fill="white"/>
<path d="M305.362 51.2892L330.747 9.89198L340.801 14.0472C342.049 14.5646 343.203 15.1956 344.285 15.9454C345.357 16.6978 346.243 17.5981 346.911 18.6543C347.579 19.7104 348.033 20.8537 348.247 22.1026C348.47 23.3489 348.483 24.6031 348.297 25.8626C348.11 27.1222 347.752 28.3685 347.232 29.5885C346.711 30.8084 346.095 32.0072 345.38 33.1638C344.787 34.1435 344.111 35.0994 343.337 36.0237C342.563 36.9479 341.686 37.7745 340.707 38.5033C339.727 39.2322 338.647 39.829 337.473 40.315C336.295 40.7904 335.094 41.081 333.887 41.1708C332.68 41.2607 331.488 41.1895 330.315 40.9679C329.141 40.7462 328.014 40.4004 326.93 39.9542L321.991 37.9162L312.091 54.0901L305.344 51.305L305.362 51.2892ZM325.336 32.495L329.374 34.1529C329.935 34.3825 330.545 34.5435 331.19 34.6174C331.834 34.6913 332.508 34.6569 333.204 34.4931C333.901 34.3294 334.542 34.0784 335.128 33.7404C335.711 33.3918 336.25 32.9983 336.748 32.5362C337.237 32.0767 337.672 31.5855 338.055 31.0627C338.438 30.5398 338.805 29.9985 339.17 29.4466C339.484 28.9185 339.791 28.3587 340.092 27.7777C340.393 27.1968 340.636 26.608 340.819 26.0006C341.002 25.3933 341.106 24.7833 341.149 24.1549C341.195 23.537 341.126 22.9482 340.961 22.3832C340.797 21.8181 340.48 21.3138 340.032 20.865C339.584 20.4161 339.052 20.0782 338.452 19.8248L334.174 18.0587L325.343 32.4818L325.336 32.495Z" fill="white"/>
</svg>
