<svg width="133" height="76" viewBox="0 0 133 76" fill="none" xmlns="http://www.w3.org/2000/svg">
<path d="M0.0216842 39.8023L34.7272 5.83694L43.466 12.3164C44.5502 13.1222 45.5151 14.0152 46.3825 15.0062C47.239 15.9971 47.8787 17.0861 48.269 18.2731C48.6593 19.4601 48.822 20.6798 48.7244 21.943C48.6376 23.2062 48.3449 24.4259 47.857 25.6019C47.3691 26.778 46.7186 27.8997 45.9163 28.956C45.114 30.0123 44.2249 31.0251 43.2491 31.9725C42.436 32.7783 41.5469 33.5406 40.5711 34.2485C39.5953 34.9563 38.5437 35.5443 37.4161 36.0126C36.2885 36.4809 35.0959 36.7967 33.8382 36.9818C32.5805 37.156 31.3445 37.1451 30.1519 36.9382C28.9592 36.7313 27.8208 36.372 26.7366 35.871C25.6524 35.3701 24.6441 34.7603 23.7008 34.0633L19.4074 30.8835L5.86557 44.1582L0 39.8132L0.0216842 39.8023ZM23.9719 26.4405L27.4847 29.0322C27.9726 29.3916 28.5256 29.6965 29.1327 29.9252C29.7399 30.1539 30.4012 30.2846 31.1168 30.2955C31.8324 30.3063 32.5154 30.2192 33.166 30.0341C33.8165 29.8381 34.4345 29.5876 35.0308 29.2609C35.6163 28.9342 36.1584 28.564 36.6571 28.1502C37.1559 27.7364 37.6438 27.3008 38.1317 26.8543C38.5653 26.4187 38.999 25.9504 39.4327 25.4604C39.8664 24.9703 40.2459 24.4585 40.5711 23.914C40.8964 23.3695 41.1458 22.8033 41.3409 22.2043C41.5361 21.6163 41.612 21.0282 41.5903 20.4402C41.5686 19.8521 41.3843 19.2859 41.059 18.7414C40.7338 18.1969 40.3001 17.7395 39.7797 17.3475L36.0608 14.5923L23.9827 26.4296L23.9719 26.4405Z" fill="white"/>
<path d="M34.0767 69.5641L54.7851 25.5584L61.8542 27.5839L43.8563 65.8398L59.2412 70.2611L56.5199 76L34.0659 69.5532L34.0767 69.5641Z" fill="white"/>
<path d="M83.5275 69.6295L79.375 35.773L77.2391 18.8829L84.7635 14.9953L108.182 56.8993L101.525 60.3296L96.473 50.8881L88.6016 54.95L90.1846 66.1883L83.5275 69.6186V69.6295ZM87.6584 48.3943L93.5564 45.3452L86.5416 32.0705C86.2272 31.5478 85.9345 31.0251 85.6634 30.5024C85.3923 29.9797 85.1321 29.4678 84.8719 28.9669C84.9804 29.555 85.0671 30.1539 85.143 30.7746C85.2189 31.3953 85.2948 32.0269 85.3815 32.6694L87.6475 48.3943H87.6584Z" fill="white"/>
<path d="M120.033 52.9136L118.244 32.7348L105.645 7.04571L113.202 5.09643L120.879 22.2806L125.432 1.94928L133 0L125.378 31.7111L127.102 51.095L120.044 52.9136H120.033Z" fill="white"/>
</svg>
