<svg width="347" height="265" viewBox="0 0 347 265" fill="none" xmlns="http://www.w3.org/2000/svg">
<path d="M50.7185 173.422L44.5512 174.177L43.5808 166.138L8.01102 164.66L8.89514 171.922L2.72784 172.667L0 150.167L6.1673 149.423L7.13768 157.462L42.7075 158.941L41.8233 151.678L47.9906 150.923L50.7185 173.422Z" fill="#FFBBD3"/>
<path d="M45.1442 147.383L2.10249 125.715L4.1295 119.23L40.0012 123.935C39.8502 123.848 39.6669 123.773 39.4513 123.73C39.2357 123.686 39.0524 123.622 38.9014 123.524L36.6156 122.812C34.5886 122.089 32.5508 121.312 30.5238 120.503C28.4968 119.694 26.4913 118.766 24.5075 117.741L7.27784 109.097L9.4558 102.115L52.5083 123.783L50.4813 130.269L38.6211 128.737L14.5988 125.564C14.7498 125.661 14.9331 125.726 15.1487 125.769C15.3643 125.812 15.5476 125.877 15.6986 125.974L17.9844 126.686C20.0329 127.366 22.0599 128.132 24.087 128.963C26.114 129.794 28.1086 130.733 30.0925 131.758L47.3221 140.402L45.1442 147.383Z" fill="#FFBBD3"/>
<path d="M58.4707 116.273L37.5644 79.9397L30.5022 85.7129L27.3755 80.2418L47.1065 64.0985L50.2333 69.5695L43.1711 75.3427L64.0773 111.676L58.4707 116.262V116.273Z" fill="#FFBBD3"/>
<path d="M81.3824 103.54L58.5246 61.077L77.6842 46.2826L80.66 51.8399L67.2904 62.1669L73.8135 74.2205L84.2612 66.1488L87.2371 71.7061L76.7893 79.7778L84.1965 93.5147L97.5662 83.1878L100.542 88.7451L81.3824 103.54Z" fill="#FFBBD3"/>
<path d="M107.486 76.1844L77.4362 38.4807L85.3286 29.74C86.2236 28.7472 87.1939 27.8947 88.2398 27.1825C89.2856 26.4703 90.407 25.9847 91.6038 25.7257C92.8006 25.4667 93.9974 25.4775 95.205 25.7473C96.4125 26.0171 97.5554 26.4595 98.6336 27.0638C99.7226 27.6681 100.736 28.4235 101.685 29.3407C102.634 30.2579 103.518 31.2291 104.327 32.2543C105.178 33.3118 105.944 34.4664 106.634 35.7398C107.324 37.0023 107.82 38.3404 108.122 39.7432C108.424 41.1461 108.488 42.592 108.316 44.0704C108.143 45.5488 107.744 46.93 107.108 48.2142L125.082 56.6959L120.101 62.2209L102.547 53.9442L100.639 56.0592L112.381 70.7673L107.486 76.1952V76.1844ZM96.7252 51.1169L100.24 47.2214C100.65 46.7682 100.973 46.2394 101.232 45.6351C101.491 45.0308 101.631 44.4049 101.663 43.7575C101.696 43.11 101.631 42.4733 101.469 41.8475C101.318 41.2108 101.113 40.6065 100.855 40.0238C100.596 39.4411 100.283 38.9015 99.9275 38.3944C99.5717 37.898 99.1943 37.4124 98.7953 36.9376C98.3964 36.4088 97.9975 35.9124 97.577 35.4376C97.1565 34.9736 96.7036 34.5528 96.2292 34.1751C95.7548 33.7974 95.2589 33.4737 94.7305 33.1715C94.213 32.8802 93.6739 32.6967 93.1025 32.6104C92.531 32.5348 91.9704 32.6104 91.4205 32.837C90.8706 33.0636 90.3746 33.4197 89.9433 33.8945L86.2559 37.9843L96.7252 51.1061V51.1169Z" fill="#FFBBD3"/>
<path d="M130.926 52.8111L116.359 7.47816L123.518 5.46024L132.543 35.8801C132.748 36.452 132.931 37.0131 133.082 37.5742C133.244 38.1354 133.395 38.6857 133.546 39.2253C133.556 38.6425 133.589 38.0382 133.643 37.4124C133.697 36.7973 133.74 36.1606 133.783 35.5239L135.713 2.01792L142.872 0L139.012 50.5234L130.915 52.8003L130.926 52.8111Z" fill="#FFBBD3"/>
<path d="M150.085 48.3652L151.411 42.2899L159.315 44.0165L172.426 10.8989L165.288 9.33421L166.614 3.25888L188.739 8.09324L187.413 14.1686L179.509 12.442L166.398 45.5596L173.536 47.1243L172.21 53.1996L150.085 48.3652Z" fill="#FFBBD3"/>
<path d="M187.391 57.1923L193.601 9.36658L217.785 8.54647L216.966 14.7945L200.092 15.3664L198.345 28.963L211.532 28.5206L210.712 34.7686L197.526 35.211L195.521 50.6961L212.394 50.1242L211.575 56.3721L187.391 57.1923Z" fill="#FFBBD3"/>
<path d="M219.543 53.0917L233.904 7.6724L240.967 9.55003L226.831 44.7826L239.813 23.0388L245.312 24.4956L238.088 47.7609L255.231 13.3161L262.293 15.1829L237.182 57.7534L231.619 56.275L238.303 33.2686L225.106 54.5593L219.543 53.0809V53.0917Z" fill="#FFBBD3"/>
<path d="M264.546 91.4755C264.147 90.4288 263.824 89.3712 263.576 88.3137C263.328 87.2562 263.209 86.1987 263.231 85.152C263.253 84.1052 263.404 83.0693 263.705 82.055C264.007 81.0406 264.503 80.1342 265.204 79.368C265.894 78.5911 266.724 77.9436 267.673 77.4148C268.622 76.8861 269.657 76.4976 270.768 76.2602L271.296 76.1954L273.873 82.9074L273.603 82.9398C272.87 83.0801 272.212 83.3499 271.619 83.7383C271.026 84.1268 270.584 84.6232 270.282 85.2275C269.981 85.8318 269.851 86.4793 269.894 87.1807C269.937 87.8821 270.088 88.5727 270.347 89.2633C270.627 89.9863 271.016 90.6662 271.512 91.3136C272.008 91.9503 272.633 92.4791 273.366 92.8891C274.099 93.2992 274.886 93.5474 275.738 93.6445C276.579 93.7308 277.388 93.6984 278.164 93.5474C279.231 93.3207 280.18 92.8891 281.021 92.2417C281.862 91.5942 282.542 90.8496 283.07 89.9971C283.598 89.1446 284.008 88.2382 284.31 87.267C284.601 86.2958 284.903 85.3354 285.215 84.3858C285.517 83.4362 285.862 82.4866 286.229 81.5262C286.596 80.5766 287.038 79.6594 287.534 78.8069C288.03 77.9436 288.612 77.1235 289.259 76.3357C289.906 75.5588 290.628 74.8358 291.447 74.1775C292.256 73.5193 293.14 72.9581 294.1 72.4941C295.059 72.0301 296.073 71.7064 297.162 71.5229C298.186 71.3071 299.221 71.1992 300.256 71.1992C301.291 71.1992 302.337 71.3287 303.394 71.6201C304.451 71.9114 305.453 72.3215 306.402 72.861C307.351 73.4006 308.203 74.048 308.947 74.7926C309.701 75.548 310.337 76.3681 310.877 77.2745C311.405 78.181 311.858 79.0982 312.214 80.0262C312.613 81.073 312.936 82.1197 313.173 83.1556C313.41 84.1916 313.518 85.2275 313.497 86.2527C313.475 87.2778 313.292 88.2598 312.936 89.2094C312.58 90.159 312.084 91.0115 311.426 91.7669C310.769 92.533 309.96 93.1481 308.99 93.6445C308.019 94.1301 307.006 94.4862 305.938 94.7128L305.496 94.8099L302.92 88.0979H303.124C303.793 87.9253 304.429 87.6555 305 87.2994C305.583 86.9433 306.036 86.5008 306.359 85.9721C306.693 85.4541 306.844 84.8606 306.823 84.2024C306.801 83.5441 306.661 82.8859 306.413 82.2384C306.154 81.5478 305.766 80.9111 305.259 80.3284C304.752 79.7349 304.138 79.2709 303.405 78.9256C302.671 78.5803 301.917 78.3752 301.119 78.3105C300.332 78.2457 299.556 78.2889 298.779 78.4508C297.712 78.6774 296.752 79.109 295.922 79.7565C295.081 80.4039 294.402 81.1485 293.873 82.001C293.345 82.8535 292.925 83.7491 292.623 84.6987C292.321 85.6483 292.019 86.6088 291.717 87.5799C291.415 88.5511 291.081 89.5007 290.703 90.4396C290.326 91.3784 289.884 92.2848 289.399 93.1589C288.903 94.0437 288.342 94.8747 287.695 95.6516C287.048 96.4286 286.326 97.1515 285.539 97.799C284.752 98.4465 283.868 99.0076 282.887 99.4824C281.905 99.9464 280.892 100.303 279.824 100.529C278.8 100.745 277.733 100.842 276.644 100.82C275.555 100.799 274.477 100.637 273.409 100.335C272.342 100.033 271.339 99.5687 270.39 98.9644C269.441 98.3601 268.59 97.6695 267.824 96.9034C267.069 96.1264 266.422 95.2739 265.894 94.3135C265.366 93.3639 264.924 92.4251 264.568 91.4971L264.546 91.4755Z" fill="#FFBBD3"/>
<path d="M274.401 116.716L317.012 94.1948L321.432 100.022L303.459 109.518L309.561 117.568L327.535 108.072L331.955 113.899L289.345 136.42L284.924 130.593L303.998 120.503L297.895 112.453L278.822 122.543L274.401 116.716Z" fill="#FFBBD3"/>
<path d="M297.949 150.103C297.572 148.862 297.313 147.61 297.194 146.337C297.076 145.064 297.194 143.855 297.529 142.711C297.874 141.567 298.423 140.51 299.189 139.549C299.954 138.589 300.871 137.801 301.938 137.175C303.006 136.549 304.149 136.053 305.367 135.675C306.585 135.298 307.858 135.017 309.205 134.823L330.263 131.974C331.384 131.801 332.516 131.737 333.648 131.769C334.78 131.801 335.912 131.974 337.023 132.287C338.133 132.6 339.201 133.053 340.225 133.668C341.249 134.273 342.166 135.006 342.964 135.87C343.772 136.722 344.43 137.661 344.948 138.675C345.465 139.69 345.886 140.715 346.198 141.74C346.576 142.981 346.835 144.233 346.953 145.506C347.072 146.779 346.964 147.999 346.63 149.164C346.285 150.33 345.735 151.387 344.969 152.326C344.193 153.265 343.276 154.052 342.22 154.7C341.152 155.347 340.01 155.844 338.791 156.2C337.573 156.556 336.29 156.826 334.942 157.02L313.885 159.869C312.763 160.031 311.631 160.106 310.488 160.074C309.346 160.041 308.224 159.869 307.114 159.556C306.003 159.243 304.936 158.779 303.911 158.175C302.887 157.56 301.971 156.826 301.162 155.973C300.353 155.11 299.696 154.182 299.178 153.168C298.661 152.153 298.24 151.128 297.927 150.103H297.949ZM303.901 148.333C304.159 149.153 304.591 149.92 305.216 150.632C305.841 151.344 306.585 151.883 307.437 152.25C308.3 152.617 309.173 152.822 310.068 152.865C310.963 152.909 311.836 152.865 312.699 152.725L333.821 149.855C334.435 149.801 335.05 149.704 335.664 149.553C336.268 149.412 336.85 149.218 337.39 148.981C337.929 148.743 338.425 148.463 338.877 148.117C339.33 147.772 339.718 147.362 340.02 146.887C340.322 146.412 340.484 145.873 340.505 145.279C340.527 144.686 340.441 144.103 340.268 143.52C340.01 142.69 339.578 141.923 338.953 141.222C338.328 140.51 337.584 139.97 336.732 139.603C335.869 139.236 334.996 139.031 334.101 138.988C333.206 138.945 332.333 138.988 331.47 139.129L310.348 141.999C309.734 142.053 309.119 142.15 308.505 142.301C307.89 142.441 307.319 142.636 306.779 142.862C306.24 143.1 305.744 143.391 305.292 143.725C304.839 144.06 304.451 144.481 304.149 144.956C303.847 145.43 303.685 145.97 303.663 146.564C303.642 147.157 303.717 147.74 303.901 148.322V148.333Z" fill="#FFBBD3"/>
<path d="M303.728 161.347L346.619 183.328L343.028 194.551C342.619 195.824 342.08 197.001 341.422 198.08C340.754 199.159 339.934 200.065 338.953 200.788C337.972 201.511 336.872 202.008 335.664 202.245C334.457 202.493 333.228 202.558 331.999 202.461C330.769 202.364 329.529 202.083 328.29 201.641C327.05 201.198 325.853 200.68 324.678 200.076C323.47 199.461 322.295 198.727 321.141 197.853C319.987 196.979 318.995 195.975 318.144 194.821C317.292 193.666 316.634 192.382 316.181 190.968C315.728 189.555 315.524 188.13 315.578 186.695L295.706 186.371L297.981 179.282L317.378 179.584L318.251 176.875L301.496 168.307L303.728 161.336V161.347ZM323.858 179.757L322.262 184.753C322.079 185.325 321.993 185.951 322.004 186.609C322.014 187.267 322.144 187.904 322.381 188.497C322.618 189.091 322.942 189.652 323.341 190.159C323.74 190.677 324.182 191.141 324.656 191.562C325.13 191.983 325.637 192.35 326.176 192.663C326.715 192.976 327.254 193.256 327.804 193.526C328.387 193.85 328.958 194.13 329.529 194.389C330.101 194.637 330.683 194.842 331.276 194.983C331.869 195.123 332.451 195.22 333.044 195.274C333.637 195.328 334.209 195.274 334.759 195.112C335.309 194.95 335.794 194.648 336.204 194.217C336.613 193.785 336.915 193.256 337.12 192.641L338.802 187.397L323.858 179.746V179.757Z" fill="#FFBBD3"/>
<path d="M288.579 195.501L319.049 224.269L324.149 216.705L328.721 221.043L314.467 242.193L309.895 237.855L314.995 230.291L284.525 201.522L288.579 195.511V195.501Z" fill="#FFBBD3"/>
<path d="M268.417 237.715C268.676 236.625 269.01 235.568 269.409 234.553C269.808 233.539 270.304 232.6 270.908 231.748C271.512 230.895 272.223 230.129 273.053 229.46C273.884 228.791 274.8 228.338 275.803 228.089C276.806 227.841 277.862 227.777 278.951 227.874C280.029 227.971 281.097 228.241 282.153 228.672L282.628 228.92L280.957 235.913L280.719 235.794C280.04 235.503 279.339 235.341 278.638 235.33C277.927 235.319 277.28 235.47 276.698 235.794C276.115 236.118 275.63 236.582 275.264 237.186C274.897 237.791 274.628 238.449 274.455 239.161C274.272 239.916 274.207 240.704 274.261 241.513C274.315 242.323 274.52 243.111 274.897 243.866C275.275 244.621 275.781 245.28 276.428 245.83C277.075 246.38 277.754 246.812 278.477 247.114C279.49 247.535 280.515 247.708 281.571 247.654C282.628 247.6 283.609 247.362 284.525 246.963C285.442 246.564 286.294 246.046 287.092 245.409C287.889 244.772 288.676 244.157 289.464 243.542C290.251 242.927 291.07 242.334 291.911 241.762C292.763 241.19 293.636 240.683 294.531 240.262C295.426 239.83 296.364 239.485 297.345 239.204C298.316 238.924 299.329 238.751 300.364 238.665C301.399 238.578 302.445 238.621 303.491 238.783C304.537 238.945 305.561 239.258 306.564 239.722C307.534 240.132 308.44 240.629 309.302 241.211C310.165 241.794 310.941 242.506 311.653 243.337C312.365 244.168 312.958 245.085 313.432 246.056C313.906 247.028 314.241 248.042 314.435 249.089C314.629 250.135 314.693 251.182 314.618 252.229C314.542 253.276 314.392 254.279 314.165 255.25C313.906 256.34 313.583 257.387 313.184 258.38C312.796 259.373 312.3 260.29 311.696 261.121C311.103 261.952 310.391 262.664 309.561 263.236C308.731 263.818 307.836 264.229 306.866 264.488C305.895 264.746 304.871 264.8 303.804 264.649C302.725 264.498 301.69 264.218 300.677 263.808L300.256 263.635L301.928 256.642L302.1 256.75C302.747 256.999 303.415 257.128 304.095 257.16C304.774 257.193 305.399 257.085 305.971 256.847C306.542 256.61 306.995 256.2 307.351 255.65C307.707 255.089 307.965 254.473 308.127 253.804C308.3 253.092 308.343 252.348 308.257 251.571C308.17 250.794 307.933 250.06 307.523 249.369C307.114 248.679 306.607 248.074 305.992 247.567C305.378 247.071 304.709 246.661 303.987 246.359C302.973 245.938 301.949 245.754 300.892 245.819C299.836 245.873 298.855 246.11 297.938 246.51C297.022 246.909 296.17 247.416 295.383 248.031C294.596 248.646 293.798 249.261 293.011 249.898C292.213 250.524 291.404 251.117 290.563 251.679C289.722 252.229 288.849 252.736 287.943 253.179C287.038 253.632 286.1 253.988 285.118 254.268C284.137 254.549 283.145 254.732 282.132 254.819C281.108 254.905 280.072 254.873 279.005 254.7C277.938 254.527 276.892 254.236 275.889 253.826C274.919 253.416 273.991 252.898 273.107 252.261C272.223 251.625 271.415 250.88 270.714 250.028C270.013 249.175 269.441 248.225 268.999 247.19C268.557 246.154 268.245 245.096 268.051 244.039C267.856 242.97 267.824 241.902 267.921 240.812C268.029 239.722 268.191 238.697 268.417 237.737V237.715Z" fill="#FFBBD3"/>
</svg>
