<svg width="327" height="47" viewBox="0 0 327 47" fill="none" xmlns="http://www.w3.org/2000/svg">
<path d="M16.9922 32L12.4141 16H16.1094L18.7578 27.1172H18.8906L21.8125 16H24.9766L27.8906 27.1406H28.0313L30.6797 16H34.375L29.7969 32H26.5L23.4531 21.5391H23.3281L20.2891 32H16.9922ZM38.2559 32.2266C37.4902 32.2266 36.8079 32.0938 36.209 31.8281C35.61 31.5573 35.1361 31.1589 34.7871 30.6328C34.4434 30.1016 34.2715 29.4401 34.2715 28.6484C34.2715 27.9818 34.3939 27.4219 34.6387 26.9687C34.8835 26.5156 35.2168 26.151 35.6387 25.875C36.0605 25.599 36.5397 25.3906 37.0762 25.25C37.6178 25.1094 38.1855 25.0104 38.7793 24.9531C39.4772 24.8802 40.0397 24.8125 40.4668 24.75C40.8939 24.6823 41.2038 24.5833 41.3965 24.4531C41.5892 24.3229 41.6855 24.1302 41.6855 23.875V23.8281C41.6855 23.3333 41.5293 22.9505 41.2168 22.6797C40.9095 22.4089 40.472 22.2734 39.9043 22.2734C39.3053 22.2734 38.8288 22.4062 38.4746 22.6719C38.1204 22.9323 37.8861 23.2604 37.7715 23.6562L34.6934 23.4062C34.8496 22.6771 35.1569 22.0469 35.6152 21.5156C36.0736 20.9792 36.6647 20.5677 37.3887 20.2812C38.1178 19.9896 38.9616 19.8438 39.9199 19.8438C40.5866 19.8438 41.2246 19.9219 41.834 20.0781C42.4486 20.2344 42.9928 20.4766 43.4668 20.8047C43.946 21.1328 44.3236 21.5547 44.5996 22.0703C44.8757 22.5807 45.0137 23.1927 45.0137 23.9062V32H41.8574V30.3359H41.7637C41.571 30.7109 41.3132 31.0417 40.9902 31.3281C40.6673 31.6094 40.2793 31.8307 39.8262 31.9922C39.373 32.1484 38.8496 32.2266 38.2559 32.2266ZM39.209 29.9297C39.6986 29.9297 40.1309 29.8333 40.5059 29.6406C40.8809 29.4427 41.1751 29.1771 41.3887 28.8438C41.6022 28.5104 41.709 28.1328 41.709 27.7109V26.4375C41.6048 26.5052 41.4616 26.5677 41.2793 26.625C41.1022 26.6771 40.9017 26.7266 40.6777 26.7734C40.4538 26.8151 40.2298 26.8542 40.0059 26.8906C39.7819 26.9219 39.5788 26.9505 39.3965 26.9766C39.0059 27.0339 38.6647 27.125 38.373 27.25C38.0814 27.375 37.8548 27.5443 37.6934 27.7578C37.5319 27.9661 37.4512 28.2266 37.4512 28.5391C37.4512 28.9922 37.6152 29.3385 37.9434 29.5781C38.2767 29.8125 38.6986 29.9297 39.209 29.9297ZM53.9785 20V22.5H46.752V20H53.9785ZM48.3926 17.125H51.7207V28.3125C51.7207 28.6198 51.7676 28.8594 51.8613 29.0312C51.9551 29.1979 52.0853 29.3151 52.252 29.3828C52.4238 29.4505 52.6217 29.4844 52.8457 29.4844C53.002 29.4844 53.1582 29.4714 53.3145 29.4453C53.4707 29.4141 53.5905 29.3906 53.6738 29.375L54.1973 31.8516C54.0306 31.9036 53.7962 31.9635 53.4941 32.0313C53.1921 32.1042 52.8249 32.1484 52.3926 32.1641C51.5905 32.1953 50.8874 32.0885 50.2832 31.8437C49.6842 31.599 49.2181 31.2187 48.8848 30.7031C48.5514 30.1875 48.3874 29.5365 48.3926 28.75V17.125ZM61.4395 32.2344C60.2103 32.2344 59.153 31.974 58.2676 31.4531C57.3874 30.9271 56.7103 30.1979 56.2363 29.2656C55.7676 28.3333 55.5332 27.2604 55.5332 26.0469C55.5332 24.8177 55.7702 23.7396 56.2441 22.8125C56.7233 21.8802 57.403 21.1536 58.2832 20.6328C59.1634 20.1068 60.2103 19.8438 61.4238 19.8438C62.4707 19.8438 63.3874 20.0339 64.1738 20.4141C64.9603 20.7943 65.5827 21.3281 66.041 22.0156C66.4993 22.7031 66.752 23.5104 66.7988 24.4375H63.6582C63.5697 23.8385 63.3353 23.3568 62.9551 22.9922C62.5801 22.6224 62.0879 22.4375 61.4785 22.4375C60.9629 22.4375 60.5124 22.5781 60.127 22.8594C59.7467 23.1354 59.4499 23.5391 59.2363 24.0703C59.0228 24.6016 58.916 25.2448 58.916 26C58.916 26.7656 59.0202 27.4167 59.2285 27.9531C59.4421 28.4896 59.7415 28.8984 60.127 29.1797C60.5124 29.4609 60.9629 29.6016 61.4785 29.6016C61.8587 29.6016 62.1999 29.5234 62.502 29.3672C62.8092 29.2109 63.0618 28.9844 63.2598 28.6875C63.4629 28.3854 63.5957 28.0234 63.6582 27.6016H66.7988C66.7467 28.5182 66.4967 29.3255 66.0488 30.0234C65.6061 30.7161 64.9941 31.2578 64.2129 31.6484C63.4316 32.0391 62.5072 32.2344 61.4395 32.2344ZM72.2578 25.0625V32H68.9297V16H72.1641V22.1172H72.3047C72.5755 21.4089 73.013 20.8542 73.6172 20.4531C74.2214 20.0469 74.9792 19.8438 75.8906 19.8438C76.724 19.8438 77.4505 20.026 78.0703 20.3906C78.6953 20.75 79.1797 21.2682 79.5234 21.9453C79.8724 22.6172 80.0443 23.4219 80.0391 24.3594V32H76.7109V24.9531C76.7161 24.2135 76.5286 23.638 76.1484 23.2266C75.7734 22.8151 75.2474 22.6094 74.5703 22.6094C74.1172 22.6094 73.7161 22.7057 73.3672 22.8984C73.0234 23.0911 72.7526 23.3724 72.5547 23.7422C72.362 24.1068 72.263 24.5469 72.2578 25.0625ZM94.2031 20V22.5H86.7969V20H94.2031ZM88.4922 32V19.1328C88.4922 18.263 88.6615 17.5417 89 16.9687C89.3438 16.3958 89.8125 15.9661 90.4062 15.6797C91 15.3932 91.6745 15.25 92.4297 15.25C92.9401 15.25 93.4063 15.2891 93.8281 15.3672C94.2552 15.4453 94.5729 15.5156 94.7813 15.5781L94.1875 18.0781C94.0573 18.0365 93.8958 17.9974 93.7031 17.9609C93.5156 17.9245 93.3229 17.9062 93.125 17.9062C92.6354 17.9062 92.2943 18.0208 92.1016 18.25C91.9089 18.474 91.8125 18.7891 91.8125 19.1953V32H88.4922ZM103.932 26.8906V20H107.26V32H104.064V29.8203H103.939C103.669 30.5234 103.218 31.0885 102.588 31.5156C101.963 31.9427 101.2 32.1563 100.299 32.1563C99.4967 32.1563 98.791 31.974 98.1816 31.6094C97.5723 31.2448 97.0957 30.7266 96.752 30.0547C96.4134 29.3828 96.2415 28.5781 96.2363 27.6406V20H99.5645V27.0469C99.5697 27.7552 99.7598 28.3151 100.135 28.7266C100.51 29.138 101.012 29.3437 101.643 29.3437C102.044 29.3437 102.419 29.2526 102.768 29.0703C103.117 28.8828 103.398 28.6068 103.611 28.2422C103.83 27.8776 103.937 27.4271 103.932 26.8906ZM113.25 16V32H109.922V16H113.25ZM119.244 16V32H115.916V16H119.244ZM132.424 32.2344C131.21 32.2344 130.161 31.9766 129.275 31.4609C128.395 30.9401 127.715 30.2161 127.236 29.2891C126.757 28.3568 126.518 27.276 126.518 26.0469C126.518 24.8073 126.757 23.724 127.236 22.7969C127.715 21.8646 128.395 21.1406 129.275 20.625C130.161 20.1042 131.21 19.8438 132.424 19.8438C133.637 19.8438 134.684 20.1042 135.564 20.625C136.45 21.1406 137.132 21.8646 137.611 22.7969C138.09 23.724 138.33 24.8073 138.33 26.0469C138.33 27.276 138.09 28.3568 137.611 29.2891C137.132 30.2161 136.45 30.9401 135.564 31.4609C134.684 31.9766 133.637 32.2344 132.424 32.2344ZM132.439 29.6562C132.992 29.6562 133.452 29.5 133.822 29.1875C134.192 28.8698 134.471 28.4375 134.658 27.8906C134.851 27.3437 134.947 26.7214 134.947 26.0234C134.947 25.3255 134.851 24.7031 134.658 24.1562C134.471 23.6094 134.192 23.1771 133.822 22.8594C133.452 22.5417 132.992 22.3828 132.439 22.3828C131.882 22.3828 131.413 22.5417 131.033 22.8594C130.658 23.1771 130.374 23.6094 130.182 24.1562C129.994 24.7031 129.9 25.3255 129.9 26.0234C129.9 26.7214 129.994 27.3437 130.182 27.8906C130.374 28.4375 130.658 28.8698 131.033 29.1875C131.413 29.5 131.882 29.6562 132.439 29.6562ZM143.822 25.0625V32H140.494V20H143.666V22.1172H143.807C144.072 21.4193 144.518 20.8672 145.143 20.4609C145.768 20.0495 146.525 19.8438 147.416 19.8438C148.249 19.8438 148.976 20.026 149.596 20.3906C150.215 20.7552 150.697 21.276 151.041 21.9531C151.385 22.625 151.557 23.4271 151.557 24.3594V32H148.229V24.9531C148.234 24.2187 148.046 23.6458 147.666 23.2344C147.286 22.8177 146.762 22.6094 146.096 22.6094C145.648 22.6094 145.252 22.7057 144.908 22.8984C144.57 23.0911 144.304 23.3724 144.111 23.7422C143.924 24.1068 143.827 24.5469 143.822 25.0625Z" fill="white"/>
<path d="M198.226 14.5946C197.8 13.0017 196.548 11.7498 194.955 11.3234C192.071 10.5498 180.5 10.5498 180.5 10.5498C180.5 10.5498 168.929 10.5498 166.045 11.3234C164.452 11.7498 163.2 13.0017 162.774 14.5946C162 17.4789 162 23.5004 162 23.5004C162 23.5004 162 29.5219 162.774 32.4063C163.2 33.9992 164.452 35.251 166.045 35.6773C168.929 36.451 180.5 36.451 180.5 36.451C180.5 36.451 192.071 36.451 194.955 35.6773C196.548 35.251 197.8 33.9992 198.226 32.4063C199 29.5219 199 23.5004 199 23.5004C199 23.5004 198.997 17.4789 198.226 14.5946Z" fill="#FF0000"/>
<path d="M176.797 29.0499L186.409 23.5006L176.797 17.9512V29.0499Z" fill="white"/>
<path d="M212.189 27.7152L208 12.5852H211.655L213.123 19.4437C213.498 21.133 213.771 22.5735 213.949 23.7652H214.057C214.18 22.9114 214.456 21.4801 214.883 19.4683L216.403 12.5852H220.059L215.817 27.7152V34.973H212.186V27.7152H212.189Z" fill="white"/>
<path d="M221.158 34.4934C220.421 33.9958 219.896 33.2218 219.582 32.1714C219.272 31.121 219.116 29.7266 219.116 27.9819V25.6076C219.116 23.8477 219.294 22.4318 219.65 21.366C220.006 20.3002 220.562 19.5201 221.318 19.0317C222.073 18.5434 223.065 18.2976 224.294 18.2976C225.504 18.2976 226.472 18.5464 227.203 19.044C227.931 19.5416 228.465 20.3217 228.803 21.3783C229.141 22.438 229.31 23.8477 229.31 25.6076V27.9819C229.31 29.7266 229.144 31.1271 228.815 32.1837C228.487 33.2433 227.952 34.0174 227.215 34.5057C226.478 34.9941 225.477 35.2398 224.214 35.2398C222.912 35.2428 221.895 34.991 221.158 34.4934ZM225.292 31.9319C225.495 31.3975 225.599 30.5282 225.599 29.3181V24.2225C225.599 23.0492 225.498 22.1892 225.292 21.6486C225.086 21.1049 224.727 20.8347 224.211 20.8347C223.714 20.8347 223.36 21.1049 223.158 21.6486C222.952 22.1922 222.851 23.0492 222.851 24.2225V29.3181C222.851 30.5282 222.949 31.4005 223.145 31.9319C223.342 32.4663 223.695 32.7335 224.211 32.7335C224.727 32.7335 225.086 32.4663 225.292 31.9319Z" fill="white"/>
<path d="M241.199 34.9762H238.318L237.999 32.9736H237.919C237.135 34.4848 235.962 35.2403 234.396 35.2403C233.312 35.2403 232.51 34.884 231.994 34.1746C231.478 33.4619 231.22 32.3501 231.22 30.839V18.6176H234.903V30.6239C234.903 31.355 234.982 31.874 235.142 32.1843C235.302 32.4944 235.569 32.651 235.944 32.651C236.263 32.651 236.57 32.5528 236.865 32.3563C237.16 32.1596 237.375 31.9108 237.519 31.6099V18.6145H241.199V34.9762Z" fill="white"/>
<path d="M251.203 15.5487H247.548V34.9756H243.946V15.5487H240.291V12.5878H251.203V15.5487Z" fill="white"/>
<path d="M260.086 34.9762H257.205L256.885 32.9736H256.805C256.022 34.4848 254.849 35.2403 253.282 35.2403C252.198 35.2403 251.397 34.884 250.881 34.1746C250.365 33.4619 250.106 32.3501 250.106 30.839V18.6176H253.789V30.6239C253.789 31.355 253.869 31.874 254.029 32.1843C254.188 32.4944 254.456 32.651 254.83 32.651C255.15 32.651 255.457 32.5528 255.752 32.3563C256.047 32.1596 256.262 31.9108 256.406 31.6099V18.6145H260.086V34.9762Z" fill="white"/>
<path d="M272.273 21.2312C272.049 20.1992 271.689 19.4528 271.192 18.989C270.694 18.5252 270.009 18.2949 269.137 18.2949C268.461 18.2949 267.829 18.4853 267.242 18.8692C266.655 19.2531 266.201 19.7538 265.881 20.3773H265.854V11.7588H262.306V34.9728H265.347L265.722 33.4249H265.802C266.087 33.9777 266.514 34.4108 267.082 34.7333C267.651 35.0528 268.283 35.2125 268.977 35.2125C270.221 35.2125 271.14 34.6381 271.726 33.4924C272.313 32.3436 272.608 30.553 272.608 28.1143V25.5251C272.608 23.6975 272.494 22.2632 272.273 21.2312ZM268.898 27.9054C268.898 29.0971 268.848 30.0309 268.75 30.7066C268.652 31.3823 268.489 31.8646 268.256 32.1471C268.025 32.4327 267.712 32.574 267.322 32.574C267.018 32.574 266.738 32.5034 266.48 32.3591C266.222 32.2177 266.014 32.0028 265.854 31.7202V22.4352C265.977 21.9898 266.192 21.6274 266.496 21.3417C266.797 21.0561 267.128 20.9148 267.482 20.9148C267.856 20.9148 268.145 21.0622 268.348 21.354C268.554 21.6489 268.695 22.1403 268.775 22.8345C268.855 23.5286 268.895 24.5145 268.895 25.7953V27.9054H268.898Z" fill="white"/>
<path d="M277.833 28.8484C277.833 29.8988 277.863 30.6851 277.925 31.2104C277.986 31.7355 278.115 32.1165 278.312 32.3591C278.508 32.5987 278.809 32.7184 279.218 32.7184C279.768 32.7184 280.148 32.5035 280.351 32.0765C280.557 31.6496 280.668 30.9371 280.686 29.9419L283.862 30.1292C283.88 30.2705 283.889 30.467 283.889 30.7158C283.889 32.227 283.475 33.3573 282.649 34.1037C281.822 34.8501 280.652 35.2247 279.141 35.2247C277.326 35.2247 276.054 34.6565 275.326 33.517C274.595 32.3776 274.233 30.6176 274.233 28.2341V25.3776C274.233 22.9236 274.611 21.1298 275.366 19.9996C276.122 18.8693 277.415 18.3041 279.249 18.3041C280.511 18.3041 281.481 18.5345 282.157 18.9983C282.833 19.462 283.309 20.1808 283.585 21.1606C283.862 22.1404 284 23.4918 284 25.2179V28.0191H277.833V28.8484ZM278.299 21.1391C278.112 21.3694 277.989 21.7472 277.925 22.2724C277.863 22.7977 277.833 23.5932 277.833 24.6621V25.8354H280.526V24.6621C280.526 23.6116 280.489 22.8161 280.419 22.2724C280.348 21.7288 280.219 21.3479 280.032 21.1237C279.844 20.9026 279.556 20.7889 279.166 20.7889C278.772 20.792 278.484 20.9087 278.299 21.1391Z" fill="white"/>
<path d="M304 10H295V26.5H314.5V20M314.5 17V10M314.5 10H307M314.5 10L305 19.5" stroke="#F5F4EB" stroke-width="2"/>
</svg>
