<svg width="122" height="119" viewBox="0 0 122 119" fill="none" xmlns="http://www.w3.org/2000/svg">
<path d="M20.7187 61.3044C19.3228 61.3044 17.927 61.1702 16.5312 60.9017C15.1354 60.687 13.7933 60.2844 12.5049 59.6938C11.2164 59.0496 10.0354 58.2443 8.96167 57.278C7.94166 56.258 7.0827 55.1306 6.3848 53.8959C5.6869 52.6611 5.17689 51.3458 4.85478 49.95C4.53267 48.5542 4.37162 47.1584 4.37162 45.7626H13.3101C13.3101 46.7826 13.4712 47.8026 13.7933 48.8226C14.1154 49.789 14.5986 50.6479 15.2428 51.3995C15.9407 52.1511 16.7728 52.7148 17.7391 53.0906C18.7592 53.4127 19.7523 53.5738 20.7187 53.5738C21.846 53.5738 22.9197 53.359 23.9397 52.9295C25.0134 52.4464 25.8724 51.7485 26.5166 50.8358C27.1608 49.9232 27.6172 48.93 27.8856 47.8563C28.154 46.7826 28.2882 45.6821 28.2882 44.5547C28.2882 43.5884 28.1808 42.6489 27.9661 41.7362C27.8051 40.7699 27.5098 39.8573 27.0803 38.9983C26.6508 38.1394 26.0871 37.3878 25.3892 36.7436C24.6913 36.0457 23.9129 35.5088 23.0539 35.133C22.195 34.7035 21.2823 34.4351 20.316 34.3277C19.4034 34.2204 18.4639 34.1667 17.4976 34.1667V26.4361C18.3565 26.4361 19.2155 26.3824 20.0744 26.275C20.9334 26.1676 21.7387 25.9261 22.4903 25.5503C23.2955 25.1745 23.9934 24.6645 24.584 24.0202C25.1745 23.376 25.6308 22.6781 25.9529 21.9265C26.3287 21.1213 26.5971 20.2891 26.7582 19.4302C26.9193 18.5712 26.9998 17.7123 26.9998 16.8533C26.9998 15.887 26.8924 14.9207 26.6777 13.9543C26.4629 12.988 26.0871 12.1022 25.5503 11.2969C25.0671 10.438 24.3961 9.76692 23.5371 9.28375C22.6782 8.80059 21.7655 8.55901 20.7992 8.55901C19.8865 8.55901 19.0007 8.77375 18.1418 9.20322C17.2828 9.57902 16.5849 10.1427 16.0481 10.8943C15.5649 11.6459 15.1891 12.478 14.9207 13.3906C14.706 14.2496 14.5986 15.1354 14.5986 16.048V16.1286H5.66005V15.9675C5.66005 14.6254 5.79427 13.3101 6.06269 12.0217C6.3848 10.6796 6.84112 9.41797 7.43165 8.2369C8.02219 7.00215 8.80062 5.90161 9.76695 4.93528C10.7333 3.96895 11.807 3.16368 12.988 2.51946C14.1691 1.87524 15.4307 1.44576 16.7728 1.23102C18.1149 0.9626 19.4571 0.828388 20.7992 0.828388C22.1413 0.828388 23.4834 0.9626 24.8255 1.23102C26.2214 1.49945 27.5098 1.98261 28.6909 2.68052C29.9256 3.32474 30.9993 4.15685 31.9119 5.17686C32.8246 6.19687 33.5762 7.32426 34.1667 8.55901C34.8109 9.79376 35.2673 11.109 35.5357 12.5048C35.8041 13.847 35.9383 15.1891 35.9383 16.5312C35.9383 17.927 35.7773 19.296 35.4551 20.6381C35.1867 21.9265 34.7304 23.1881 34.0862 24.4229C33.442 25.6039 32.6367 26.7045 31.6704 27.7245C30.704 28.6908 29.6303 29.4961 28.4493 30.1403C29.7914 30.7845 31.0261 31.6435 32.1535 32.7172C33.2809 33.7372 34.2204 34.8914 34.972 36.1799C35.7773 37.4683 36.3409 38.8641 36.6631 40.3673C37.0389 41.8168 37.2267 43.2931 37.2267 44.7963C37.2267 46.2995 37.0657 47.7758 36.7436 49.2253C36.4215 50.6211 35.9383 51.9901 35.2941 53.3322C34.6499 54.6206 33.7909 55.8017 32.7172 56.8754C31.6972 57.9491 30.543 58.8349 29.2545 59.5328C27.9661 60.177 26.5971 60.6333 25.1477 60.9017C23.6982 61.1702 22.2218 61.3044 20.7187 61.3044ZM60.8212 61.3044C59.3717 61.3044 57.8954 61.1702 56.3922 60.9017C54.9427 60.6333 53.5738 60.1502 52.2853 59.4522C50.9969 58.7543 49.8427 57.8685 48.8227 56.7948C47.8563 55.6675 47.0511 54.4596 46.4069 53.1711C45.8163 51.829 45.3868 50.4332 45.1184 48.9837C44.9037 47.4805 44.7963 46.0042 44.7963 44.5547V17.5781C44.7963 16.1286 44.9037 14.6791 45.1184 13.2296C45.3868 11.7264 45.8163 10.3306 46.4069 9.04217C47.0511 7.70005 47.8563 6.49214 48.8227 5.41844C49.8427 4.29106 50.9969 3.37842 52.2853 2.68052C53.5738 1.98261 54.9427 1.49945 56.3922 1.23102C57.8954 0.9626 59.3717 0.828388 60.8212 0.828388C62.2707 0.828388 63.7202 0.9626 65.1697 1.23102C66.6729 1.49945 68.0687 1.98261 69.3571 2.68052C70.6456 3.37842 71.7729 4.29106 72.7393 5.41844C73.7593 6.49214 74.5646 7.70005 75.1551 9.04217C75.7993 10.3306 76.2288 11.7264 76.4435 13.2296C76.712 14.6791 76.8462 16.1286 76.8462 17.5781V44.5547C76.8462 46.0042 76.712 47.4805 76.4435 48.9837C76.2288 50.4332 75.7993 51.829 75.1551 53.1711C74.5646 54.4596 73.7593 55.6675 72.7393 56.7948C71.7729 57.8685 70.6456 58.7543 69.3571 59.4522C68.0687 60.1502 66.6729 60.6333 65.1697 60.9017C63.7202 61.1702 62.2707 61.3044 60.8212 61.3044ZM53.7348 32.7977L67.9076 21.6044V17.5781C67.9076 16.5044 67.8003 15.4307 67.5855 14.357C67.3708 13.2833 66.9413 12.2901 66.2971 11.3775C65.7066 10.4648 64.9013 9.76692 63.8813 9.28375C62.9149 8.80059 61.8949 8.55901 60.8212 8.55901C59.7475 8.55901 58.7007 8.80059 57.6807 9.28375C56.7143 9.76692 55.9091 10.4648 55.2649 11.3775C54.6743 12.2901 54.2717 13.2833 54.0569 14.357C53.8422 15.4307 53.7348 16.5044 53.7348 17.5781V32.7977ZM60.8212 53.5738C61.8949 53.5738 62.9149 53.3322 63.8813 52.849C64.9013 52.3658 65.7066 51.6679 66.2971 50.7553C66.9413 49.8427 67.3708 48.8495 67.5855 47.7758C67.8003 46.7021 67.9076 45.6284 67.9076 44.5547V29.335L53.7348 40.5283V44.5547C53.7348 45.6284 53.8422 46.7021 54.0569 47.7758C54.2717 48.8495 54.6743 49.8427 55.2649 50.7553C55.9091 51.6679 56.7143 52.3658 57.6807 52.849C58.7007 53.3322 59.7475 53.5738 60.8212 53.5738ZM92.2269 31.6703C90.9921 31.6703 89.7574 31.5093 88.5226 31.1872C87.2879 30.8651 86.2142 30.3014 85.3015 29.4961C84.3889 28.6908 83.7178 27.6977 83.2883 26.5166C82.8589 25.2818 82.6441 24.0471 82.6441 22.8123V9.76692C82.6441 8.53216 82.8589 7.32425 83.2883 6.14319C83.7178 4.90844 84.3889 3.88842 85.3015 3.08315C86.2142 2.2242 87.2879 1.63366 88.5226 1.31155C89.7574 0.989442 90.9921 0.828388 92.2269 0.828388C93.4616 0.828388 94.6695 0.989442 95.8506 1.31155C97.0854 1.63366 98.1591 2.2242 99.0717 3.08315C100.038 3.88842 100.709 4.90844 101.085 6.14319C101.514 7.32425 101.729 8.53216 101.729 9.76692V22.8123C101.729 24.0471 101.514 25.2818 101.085 26.5166C100.709 27.6977 100.038 28.6908 99.0717 29.4961C98.1591 30.3014 97.0854 30.8651 95.8506 31.1872C94.6695 31.5093 93.4616 31.6703 92.2269 31.6703ZM104.145 25.9529L109.701 1.47261H118.881L110.99 25.9529H104.145ZM92.2269 25.5503C92.549 25.5503 92.8711 25.4966 93.1932 25.3892C93.569 25.2818 93.8643 25.0939 94.079 24.8255C94.2937 24.5034 94.428 24.1813 94.4816 23.8592C94.589 23.4834 94.6427 23.1344 94.6427 22.8123V9.76692C94.6427 9.39112 94.589 9.04217 94.4816 8.72006C94.428 8.34427 94.2937 8.02216 94.079 7.75374C93.8643 7.48531 93.569 7.29741 93.1932 7.19004C92.8711 7.02899 92.549 6.94846 92.2269 6.94846C91.8511 6.94846 91.5021 7.02899 91.18 7.19004C90.8579 7.29741 90.5895 7.48531 90.3747 7.75374C90.16 8.02216 89.999 8.34427 89.8916 8.72006C89.8379 9.04217 89.8111 9.39112 89.8111 9.76692V22.8123C89.8111 23.1344 89.8379 23.4834 89.8916 23.8592C89.999 24.1813 90.16 24.5034 90.3747 24.8255C90.5895 25.0939 90.8579 25.2818 91.18 25.3892C91.5021 25.4966 91.8511 25.5503 92.2269 25.5503ZM109.943 61.3044C108.708 61.3044 107.473 61.1433 106.239 60.8212C105.058 60.4991 103.984 59.9354 103.018 59.1301C102.105 58.2712 101.434 57.2512 101.004 56.0701C100.629 54.8353 100.441 53.6006 100.441 52.3658V39.3204C100.441 38.0857 100.629 36.8778 101.004 35.6967C101.434 34.4619 102.105 33.4419 103.018 32.6367C103.984 31.8314 105.058 31.2677 106.239 30.9456C107.473 30.5698 108.708 30.3819 109.943 30.3819C111.178 30.3819 112.412 30.5698 113.647 30.9456C114.882 31.2677 115.956 31.8314 116.868 32.6367C117.781 33.4419 118.452 34.4619 118.881 35.6967C119.311 36.8778 119.526 38.0857 119.526 39.3204V52.3658C119.526 53.6006 119.311 54.8353 118.881 56.0701C118.452 57.2512 117.781 58.2712 116.868 59.1301C115.956 59.9354 114.882 60.4991 113.647 60.8212C112.412 61.1433 111.178 61.3044 109.943 61.3044ZM83.2883 60.6602L91.18 36.1799H98.0248L92.4685 60.6602H83.2883ZM109.943 55.1843C110.319 55.1843 110.668 55.1306 110.99 55.0232C111.312 54.8622 111.58 54.6475 111.795 54.379C112.01 54.1106 112.144 53.8153 112.198 53.4932C112.305 53.1174 112.359 52.7416 112.359 52.3658V39.3204C112.359 38.9983 112.305 38.6762 112.198 38.3541C112.144 37.9783 112.01 37.6562 111.795 37.3878C111.58 37.0657 111.312 36.8509 110.99 36.7436C110.668 36.6362 110.319 36.5825 109.943 36.5825C109.621 36.5825 109.272 36.6362 108.896 36.7436C108.574 36.8509 108.305 37.0657 108.091 37.3878C107.876 37.6562 107.715 37.9783 107.608 38.3541C107.554 38.6762 107.527 38.9983 107.527 39.3204V52.3658C107.527 52.7416 107.554 53.1174 107.608 53.4932C107.715 53.8153 107.876 54.1106 108.091 54.379C108.305 54.6475 108.574 54.8622 108.896 55.0232C109.272 55.1306 109.621 55.1843 109.943 55.1843Z" fill="#24223C"/>
<path d="M23.8618 73.8638C34.8358 73.8638 44.3218 80.9938 44.3218 96.0598C44.3218 111.126 34.8358 118.256 23.8618 118.256C12.8878 118.256 3.40178 111.126 3.40178 96.0598C3.40178 80.9938 12.8878 73.8638 23.8618 73.8638ZM23.8618 81.3038C17.3518 81.3038 11.5858 85.7678 11.5858 96.0598C11.5858 106.352 17.3518 110.816 23.8618 110.816C30.3718 110.816 36.1378 106.352 36.1378 96.0598C36.1378 85.7678 30.3718 81.3038 23.8618 81.3038ZM51.537 74.3598H79.003V81.7998H59.597V91.7198H75.221V99.1598H59.597V117.76H51.537V74.3598ZM86.1093 74.3598H113.575V81.7998H94.1693V91.7198H109.793V99.1598H94.1693V117.76H86.1093V74.3598Z" fill="#24223C"/>
</svg>
