<svg width="199" height="47" viewBox="0 0 199 47" fill="none" xmlns="http://www.w3.org/2000/svg">
<path d="M1.262 19V0.799999H12.234V3.66H4.512V8.132H11.272V10.992H4.512V16.14H12.234V19H1.262ZM17.2938 19H14.1478L19.0878 0.799999H23.6118L28.5518 19H25.3538L24.1578 14.476H18.4898L17.2938 19ZM19.2698 11.616H23.3778L21.3758 4.05H21.2718L19.2698 11.616ZM29.5557 14.06H32.5717C32.7537 15.49 34.1577 16.504 35.9517 16.504C37.7977 16.504 39.0457 15.438 39.0457 13.878C39.0457 12.526 38.1357 11.72 36.2377 11.382L35.1977 11.2C31.6357 10.576 29.8937 8.886 29.8937 6.052C29.8937 2.75 32.2857 0.539999 35.8477 0.539999C39.3057 0.539999 41.9317 2.62 42.0617 5.48H39.0457C38.8897 4.258 37.6157 3.4 35.9777 3.4C34.2357 3.4 33.0657 4.388 33.0657 5.844C33.0657 7.092 33.8977 7.846 35.6137 8.158L36.6537 8.34C40.3717 8.99 42.2177 10.758 42.2177 13.696C42.2177 17.102 39.7477 19.364 36.0557 19.364C32.3897 19.364 29.6597 17.128 29.5557 14.06ZM48.8375 19V3.66H43.6895V0.799999H57.2095V3.66H52.0875V19H48.8375ZM59.4614 19V0.799999L70.4334 0.799999V3.66L62.7114 3.66V8.132H69.4714V10.992H62.7114V16.14H70.4334V19H59.4614ZM77.9112 8.6H81.2912C82.7732 8.6 83.7872 7.612 83.7872 6.13C83.7872 4.648 82.7732 3.66 81.2912 3.66H77.9112V8.6ZM74.6612 19V0.799999H81.1612C84.5412 0.799999 86.9072 2.984 86.9072 6.13C86.9072 8.47 85.6072 10.264 83.5792 11.044L87.4792 19H83.9172L80.2252 11.46H77.9112V19H74.6612ZM0.898 46L0.898 27.8H6.228C10.7 27.8 13.768 31.492 13.768 36.9C13.768 42.308 10.7 46 6.228 46H0.898ZM4.148 43.14H6.228C8.854 43.14 10.518 40.722 10.518 36.9C10.518 33.078 8.854 30.66 6.228 30.66H4.148V43.14ZM15.9678 46V43.14H19.7378V30.66H16.0198V27.8H26.7058V30.66H22.9878V43.14H26.7578V46H15.9678ZM28.8537 41.06H31.8697C32.0517 42.49 33.4557 43.504 35.2497 43.504C37.0957 43.504 38.3437 42.438 38.3437 40.878C38.3437 39.526 37.4337 38.72 35.5357 38.382L34.4957 38.2C30.9337 37.576 29.1917 35.886 29.1917 33.052C29.1917 29.75 31.5837 27.54 35.1457 27.54C38.6037 27.54 41.2297 29.62 41.3597 32.48H38.3437C38.1877 31.258 36.9137 30.4 35.2757 30.4C33.5337 30.4 32.3637 31.388 32.3637 32.844C32.3637 34.092 33.1957 34.846 34.9117 35.158L35.9517 35.34C39.6697 35.99 41.5157 37.758 41.5157 40.696C41.5157 44.102 39.0457 46.364 35.3537 46.364C31.6877 46.364 28.9577 44.128 28.8537 41.06ZM53.9595 41.06H57.1055C56.7935 44.102 54.3235 46.26 51.1515 46.26C46.9395 46.26 44.0275 42.438 44.0275 36.9C44.0275 31.362 46.9395 27.54 51.0995 27.54C54.1415 27.54 56.5335 29.568 56.9755 32.48H53.8295C53.4915 31.284 52.4255 30.53 51.1255 30.53C48.7855 30.53 47.2775 33.026 47.2775 36.9C47.2775 40.8 48.8115 43.27 51.2035 43.27C52.6335 43.27 53.6995 42.412 53.9595 41.06ZM64.9994 46.26C60.8654 46.26 57.9794 42.412 57.9794 36.9C57.9794 31.388 60.8654 27.54 64.9994 27.54C69.1334 27.54 72.0194 31.388 72.0194 36.9C72.0194 42.412 69.1334 46.26 64.9994 46.26ZM64.9994 43.27C67.2874 43.27 68.7694 40.748 68.7694 36.9C68.7694 33.052 67.2874 30.53 64.9994 30.53C62.7114 30.53 61.2294 33.052 61.2294 36.9C61.2294 40.748 62.7114 43.27 64.9994 43.27ZM85.7892 27.8V40.28C85.7892 43.738 83.1372 46.26 79.5492 46.26C75.9612 46.26 73.3092 43.738 73.3092 40.28V27.8H76.5592V40.28C76.5592 42.022 77.8072 43.27 79.5492 43.27C81.3172 43.27 82.5392 42.022 82.5392 40.28V27.8H85.7892ZM97.7911 41.19V27.8H100.781V46H96.4911L91.1351 30.946H91.0311V46H88.0411V27.8H92.9291L97.6871 41.19H97.7911ZM107.817 46V30.66H102.669V27.8H116.189V30.66H111.067V46H107.817ZM140.479 41.06H143.625C143.313 44.102 140.843 46.26 137.671 46.26C133.459 46.26 130.547 42.438 130.547 36.9C130.547 31.362 133.459 27.54 137.619 27.54C140.661 27.54 143.053 29.568 143.495 32.48H140.349C140.011 31.284 138.945 30.53 137.645 30.53C135.305 30.53 133.797 33.026 133.797 36.9C133.797 40.8 135.331 43.27 137.723 43.27C139.153 43.27 140.219 42.412 140.479 41.06ZM152.298 46.26C148.164 46.26 145.278 42.412 145.278 36.9C145.278 31.388 148.164 27.54 152.298 27.54C156.432 27.54 159.318 31.388 159.318 36.9C159.318 42.412 156.432 46.26 152.298 46.26ZM152.298 43.27C154.586 43.27 156.068 40.748 156.068 36.9C156.068 33.052 154.586 30.53 152.298 30.53C150.01 30.53 148.528 33.052 148.528 36.9C148.528 40.748 150.01 43.27 152.298 43.27ZM160.946 46V27.8H166.276C170.748 27.8 173.816 31.492 173.816 36.9C173.816 42.308 170.748 46 166.276 46H160.946ZM164.196 43.14H166.276C168.902 43.14 170.566 40.722 170.566 36.9C170.566 33.078 168.902 30.66 166.276 30.66H164.196V43.14ZM177.108 46V27.8H188.08V30.66H180.358V35.132H187.118V37.992H180.358V43.14H188.08V46H177.108ZM193.478 41.97C193.478 40.592 194.596 39.5 195.948 39.5C197.326 39.5 198.418 40.592 198.418 41.97C198.418 43.322 197.326 44.44 195.948 44.44C194.596 44.44 193.478 43.322 193.478 41.97ZM193.478 32.35C193.478 30.972 194.596 29.88 195.948 29.88C197.326 29.88 198.418 30.972 198.418 32.35C198.418 33.702 197.326 34.82 195.948 34.82C194.596 34.82 193.478 33.702 193.478 32.35Z" fill="#24223C"/>
</svg>
