<svg width="1517" height="194" viewBox="0 0 1517 194" fill="none" xmlns="http://www.w3.org/2000/svg">
<path d="M0 194V187.071H13.8539V180.143H20.7808V13.8571H13.8539V6.92857H0V0H124.685V27.7143H117.758V13.8571H110.831V6.92857H41.5616V13.8571H34.6347V69.2857H90.0502V62.3571H96.9772V48.5H103.904V97H96.9772V83.1429H90.0502V76.2143H34.6347V180.143H41.5616V187.071H110.831V180.143H124.685V173.214H131.612V159.357H138.539V187.071H131.612V194H0Z" fill="#675BF4"/>
<path d="M152.393 194V187.071H166.247V180.143H173.174V166.286H180.1V159.357H187.027V145.5H193.954V138.571H200.881V124.714H207.808V117.786H214.735V103.929H221.662V90.0714H214.735V76.2143H207.808V69.2857H200.881V55.4286H193.954V48.5H187.027V34.6429H180.1V27.7143H173.174V13.8571H166.247V6.92857H152.393V0H207.808V6.92857H193.954V13.8571H187.027V20.7857H193.954V27.7143H200.881V41.5714H207.808V48.5H214.735V62.3571H221.662V69.2857H228.589V83.1429H235.516V76.2143H242.443V62.3571H249.37V55.4286H256.297V41.5714H263.224V34.6429H270.151V20.7857H277.078V13.8571H270.151V6.92857H256.297V0H304.785V6.92857H290.931V13.8571H284.005V27.7143H277.078V41.5714H270.151V48.5H263.224V62.3571H256.297V69.2857H249.37V83.1429H242.443V103.929H249.37V110.857H256.297V124.714H263.224V131.643H270.151V145.5H277.078V152.429H284.005V166.286H290.931V180.143H297.858V187.071H311.712V194H256.297V187.071H270.151V180.143H277.078V173.214H270.151V159.357H263.224V152.429H256.297V138.571H249.37V131.643H242.443V117.786H235.516V110.857H221.662V124.714H214.735V131.643H207.808V145.5H200.881V152.429H193.954V166.286H187.027V173.214H180.1V180.143H187.027V187.071H200.881V194H152.393Z" fill="#675BF4"/>
<path d="M325.566 194V187.071H339.42V180.143H346.347V13.8571H339.42V6.92857H325.566V0H429.47V6.92857H443.324V13.8571H450.251V20.7857H457.178V34.6429H464.105V76.2143H457.178V90.0714H450.251V97H443.324V103.929H436.397V110.857H380.982V103.929H374.055V97H387.909V103.929H422.543V97H436.397V83.1429H443.324V69.2857H450.251V41.5714H443.324V27.7143H436.397V20.7857H429.47V13.8571H415.616V6.92857H367.128V13.8571H360.201V180.143H367.128V187.071H380.982V194H325.566Z" fill="#675BF4"/>
<path d="M477.959 194V187.071H491.813V180.143H498.74V13.8571H491.813V6.92857H477.959V0H602.644V27.7143H595.717V13.8571H588.79V6.92857H519.521V13.8571H512.594V69.2857H568.009V62.3571H574.936V48.5H581.863V97H574.936V83.1429H568.009V76.2143H512.594V180.143H519.521V187.071H588.79V180.143H602.644V173.214H609.571V159.357H616.498V187.071H609.571V194H477.959Z" fill="#675BF4"/>
<path d="M727.329 69.2857V62.3571H741.183V48.5H748.11V34.6429H741.183V20.7857H734.256V13.8571H720.402V6.92857H671.913V13.8571H664.986V62.3571H671.913V69.2857H727.329ZM630.352 194V187.071H644.205V180.143H651.132V13.8571H644.205V6.92857H630.352V0H727.329V6.92857H741.183V13.8571H748.11V20.7857H755.036V34.6429H761.963V48.5H755.036V62.3571H748.11V69.2857H741.183V76.2143H720.402V83.1429H727.329V97H734.256V110.857H741.183V124.714H748.11V138.571H755.036V152.429H761.963V166.286H768.89V180.143H775.817V187.071H789.671V194H734.256V187.071H748.11V180.143H755.036V173.214H748.11V159.357H741.183V145.5H734.256V131.643H727.329V117.786H720.402V103.929H713.475V90.0714H706.548V76.2143H671.913V83.1429H664.986V180.143H671.913V187.071H685.767V194H630.352Z" fill="#675BF4"/>
<path d="M803.525 194V187.071H817.379V180.143H824.306V13.8571H817.379V6.92857H803.525V0H858.941V6.92857H845.087V13.8571H838.16V180.143H845.087V187.071H858.941V194H803.525Z" fill="#675BF4"/>
<path d="M872.794 194V187.071H886.648V180.143H893.575V13.8571H886.648V6.92857H872.794V0H997.479V27.7143H990.552V13.8571H983.626V6.92857H914.356V13.8571H907.429V69.2857H962.845V62.3571H969.772V48.5H976.699V97H969.772V83.1429H962.845V76.2143H907.429V180.143H914.356V187.071H983.626V180.143H997.479V173.214H1004.41V159.357H1011.33V187.071H1004.41V194H872.794Z" fill="#675BF4"/>
<path d="M1025.19 194V187.071H1039.04V180.143H1045.97V13.8571H1039.04V6.92857H1025.19V0H1059.82V6.92857H1066.75V13.8571H1073.68V27.7143H1080.6V34.6429H1087.53V48.5H1094.46V55.4286H1101.38V69.2857H1108.31V76.2143H1115.24V90.0714H1122.16V97H1129.09V110.857H1136.02V117.786H1142.95V131.643H1149.87V138.571H1156.8V152.429H1163.73V159.357H1170.65V173.214H1177.58V180.143H1184.51V13.8571H1177.58V6.92857H1163.73V0H1212.21V6.92857H1198.36V13.8571H1191.43V180.143H1198.36V187.071H1212.21V194H1170.65V187.071H1163.73V173.214H1156.8V166.286H1149.87V152.429H1142.95V145.5H1136.02V131.643H1129.09V124.714H1122.16V110.857H1115.24V103.929H1108.31V90.0714H1101.38V83.1429H1094.46V69.2857H1087.53V62.3571H1080.6V48.5H1073.68V41.5714H1066.75V27.7143H1059.82V20.7857H1052.89V180.143H1059.82V187.071H1073.68V194H1025.19Z" fill="#675BF4"/>
<path d="M1288.41 194V187.071H1267.63V180.143H1253.78V173.214H1246.85V166.286H1239.92V152.429H1233V131.643H1226.07V62.3571H1233V41.5714H1239.92V27.7143H1246.85V20.7857H1253.78V13.8571H1267.63V6.92857H1288.41V0H1336.9V6.92857H1350.75V13.8571H1364.61V48.5H1357.68V41.5714H1350.75V27.7143H1343.83V20.7857H1336.9V13.8571H1323.05V6.92857H1295.34V13.8571H1274.56V20.7857H1267.63V27.7143H1260.7V34.6429H1253.78V48.5H1246.85V69.2857H1239.92V124.714H1246.85V145.5H1253.78V159.357H1260.7V166.286H1267.63V173.214H1274.56V180.143H1295.34V187.071H1323.05V180.143H1336.9V173.214H1343.83V166.286H1350.75V152.429H1357.68V145.5H1364.61V180.143H1350.75V187.071H1336.9V194H1288.41Z" fill="#675BF4"/>
<path d="M1378.46 194V187.071H1392.32V180.143H1399.24V13.8571H1392.32V6.92857H1378.46V0H1503.15V27.7143H1496.22V13.8571H1489.29V6.92857H1420.02V13.8571H1413.1V69.2857H1468.51V62.3571H1475.44V48.5H1482.37V97H1475.44V83.1429H1468.51V76.2143H1413.1V180.143H1420.02V187.071H1489.29V180.143H1503.15V173.214H1510.07V159.357H1517V187.071H1510.07V194H1378.46Z" fill="#675BF4"/>
</svg>
