<svg width="270" height="263" viewBox="0 0 270 263" fill="none" xmlns="http://www.w3.org/2000/svg">
<path d="M41.6555 56.3901C36.1946 55.1586 33.4669 54.1556 28.0061 52.5369V48.6034C28.0061 46.7709 27.8301 45.5456 27.4836 44.9428C27.1372 44.34 26.5542 43.9171 25.7403 43.6843C24.8549 43.4321 24.1895 43.5889 23.7331 44.1496C23.2766 44.7103 23.0511 45.6746 23.0511 47.0528C23.0511 48.8234 23.3206 50.2277 23.8156 51.2562C24.305 52.2693 25.6853 53.7358 27.9676 55.6761C32.3341 59.5552 37.2395 63.4244 40.3302 68.1994C42.0515 70.8624 42.8764 74.8788 42.8764 80.0821C42.8764 83.8607 42.4034 86.5536 41.463 88.1298C40.5226 89.706 38.6968 90.7719 36.0022 91.2137C33.302 91.6556 30.1618 91.2641 26.5762 90.2304C22.6442 89.0947 19.2841 87.6026 16.5069 85.7591C13.7242 83.9157 11.9039 82.0702 11.046 79.8817C10.1826 77.6934 9.75368 74.635 9.75368 70.6551V67.1811C15.2146 67.1531 17.9422 67.7947 23.4031 69.2276V75.6802C23.4031 77.6675 23.5956 78.9958 23.9805 79.665C24.3655 80.3341 25.0474 80.8068 26.0208 81.0832C26.9942 81.3596 27.7256 81.2171 28.2041 80.6405C28.6825 80.0587 28.919 79.0633 28.919 77.6437C28.919 74.5207 28.468 72.3299 27.5551 71.113C26.6367 69.8806 24.3215 67.5486 20.6809 64.4562C17.0293 61.3538 14.6096 59.4315 13.4218 58.297C12.2339 57.1625 11.2495 55.6991 10.4741 53.8756C9.69319 52.0523 9.30273 49.7469 9.30273 46.9284C9.30273 42.8659 9.85267 39.8721 10.9635 38.0244C12.0689 36.1767 13.8562 34.8069 16.3199 34.1268C18.7836 33.4518 21.7643 33.5881 25.2564 34.5615C29.073 35.6323 32.3231 37.2503 35.0123 39.1935C37.7015 41.1366 39.4778 43.045 40.3522 45.0163C41.2266 46.9876 41.661 50.0717 41.661 54.2839V56.3797L41.6555 56.3901Z" fill="#293AD4"/>
<path d="M95.3073 31.5722C93.1076 49.53 90.9298 67.4925 88.7631 85.4548C82.4828 87.0465 76.549 88.9414 70.4117 91.0054C68.4594 82.2761 67.1616 73.4264 65.9627 64.5697C64.7143 74.2146 63.2735 83.8373 61.8657 93.4645C54.964 94.6236 50.526 94.7051 43.6243 93.7993C41.419 75.5869 39.2303 57.3741 37.047 39.1613C42.7554 40.7496 45.615 41.5076 51.3234 41.6351C51.8403 47.8045 52.3573 53.974 52.8742 60.1435C53.3746 66.0861 53.8751 72.0287 54.3755 77.9714C55.1125 65.6412 56.7513 53.3513 58.4396 41.0915C63.5815 40.2383 68.8169 38.5936 73.7003 36.8469C74.3382 42.4876 74.8112 48.1469 75.3061 53.8005C75.8451 60.3464 76.3895 66.8922 76.9284 73.4381C77.8468 60.3871 79.2052 47.4106 81.031 34.4256C86.7393 32.6535 89.599 31.8215 95.3073 31.567V31.5722Z" fill="#293AD4"/>
<path d="M105.399 32.4503V85.5005C99.5198 84.3489 96.5832 84.1653 90.7043 85.1043V32.0541C96.5832 31.11 99.5198 31.2987 105.399 32.4503Z" fill="#293AD4"/>
<path d="M149.135 38.7349V91.7851C143.999 93.0047 141.425 93.3771 136.289 92.9965C136.283 81.0569 136.278 69.1172 136.272 57.1827C134.578 68.8954 132.873 80.6136 131.158 92.3216C127.512 91.6503 125.691 91.1366 122.045 90.073C120.247 77.872 118.449 65.6659 116.65 53.4649C116.645 65.126 116.639 76.7923 116.634 88.4534C111.497 86.9062 108.924 86.0604 103.787 85.2048V32.1598C110.288 33.3207 116.524 35.3794 122.804 37.2464C123.371 40.5965 123.948 44.5193 124.547 49.0148C125.383 54.6415 125.801 57.4472 126.632 63.0585C127.759 55.0573 128.886 47.0613 130.008 39.0602C136.333 40.4256 142.8 40.3276 149.13 38.7402L149.135 38.7349Z" fill="#293AD4"/>
<path d="M192.872 30.9685V84.0187C187.735 82.9618 185.161 82.658 180.025 83.1859L180.009 47.3721C178.293 59.586 176.588 71.7996 174.894 84.0131C171.248 84.7976 169.428 85.373 165.782 86.5653C163.983 75.5051 162.185 64.4397 160.387 53.3795C160.381 65.0458 160.376 76.7121 160.37 88.3784C155.234 90.1194 152.66 91.0648 147.524 92.1347V39.0949C154.019 37.6593 160.255 35.3613 166.541 33.274C167.107 36.2834 167.684 39.8604 168.284 44.0049C169.12 49.1464 169.538 51.7197 170.368 56.882C171.49 48.3286 172.617 39.7802 173.745 31.2267C180.08 29.6547 186.547 29.5876 192.866 30.9686L192.872 30.9685Z" fill="#293AD4"/>
<path d="M205.96 34.543C205.96 52.2281 205.96 69.908 205.96 87.5931C200.081 85.8169 197.145 84.7558 191.266 83.7126V30.6624C197.145 31.7056 200.081 32.7719 205.96 34.543Z" fill="#293AD4"/>
<path d="M237.169 36.8608V89.911C232.016 91.229 229.442 91.6995 224.289 91.4689C221.672 83.1131 219.153 74.7246 216.645 66.3359C216.645 74.3732 216.645 82.4156 216.645 90.4529C211.729 89.4333 209.271 88.5957 204.36 87.1063V34.0561C209.276 35.5403 211.734 36.3779 216.645 37.4027C219.34 45.7261 222.051 54.044 224.883 62.3287V38.4388C229.8 38.5808 232.258 38.1124 237.169 36.8608Z" fill="#293AD4"/>
<path d="M269.285 47.9013C263.406 48.1331 260.47 49.0078 254.591 50.845V46.0288C254.591 42.9935 254.453 41.1377 254.173 40.4563C253.893 39.7801 253.233 39.6064 252.182 39.9509C251.275 40.2514 250.659 40.7841 250.334 41.5489C250.01 42.3136 249.845 44.0511 249.845 46.7612C249.845 55.2476 249.845 63.7339 249.845 72.2203C249.845 74.6 250.01 76.1146 250.334 76.7591C250.659 77.4035 251.313 77.5619 252.287 77.2394C253.359 76.8894 254.085 76.2308 254.47 75.2584C254.855 74.2861 255.047 72.5687 255.047 70.1013V63.8088C253.86 64.1764 253.266 64.368 252.078 64.7563C252.078 61.5301 252.078 59.9195 252.078 56.6932C257.715 54.9689 263.324 53.1728 269.285 52.9446V81.4184C265.59 81.5636 263.742 81.9176 260.052 82.8216C259.507 81.4327 259.238 80.7459 258.693 79.3673C257.693 81.2698 256.428 82.8571 254.904 84.1498C253.381 85.4425 251.583 86.4459 249.51 87.1447C247.04 87.9798 244.731 88.2081 242.575 87.7676C240.419 87.3271 238.786 86.3918 237.664 85.0289C236.548 83.6608 235.849 82.0786 235.569 80.3183C235.288 78.5581 235.151 75.8505 235.151 72.2061V56.4465C235.151 51.3773 235.442 47.6347 236.025 45.203C236.608 42.7713 238.274 40.2733 241.035 37.528C243.79 34.7777 247.359 32.5751 251.737 31.1268C256.043 29.7005 259.617 29.5316 262.455 30.6152C265.293 31.6987 267.146 33.523 268.004 35.7373C268.867 37.9566 269.296 41.2627 269.296 45.6092V47.9011L269.285 47.9013Z" fill="#293AD4"/>
<path d="M9.76468 97.3065C21.4453 98.1967 31.9821 102.097 43.2228 104.843C50.295 105.968 57.0262 106.071 64.0929 106.034C68.8939 106.008 72.6169 106.657 75.0641 108.342C77.5114 110.031 79.2162 112.566 80.0356 115.844C81.3334 121.039 81.3664 126.675 81.3389 132.065V142.508C81.3884 148.35 81.0255 154.556 78.8147 160.048C77.1924 164.078 74.0358 167.894 69.5428 171.224C64.5054 174.955 58.3296 177.418 51.9063 177.443C48.3372 177.42 46.5554 177.154 42.9918 176.419V224.715C31.8336 221.962 21.3683 218.107 9.77018 217.225V97.3064L9.76468 97.3065ZM42.9863 125.31V155.828C43.9322 156.074 44.7461 156.239 45.4336 156.351C48.4857 156.842 50.603 156.209 51.7853 154.809C52.9677 153.414 53.5616 150.446 53.5616 146.001V136.152C53.5616 132.053 52.8797 129.433 51.5104 128.178C50.141 126.923 47.3034 126.196 42.9863 125.31Z" fill="#293AD4"/>
<path d="M149.828 172.956C149.839 181.54 149.762 190.25 148.921 198.767C148.437 203.638 145.967 209.507 143.24 213.521C140.65 217.332 135.189 221.458 130.338 222.394C124.047 223.609 117.294 222.045 111.398 220.491C105.36 218.898 99.1129 216.897 92.9756 215.208C87.5477 213.717 83.1537 211.96 79.8376 208.821C76.5215 205.686 74.5252 201.8 73.9203 197.093C72.8314 188.678 73.0129 180.008 72.9744 171.491V150.972C72.9524 142.362 73.0074 133.612 73.8818 125.073C74.4152 119.906 76.758 113.87 79.5626 109.436C82.7138 104.454 87.1573 99.7986 92.4641 96.7898C98.442 93.4022 105.432 94.1566 111.404 95.5336C117.717 96.987 124.239 100.357 129.832 103.811C134.529 106.713 139.335 109.857 142.97 114.069C146.275 117.906 148.294 121.973 148.888 126.737C149.938 135.178 149.795 143.878 149.834 152.431V172.95L149.828 172.956ZM116.606 130.38C116.606 124.8 116.276 121.13 115.622 119.382C114.962 117.629 113.609 116.441 111.558 115.874C109.82 115.395 108.495 115.703 107.571 116.753C106.653 117.802 106.191 121.424 106.191 127.598V183.595C106.191 190.559 106.493 194.915 107.098 196.68C107.703 198.445 109.111 199.575 111.321 200.18C113.582 200.799 115.028 200.303 115.66 198.613C116.293 196.924 116.606 192.551 116.606 185.49V130.38Z" fill="#293AD4"/>
<path d="M221.16 172.544C221.116 181.021 221.226 189.614 220.253 198.015C219.686 202.914 217.756 207.27 214.572 210.658C211.388 214.046 207.038 215.963 201.671 216.526C195.5 217.171 188.736 216.408 182.731 216.564C176.874 216.718 170.346 217.731 164.308 217.465C158.907 217.229 154.486 215.539 151.17 212.235C147.854 208.93 145.857 204.651 145.253 199.831C144.18 191.348 144.345 182.632 144.307 174.048V153.529C144.285 144.981 144.34 136.272 145.214 127.8C145.725 122.846 148.112 117.031 150.895 112.829C154.288 107.713 158.731 102.971 163.796 99.1609C169.213 95.0867 176.318 91.3893 182.736 91.6071C189.863 91.8479 194.994 94.0147 201.165 97.8968C206.329 101.152 210.849 106.102 214.303 111.113C217.14 115.227 219.675 120.967 220.22 125.974C221.155 134.573 221.127 143.343 221.166 152.025V172.544L221.16 172.544ZM187.939 125.163C187.939 119.583 187.609 115.975 186.954 114.361C186.294 112.747 184.941 111.848 182.89 111.896C181.152 111.938 179.827 112.722 178.903 114.101C177.985 115.481 177.523 119.278 177.523 125.452V181.45C177.523 188.413 177.825 192.656 178.43 194.199C179.035 195.741 180.443 196.34 182.654 196.269C184.914 196.196 186.36 195.406 186.993 193.582C187.625 191.759 187.939 187.329 187.939 180.267V125.158V125.163Z" fill="#293AD4"/>
<path d="M249.801 97.0556V192.976C256.301 190.694 263.049 188.671 270 188.445V212.443C251.374 214.453 235.673 224.234 216.579 221.477V101.558C228.771 103.399 238.17 100.96 249.801 97.0556Z" fill="#293AD4"/>
<path d="M33.3528 64.7016C27.8919 63.4701 25.1642 62.4671 19.7033 60.8484V56.9149C19.7033 55.0824 19.5274 53.8571 19.1809 53.2543C18.8344 52.6516 18.2515 52.2286 17.4376 51.9958C16.5522 51.7436 15.8868 51.9004 15.4303 52.4611C14.9739 53.0218 14.7484 53.9861 14.7484 55.3644C14.7484 57.1349 15.0179 58.5392 15.5128 59.5677C16.0023 60.5808 17.3826 62.0473 19.6648 63.9876C24.0313 67.8667 28.9368 71.736 32.0274 76.5109C33.7487 79.1739 34.5736 83.1903 34.5736 88.3936C34.5736 92.1722 34.1007 94.8651 33.1603 96.4413C32.2199 98.0175 30.3941 99.0835 27.6994 99.5252C24.9992 99.9671 21.8591 99.5757 18.2735 98.542C14.3415 97.4062 10.9813 95.9141 8.20417 94.0707C5.42149 92.2273 3.6012 90.3817 2.7433 88.1933C1.8799 86.0049 1.45095 82.9466 1.45095 78.9666V75.4926C6.91182 75.4646 9.6395 76.1063 15.1004 77.5391V83.9917C15.1004 85.9791 15.2929 87.3073 15.6778 87.9765C16.0628 88.6456 16.7447 89.1184 17.7181 89.3947C18.6915 89.6711 19.4229 89.5286 19.9013 88.952C20.3798 88.3702 20.6162 87.3748 20.6162 85.9552C20.6162 82.8322 20.1653 80.6415 19.2524 79.4245C18.334 78.1921 16.0188 75.8601 12.3782 72.7678C8.72661 69.6653 6.30689 67.743 5.11902 66.6085C3.93116 65.474 2.94678 64.0106 2.17136 62.1871C1.39046 60.3638 1 58.0584 1 55.2399C1 51.1774 1.54994 48.1836 2.66081 46.3359C3.76618 44.4882 5.55347 43.1185 8.01719 42.4383C10.4809 41.7633 13.4616 41.8996 16.9537 42.8731C20.7702 43.9438 24.0203 45.5618 26.7095 47.505C29.3987 49.4482 31.175 51.3565 32.0494 53.3278C32.9238 55.2991 33.3583 58.3832 33.3583 62.5954V64.6912L33.3528 64.7016Z" fill="#39C9FE"/>
<path d="M87.0046 39.8837C84.8048 57.8415 82.6271 75.804 80.4603 93.7664C74.1801 95.358 68.2462 97.253 62.1089 99.3169C60.1567 90.5876 58.8588 81.7379 57.66 72.8812C56.4116 82.5261 54.9708 92.1488 53.5629 101.776C46.6612 102.935 42.2232 103.017 35.3215 102.111C33.1163 83.8984 30.9275 65.6857 28.7443 47.4728C34.4526 49.0612 37.3123 49.8191 43.0207 49.9466C43.5376 56.1161 44.0545 62.2855 44.5715 68.455C45.0719 74.3976 45.5724 80.3403 46.0728 86.2829C46.8097 73.9528 48.4485 61.6629 50.1368 49.403C55.2787 48.5498 60.5141 46.9051 65.3976 45.1584C66.0355 50.7992 66.5084 56.4584 67.0034 62.112C67.5423 68.6579 68.0868 75.2037 68.6257 81.7496C69.5441 68.6986 70.9024 55.7221 72.7282 42.7371C78.4366 40.965 81.2962 40.133 87.0046 39.8785V39.8837Z" fill="#39C9FE"/>
<path d="M97.0959 40.7618V93.812C91.2171 92.6604 88.2804 92.4768 82.4016 93.4158V40.3657C88.2804 39.4215 91.2171 39.6102 97.0959 40.7618Z" fill="#39C9FE"/>
<path d="M140.832 47.0464V100.097C135.696 101.316 133.122 101.689 127.986 101.308C127.98 89.3684 127.975 77.4287 127.969 65.4942C126.276 77.207 124.571 88.9251 122.855 100.633C119.209 99.9619 117.389 99.4481 113.743 98.3845C111.944 86.1835 110.146 73.9774 108.348 61.7764C108.342 73.4375 108.337 85.1038 108.331 96.7649C103.195 95.2177 100.621 94.3719 95.4846 93.5164V40.4714C101.985 41.6322 108.221 43.691 114.501 45.5579C115.068 48.908 115.645 52.8308 116.245 57.3263C117.081 62.953 117.499 65.7587 118.329 71.37C119.456 63.3689 120.584 55.3728 121.706 47.3717C128.03 48.7371 134.497 48.6391 140.827 47.0517L140.832 47.0464Z" fill="#39C9FE"/>
<path d="M184.569 39.28V92.3302C179.432 91.2733 176.859 90.9696 171.722 91.4975L171.706 55.6836C169.99 67.8975 168.285 80.1112 166.591 92.3247C162.945 93.1091 161.125 93.6845 157.479 94.8768C155.681 83.8166 153.882 72.7512 152.084 61.6911C152.079 73.3573 152.073 85.0236 152.068 96.6899C146.931 98.4309 144.357 99.3763 139.221 100.446V47.4064C145.716 45.9708 151.952 43.6728 158.238 41.5856C158.804 44.5949 159.382 48.172 159.981 52.3164C160.817 57.4579 161.235 60.0312 162.065 65.1935C163.187 56.6401 164.315 48.0917 165.442 39.5382C171.777 37.9662 178.245 37.8991 184.563 39.2801L184.569 39.28Z" fill="#39C9FE"/>
<path d="M197.657 42.8545C197.657 60.5396 197.657 78.2195 197.657 95.9047C191.778 94.1284 188.842 93.0673 182.963 92.0241V38.974C188.842 40.0172 191.778 41.0834 197.657 42.8545Z" fill="#39C9FE"/>
<path d="M228.866 45.1723V98.2225C223.713 99.5405 221.14 100.011 215.987 99.7804C213.369 91.4247 210.85 83.0362 208.343 74.6474C208.343 82.6847 208.343 90.7271 208.343 98.7644C203.426 97.7448 200.968 96.9073 196.057 95.4178V42.3677C200.973 43.8518 203.432 44.6894 208.343 45.7143C211.037 54.0376 213.748 62.3555 216.581 70.6402V46.7503C221.497 46.8923 223.955 46.4239 228.866 45.1723Z" fill="#39C9FE"/>
<path d="M260.983 56.2128C255.104 56.4446 252.167 57.3193 246.288 59.1565V54.3403C246.288 51.3051 246.151 49.4493 245.87 48.7679C245.59 48.0916 244.93 47.9179 243.879 48.2624C242.972 48.5629 242.356 49.0956 242.032 49.8604C241.707 50.6252 241.542 52.3626 241.542 55.0727C241.542 63.5591 241.542 72.0455 241.542 80.5318C241.542 82.9115 241.707 84.4261 242.032 85.0706C242.356 85.7151 243.011 85.8734 243.984 85.551C245.056 85.2009 245.782 84.5423 246.167 83.57C246.552 82.5976 246.745 80.8803 246.745 78.4128V72.1203C245.557 72.488 244.963 72.6795 243.775 73.0678C243.775 69.8416 243.775 68.231 243.775 65.0048C249.412 63.2804 255.021 61.4843 260.983 61.2561V89.7299C257.287 89.8752 255.439 90.2291 251.749 91.1331C251.205 89.7442 250.935 89.0574 250.391 87.6788C249.39 89.5813 248.125 91.1687 246.602 92.4613C245.078 93.754 243.28 94.7575 241.207 95.4563C238.738 96.2914 236.428 96.5196 234.272 96.0791C232.116 95.6386 230.483 94.7033 229.361 93.3405C228.245 91.9724 227.546 90.3901 227.266 88.6299C226.985 86.8696 226.848 84.1621 226.848 80.5177V64.758C226.848 59.6889 227.139 55.9462 227.722 53.5145C228.305 51.0828 229.972 48.5848 232.732 45.8395C235.487 43.0892 239.057 40.8866 243.434 39.4383C247.74 38.012 251.315 37.8431 254.152 38.9267C256.99 40.0102 258.843 41.8346 259.701 44.0488C260.565 46.2681 260.994 49.5743 260.994 53.9207V56.2126L260.983 56.2128Z" fill="#39C9FE"/>
<path d="M1.46195 105.618C13.1426 106.508 23.6794 110.408 34.9201 113.155C41.9923 114.279 48.7235 114.383 55.7902 114.346C60.5911 114.32 64.3142 114.969 66.7614 116.653C69.2086 118.343 70.9134 120.877 71.7328 124.155C73.0307 129.35 73.0637 134.987 73.0362 140.376V150.819C73.0857 156.662 72.7227 162.868 70.512 168.36C68.8897 172.39 65.733 176.206 61.2401 179.535C56.2026 183.267 50.0268 185.729 43.6036 185.754C40.0345 185.732 38.2527 185.465 34.6891 184.73V233.026C23.5309 230.273 13.0656 226.418 1.46745 225.537V105.618L1.46195 105.618ZM34.6836 133.621V164.139C35.6295 164.385 36.4434 164.551 37.1308 164.662C40.183 165.153 42.3002 164.521 43.4826 163.121C44.665 161.726 45.2589 158.757 45.2589 154.313V144.464C45.2589 140.365 44.577 137.745 43.2076 136.49C41.8383 135.235 39.0006 134.507 34.6836 133.621Z" fill="#39C9FE"/>
<path d="M141.525 181.267C141.536 189.851 141.459 198.561 140.618 207.078C140.134 211.95 137.665 217.818 134.937 221.833C132.347 225.643 126.886 229.77 122.036 230.705C115.744 231.92 108.991 230.356 103.096 228.802C97.0574 227.21 90.8101 225.208 84.6729 223.519C79.245 222.029 74.851 220.272 71.5349 217.132C68.2188 213.998 66.2225 210.111 65.6176 205.404C64.5287 196.99 64.7102 188.319 64.6717 179.803V159.284C64.6497 150.674 64.7047 141.923 65.5791 133.385C66.1125 128.218 68.4552 122.182 71.2599 117.748C74.411 112.765 78.8545 108.11 84.1614 105.101C90.1392 101.714 97.1289 102.468 103.101 103.845C109.414 105.299 115.937 108.668 121.53 112.122C126.226 115.025 131.033 118.168 134.668 122.381C137.973 126.217 139.991 130.284 140.585 135.048C141.635 143.489 141.492 152.19 141.531 160.743V181.262L141.525 181.267ZM108.304 138.691C108.304 133.111 107.974 129.442 107.319 127.694C106.659 125.94 105.306 124.752 103.255 124.186C101.517 123.707 100.192 124.015 99.2682 125.064C98.3498 126.114 97.8878 129.736 97.8878 135.909V191.907C97.8878 198.871 98.1903 203.227 98.7952 204.992C99.4002 206.756 100.808 207.887 103.019 208.491C105.279 209.111 106.725 208.614 107.358 206.925C107.99 205.236 108.304 200.863 108.304 193.801V138.691Z" fill="#39C9FE"/>
<path d="M212.858 180.856C212.814 189.333 212.924 197.925 211.95 206.327C211.384 211.225 209.453 215.581 206.269 218.969C203.085 222.357 198.735 224.275 193.368 224.838C187.198 225.483 180.433 224.719 174.428 224.876C168.571 225.03 162.043 226.043 156.005 225.777C150.605 225.54 146.183 223.851 142.867 220.546C139.551 217.241 137.555 212.963 136.95 208.142C135.877 199.66 136.042 190.943 136.004 182.36V161.841C135.982 153.293 136.037 144.583 136.911 136.112C137.423 131.157 139.809 125.342 142.592 121.141C145.985 116.025 150.429 111.282 155.494 107.472C160.911 103.398 168.016 99.7009 174.433 99.9186C181.561 100.159 186.692 102.326 192.862 106.208C198.026 109.464 202.546 114.414 206 119.425C208.838 123.538 211.373 129.278 211.917 134.286C212.852 142.884 212.825 151.655 212.863 160.337V180.856L212.858 180.856ZM179.636 133.474C179.636 127.894 179.306 124.287 178.651 122.673C177.992 121.059 176.639 120.16 174.587 120.208C172.85 120.25 171.524 121.033 170.6 122.413C169.682 123.792 169.22 127.59 169.22 133.764V189.761C169.22 196.725 169.523 200.968 170.127 202.51C170.732 204.053 172.14 204.652 174.351 204.58C176.611 204.508 178.058 203.717 178.69 201.894C179.322 200.07 179.636 195.641 179.636 188.579V133.469V133.474Z" fill="#39C9FE"/>
<path d="M241.498 105.367V201.288C247.998 199.006 254.746 196.982 261.697 196.757V220.755C243.071 222.764 227.37 232.545 208.277 229.788V109.869C220.469 111.71 229.867 109.272 241.498 105.367Z" fill="#39C9FE"/>
<path d="M33.3528 64.7016C27.8919 63.4701 25.1642 62.4671 19.7033 60.8484V56.9149C19.7033 55.0824 19.5274 53.8571 19.1809 53.2543C18.8344 52.6516 18.2515 52.2286 17.4376 51.9958C16.5522 51.7436 15.8868 51.9004 15.4303 52.4611C14.9739 53.0218 14.7484 53.9861 14.7484 55.3644C14.7484 57.1349 15.0179 58.5392 15.5128 59.5677C16.0023 60.5808 17.3826 62.0473 19.6648 63.9876C24.0313 67.8667 28.9368 71.736 32.0274 76.5109C33.7487 79.1739 34.5736 83.1903 34.5736 88.3936C34.5736 92.1722 34.1007 94.8651 33.1603 96.4413C32.2199 98.0175 30.3941 99.0835 27.6994 99.5252C24.9992 99.9671 21.8591 99.5757 18.2735 98.542C14.3415 97.4062 10.9813 95.9141 8.20417 94.0707C5.42149 92.2273 3.6012 90.3817 2.7433 88.1933C1.8799 86.0049 1.45095 82.9466 1.45095 78.9666V75.4926C6.91182 75.4646 9.6395 76.1063 15.1004 77.5391V83.9917C15.1004 85.9791 15.2929 87.3073 15.6778 87.9765C16.0628 88.6456 16.7447 89.1184 17.7181 89.3947C18.6915 89.6711 19.4229 89.5286 19.9013 88.952C20.3798 88.3702 20.6162 87.3748 20.6162 85.9552C20.6162 82.8322 20.1653 80.6415 19.2524 79.4245C18.334 78.1921 16.0188 75.8601 12.3782 72.7678C8.72661 69.6653 6.30689 67.743 5.11902 66.6085C3.93116 65.474 2.94678 64.0106 2.17136 62.1871C1.39046 60.3638 1 58.0584 1 55.2399C1 51.1774 1.54994 48.1836 2.66081 46.3359C3.76618 44.4882 5.55347 43.1185 8.01719 42.4383C10.4809 41.7633 13.4616 41.8996 16.9537 42.8731C20.7702 43.9438 24.0203 45.5618 26.7095 47.505C29.3987 49.4482 31.175 51.3565 32.0494 53.3278C32.9238 55.2991 33.3583 58.3832 33.3583 62.5954V64.6912L33.3528 64.7016Z" stroke="#293AD4" stroke-width="1.5"/>
<path d="M87.0046 39.8837C84.8048 57.8415 82.6271 75.804 80.4603 93.7664C74.1801 95.358 68.2462 97.253 62.1089 99.3169C60.1567 90.5876 58.8588 81.7379 57.66 72.8812C56.4116 82.5261 54.9708 92.1488 53.5629 101.776C46.6612 102.935 42.2232 103.017 35.3215 102.111C33.1163 83.8984 30.9275 65.6857 28.7443 47.4728C34.4526 49.0612 37.3123 49.8191 43.0207 49.9466C43.5376 56.1161 44.0545 62.2855 44.5715 68.455C45.0719 74.3976 45.5724 80.3403 46.0728 86.2829C46.8097 73.9528 48.4485 61.6629 50.1368 49.403C55.2787 48.5498 60.5141 46.9051 65.3976 45.1584C66.0355 50.7992 66.5084 56.4584 67.0034 62.112C67.5423 68.6579 68.0868 75.2037 68.6257 81.7496C69.5441 68.6986 70.9024 55.7221 72.7282 42.7371C78.4366 40.965 81.2962 40.133 87.0046 39.8785V39.8837Z" stroke="#293AD4" stroke-width="1.5"/>
<path d="M97.0959 40.7618V93.812C91.2171 92.6604 88.2804 92.4768 82.4016 93.4158V40.3657C88.2804 39.4215 91.2171 39.6102 97.0959 40.7618Z" stroke="#293AD4" stroke-width="1.5"/>
<path d="M140.832 47.0464V100.097C135.696 101.316 133.122 101.689 127.986 101.308C127.98 89.3684 127.975 77.4287 127.969 65.4942C126.276 77.207 124.571 88.9251 122.855 100.633C119.209 99.9619 117.389 99.4481 113.743 98.3845C111.944 86.1835 110.146 73.9774 108.348 61.7764C108.342 73.4375 108.337 85.1038 108.331 96.7649C103.195 95.2177 100.621 94.3719 95.4846 93.5164V40.4714C101.985 41.6322 108.221 43.691 114.501 45.5579C115.068 48.908 115.645 52.8308 116.245 57.3263C117.081 62.953 117.499 65.7587 118.329 71.37C119.456 63.3689 120.584 55.3728 121.706 47.3717C128.03 48.7371 134.497 48.6391 140.827 47.0517L140.832 47.0464Z" stroke="#293AD4" stroke-width="1.5"/>
<path d="M184.569 39.28V92.3302C179.432 91.2733 176.859 90.9696 171.722 91.4975L171.706 55.6836C169.99 67.8975 168.285 80.1112 166.591 92.3247C162.945 93.1091 161.125 93.6845 157.479 94.8768C155.681 83.8166 153.882 72.7512 152.084 61.6911C152.079 73.3573 152.073 85.0236 152.068 96.6899C146.931 98.4309 144.357 99.3763 139.221 100.446V47.4064C145.716 45.9708 151.952 43.6728 158.238 41.5856C158.804 44.5949 159.382 48.172 159.981 52.3164C160.817 57.4579 161.235 60.0312 162.065 65.1935C163.187 56.6401 164.315 48.0917 165.442 39.5382C171.777 37.9662 178.245 37.8991 184.563 39.2801L184.569 39.28Z" stroke="#293AD4" stroke-width="1.5"/>
<path d="M197.657 42.8545C197.657 60.5396 197.657 78.2195 197.657 95.9047C191.778 94.1284 188.842 93.0673 182.963 92.0241V38.974C188.842 40.0172 191.778 41.0834 197.657 42.8545Z" stroke="#293AD4" stroke-width="1.5"/>
<path d="M228.866 45.1723V98.2225C223.713 99.5405 221.14 100.011 215.987 99.7804C213.369 91.4247 210.85 83.0362 208.343 74.6474C208.343 82.6847 208.343 90.7271 208.343 98.7644C203.426 97.7448 200.968 96.9073 196.057 95.4178V42.3677C200.973 43.8518 203.432 44.6894 208.343 45.7143C211.037 54.0376 213.748 62.3555 216.581 70.6402V46.7503C221.497 46.8923 223.955 46.4239 228.866 45.1723Z" stroke="#293AD4" stroke-width="1.5"/>
<path d="M260.983 56.2128C255.104 56.4446 252.167 57.3193 246.288 59.1565V54.3403C246.288 51.3051 246.151 49.4493 245.87 48.7679C245.59 48.0916 244.93 47.9179 243.879 48.2624C242.972 48.5629 242.356 49.0956 242.032 49.8604C241.707 50.6252 241.542 52.3626 241.542 55.0727C241.542 63.5591 241.542 72.0455 241.542 80.5318C241.542 82.9115 241.707 84.4261 242.032 85.0706C242.356 85.7151 243.011 85.8734 243.984 85.551C245.056 85.2009 245.782 84.5423 246.167 83.57C246.552 82.5976 246.745 80.8803 246.745 78.4128V72.1203C245.557 72.488 244.963 72.6795 243.775 73.0678C243.775 69.8416 243.775 68.231 243.775 65.0048C249.412 63.2804 255.021 61.4843 260.983 61.2561V89.7299C257.287 89.8752 255.439 90.2291 251.749 91.1331C251.205 89.7442 250.935 89.0574 250.391 87.6788C249.39 89.5813 248.125 91.1687 246.602 92.4613C245.078 93.754 243.28 94.7575 241.207 95.4563C238.738 96.2914 236.428 96.5196 234.272 96.0791C232.116 95.6386 230.483 94.7033 229.361 93.3405C228.245 91.9724 227.546 90.3901 227.266 88.6299C226.985 86.8696 226.848 84.1621 226.848 80.5177V64.758C226.848 59.6889 227.139 55.9462 227.722 53.5145C228.305 51.0828 229.972 48.5848 232.732 45.8395C235.487 43.0892 239.057 40.8866 243.434 39.4383C247.74 38.012 251.315 37.8431 254.152 38.9267C256.99 40.0102 258.843 41.8346 259.701 44.0488C260.565 46.2681 260.994 49.5743 260.994 53.9207V56.2126L260.983 56.2128Z" stroke="#293AD4" stroke-width="1.5"/>
<path d="M1.46195 105.618C13.1426 106.508 23.6794 110.408 34.9201 113.155C41.9923 114.279 48.7235 114.383 55.7902 114.346C60.5911 114.32 64.3142 114.969 66.7614 116.653C69.2086 118.343 70.9134 120.877 71.7328 124.155C73.0307 129.35 73.0637 134.987 73.0362 140.376V150.819C73.0857 156.662 72.7227 162.868 70.512 168.36C68.8897 172.39 65.733 176.206 61.2401 179.535C56.2026 183.267 50.0268 185.729 43.6036 185.754C40.0345 185.732 38.2527 185.465 34.6891 184.73V233.026C23.5309 230.273 13.0656 226.418 1.46745 225.537V105.618L1.46195 105.618ZM34.6836 133.621V164.139C35.6295 164.385 36.4434 164.551 37.1308 164.662C40.183 165.153 42.3002 164.521 43.4826 163.121C44.665 161.726 45.2589 158.757 45.2589 154.313V144.464C45.2589 140.365 44.577 137.745 43.2076 136.49C41.8383 135.235 39.0006 134.507 34.6836 133.621Z" stroke="#293AD4" stroke-width="1.5"/>
<path d="M141.525 181.267C141.536 189.851 141.459 198.561 140.618 207.078C140.134 211.95 137.665 217.818 134.937 221.833C132.347 225.643 126.886 229.77 122.036 230.705C115.744 231.92 108.991 230.356 103.096 228.802C97.0574 227.21 90.8101 225.208 84.6729 223.519C79.245 222.029 74.851 220.272 71.5349 217.132C68.2188 213.998 66.2225 210.111 65.6176 205.404C64.5287 196.99 64.7102 188.319 64.6717 179.803V159.284C64.6497 150.674 64.7047 141.923 65.5791 133.385C66.1125 128.218 68.4552 122.182 71.2599 117.748C74.411 112.765 78.8545 108.11 84.1614 105.101C90.1392 101.714 97.1289 102.468 103.101 103.845C109.414 105.299 115.937 108.668 121.53 112.122C126.226 115.025 131.033 118.168 134.668 122.381C137.973 126.217 139.991 130.284 140.585 135.048C141.635 143.489 141.492 152.19 141.531 160.743V181.262L141.525 181.267ZM108.304 138.691C108.304 133.111 107.974 129.442 107.319 127.694C106.659 125.94 105.306 124.752 103.255 124.186C101.517 123.707 100.192 124.015 99.2682 125.064C98.3498 126.114 97.8878 129.736 97.8878 135.909V191.907C97.8878 198.871 98.1903 203.227 98.7952 204.992C99.4002 206.756 100.808 207.887 103.019 208.491C105.279 209.111 106.725 208.614 107.358 206.925C107.99 205.236 108.304 200.863 108.304 193.801V138.691Z" stroke="#293AD4" stroke-width="1.5"/>
<path d="M212.858 180.856C212.814 189.333 212.924 197.925 211.95 206.327C211.384 211.225 209.453 215.581 206.269 218.969C203.085 222.357 198.735 224.275 193.368 224.838C187.198 225.483 180.433 224.719 174.428 224.876C168.571 225.03 162.043 226.043 156.005 225.777C150.605 225.54 146.183 223.851 142.867 220.546C139.551 217.241 137.555 212.963 136.95 208.142C135.877 199.66 136.042 190.943 136.004 182.36V161.841C135.982 153.293 136.037 144.583 136.911 136.112C137.423 131.157 139.809 125.342 142.592 121.141C145.985 116.025 150.429 111.282 155.494 107.472C160.911 103.398 168.016 99.7009 174.433 99.9186C181.561 100.159 186.692 102.326 192.862 106.208C198.026 109.464 202.546 114.414 206 119.425C208.838 123.538 211.373 129.278 211.917 134.286C212.852 142.884 212.825 151.655 212.863 160.337V180.856L212.858 180.856ZM179.636 133.474C179.636 127.894 179.306 124.287 178.651 122.673C177.992 121.059 176.639 120.16 174.587 120.208C172.85 120.25 171.524 121.033 170.6 122.413C169.682 123.792 169.22 127.59 169.22 133.764V189.761C169.22 196.725 169.523 200.968 170.127 202.51C170.732 204.053 172.14 204.652 174.351 204.58C176.611 204.508 178.058 203.717 178.69 201.894C179.322 200.07 179.636 195.641 179.636 188.579V133.469V133.474Z" stroke="#293AD4" stroke-width="1.5"/>
<path d="M241.498 105.367V201.288C247.998 199.006 254.746 196.982 261.697 196.757V220.755C243.071 222.764 227.37 232.545 208.277 229.788V109.869C220.469 111.71 229.867 109.272 241.498 105.367Z" stroke="#293AD4" stroke-width="1.5"/>
</svg>
