<svg width="42" height="48" viewBox="0 0 42 48" fill="none" xmlns="http://www.w3.org/2000/svg">
<path d="M2 28.4408V6C2 3.79086 3.79086 2 6 2H36C38.2091 2 40 3.79086 40 6V28.4408C40 30.7083 38.9016 32.8354 37.0528 34.1482L24.4738 43.0804C22.3935 44.5576 19.6065 44.5576 17.5262 43.0804L4.94723 34.1482C3.09838 32.8354 2 30.7083 2 28.4408Z" stroke="#FF769F" stroke-width="4"/>
<path d="M25.3834 7.84375H17.5776L19.8407 11.6899H21.9151L19.0863 14.4372L13.4916 10.2202V13.785L18.5206 17.7495V17.9438H15.1889L13.4916 16.2955V21.0306H19.4635L15.2517 23.961V29.2723L12.2344 32.2027H17.2005L21.7265 27.8071L23.9895 30.0049L21.7265 32.2027H27.8241V23.961L25.3834 20.0232L27.8241 11.6899L25.3834 7.84375Z" fill="#FF769F"/>
</svg>
