<svg width="108" height="41" viewBox="0 0 108 41" fill="none" xmlns="http://www.w3.org/2000/svg">
<path d="M11.7433 33.7122C11.9733 34.8622 11.7433 36.0322 11.0633 37.2222C10.5133 38.1722 9.80326 38.8922 8.93326 39.3722C8.06326 39.8522 7.12326 40.0722 6.11326 40.0122C5.10326 39.9622 4.11326 39.6522 3.14326 39.0922C2.16326 38.5222 1.40326 37.8222 0.853258 36.9622C0.303258 36.1122 0.0232585 35.1822 -0.00674153 34.1922C-0.0267415 33.2022 0.233258 32.2322 0.783258 31.2722C1.46326 30.1022 2.34326 29.3222 3.42326 28.9422C4.50326 28.5622 5.70326 28.6022 7.02326 29.0822L5.68326 31.6322C5.02326 31.4022 4.44326 31.3622 3.92326 31.5022C3.40326 31.6522 3.00326 31.9722 2.71326 32.4722C2.42326 32.9722 2.31326 33.4722 2.38326 33.9722C2.45326 34.4722 2.67326 34.9522 3.05326 35.3922C3.43326 35.8422 3.94326 36.2422 4.56326 36.6122C5.18326 36.9822 5.79326 37.2122 6.36326 37.3122C6.93326 37.4122 7.45326 37.3722 7.92326 37.1722C8.39326 36.9822 8.77326 36.6322 9.05326 36.1322C9.35326 35.6022 9.43326 35.0722 9.28326 34.5422C9.13326 34.0122 8.76326 33.5122 8.19326 33.0622L9.72326 30.6022C10.8333 31.5122 11.5033 32.5522 11.7433 33.7022V33.7122Z" fill="white"/>
<path d="M5.38326 24.6222L7.16326 22.4822L15.3833 29.3322L13.1233 29.4922L17.3933 24.3722L19.1533 25.8422L14.1033 31.9022L5.37326 24.6222H5.38326Z" fill="white"/>
<path d="M14.4733 14.8322L22.1933 23.1722L20.1533 25.0622L12.4333 16.7222L14.4733 14.8322Z" fill="white"/>
<path d="M29.8633 16.4922C29.5633 17.6322 28.8333 18.5722 27.6933 19.3322C26.7733 19.9422 25.8233 20.2622 24.8333 20.3122C23.8433 20.3622 22.9033 20.1322 22.0233 19.6322C21.1433 19.1322 20.3933 18.4222 19.7733 17.4822C19.1533 16.5422 18.7833 15.5622 18.6733 14.5622C18.5633 13.5522 18.7133 12.6022 19.1333 11.7022C19.5533 10.8022 20.2233 10.0522 21.1333 9.44219C22.2633 8.69219 23.3933 8.39219 24.5433 8.52219C25.6833 8.66219 26.7333 9.23219 27.7033 10.2422L25.3633 11.9322C24.8833 11.4322 24.3733 11.1322 23.8433 11.0322C23.3133 10.9322 22.8133 11.0422 22.3333 11.3622C21.8533 11.6822 21.5333 12.0822 21.3733 12.5622C21.2133 13.0422 21.2033 13.5622 21.3433 14.1422C21.4833 14.7222 21.7533 15.3022 22.1533 15.9022C22.5533 16.5022 22.9833 16.9822 23.4533 17.3222C23.9233 17.6622 24.4033 17.8522 24.9033 17.8922C25.4033 17.9322 25.9033 17.7922 26.3833 17.4722C26.8933 17.1322 27.1933 16.6922 27.2933 16.1522C27.3933 15.6022 27.2933 15.0022 26.9733 14.3422L29.4433 12.8222C30.0333 14.1322 30.1733 15.3622 29.8733 16.4922H29.8633Z" fill="white"/>
<path d="M31.3733 4.34219L32.9833 8.79219L34.9533 3.04219L37.9533 1.96219L35.8233 8.09219L42.0333 12.5722L39.1033 13.6322L34.7333 10.4322L34.1533 12.0222L35.2433 15.0322L32.6233 15.9822L28.7633 5.30219L31.3833 4.35219L31.3733 4.34219Z" fill="white"/>
<path d="M54.6233 2.28219L51.2733 2.49219L51.8533 11.5422L49.0633 11.7222L48.4833 2.67219L45.1333 2.88219L44.9833 0.602188L54.4833 -0.0078125L54.6333 2.27219L54.6233 2.28219Z" fill="white"/>
<path d="M58.0733 11.1322C57.2933 10.5522 56.7333 9.79219 56.3933 8.84219C56.0533 7.90219 55.9633 6.83219 56.1133 5.64219C56.2633 4.43219 56.6233 3.41219 57.1833 2.58219C57.7433 1.75219 58.4733 1.15219 59.3733 0.782187C60.2733 0.412187 61.3033 0.302187 62.4633 0.452187C63.6133 0.602187 64.5833 0.962187 65.3533 1.54219C66.1233 2.12219 66.6833 2.89219 67.0233 3.83219C67.3633 4.77219 67.4533 5.85219 67.3033 7.06219C67.1533 8.26219 66.7933 9.27219 66.2333 10.0922C65.6733 10.9222 64.9433 11.5122 64.0433 11.8822C63.1433 12.2522 62.1233 12.3622 60.9633 12.2122C59.8033 12.0622 58.8433 11.7022 58.0633 11.1222L58.0733 11.1322ZM62.8033 9.73219C63.2533 9.50219 63.6233 9.12219 63.9033 8.60219C64.1833 8.08219 64.3733 7.45219 64.4633 6.70219C64.5633 5.94219 64.5333 5.27219 64.3933 4.70219C64.2533 4.13219 63.9933 3.67219 63.6033 3.33219C63.2233 2.99219 62.7433 2.78219 62.1733 2.71219C61.6033 2.64219 61.0933 2.72219 60.6433 2.96219C60.1933 3.20219 59.8233 3.58219 59.5433 4.09219C59.2633 4.60219 59.0633 5.25219 58.9733 6.01219C58.8733 6.76219 58.9033 7.42219 59.0533 8.00219C59.2033 8.57219 59.4633 9.03219 59.8333 9.37219C60.2033 9.71219 60.6733 9.91219 61.2433 9.98219C61.8233 10.0522 62.3433 9.98219 62.7933 9.74219L62.8033 9.73219Z" fill="white"/>
<path d="M77.5633 4.52219L76.7633 13.1922L82.7433 6.88219L85.3333 8.06219L76.9033 16.7022L74.0033 15.3822L74.9533 3.33219L77.5633 4.52219Z" fill="white"/>
<path d="M90.0433 11.3422L83.7233 20.7822L81.4133 19.2322L87.7333 9.79219L90.0433 11.3422Z" fill="white"/>
<path d="M98.8733 18.6322L97.3633 20.3522L93.3333 16.7922L91.8533 18.4722L95.7433 21.9022L94.2433 23.6022L90.3533 20.1722L88.8533 21.8722L92.9833 25.5122L91.4733 27.2322L85.2633 21.7522L92.7833 13.2322L98.9033 18.6322H98.8733Z" fill="white"/>
<path d="M102.983 23.0722L98.0233 28.9922L105.163 26.0322L106.543 27.9022L101.613 33.8622L108.733 30.8722L110.443 33.1922L99.4633 37.4422L97.7433 35.1122L102.053 29.7722L95.6833 32.3222L93.9733 30.0022L101.273 20.7522L102.993 23.0822L102.983 23.0722Z" fill="white"/>
</svg>
