<svg width="174" height="26" viewBox="0 0 174 26" fill="none" xmlns="http://www.w3.org/2000/svg">
<path d="M63.5448 26C56.2906 26 52.7266 20.3976 52.7266 13.2786C52.7266 5.7881 56.7322 0.24762 63.3871 0.24762C65.6265 0.24762 67.3927 0.835714 69.0644 2.22857C69.5375 2.66191 69.916 2.5381 69.979 1.95L70.1367 0.526191H70.8937L71.3037 9.28571H70.5783C69.6952 4.30238 67.5189 1.60953 63.9233 1.60953C59.1608 1.60953 56.5745 6.37619 56.5745 12.8762C56.5745 19.469 59.1292 24.5143 64.0179 24.5143C66.3835 24.5143 68.0235 23.2143 68.8121 22.0071V15.9095C68.8121 14.0214 68.0551 13.4643 62.914 13.4643V12.7214H74.0793V13.4643C72.3761 13.4643 72.1238 13.9286 72.1238 15.9095V21.8524C70.326 24.3595 67.2981 26 63.5448 26Z" fill="#F5F4EB"/>
<path d="M78.7371 5.50952C77.5386 5.50952 76.687 4.70476 76.687 3.62143C76.687 2.50714 77.5386 1.70238 78.7371 1.70238C79.9041 1.70238 80.7557 2.50714 80.7557 3.62143C80.7557 4.70476 79.9041 5.50952 78.7371 5.50952ZM80.5034 8.94524V22.3167C80.5034 24.2976 80.8188 24.7619 82.7427 24.7619V25.5048H75.2361V24.7619C77.1601 24.7619 77.4755 24.2976 77.4755 22.3167V12.7833C77.4755 10.7095 77.444 10.2762 75.6146 11.019L75.3308 10.3071L79.9672 8.48095L80.5034 8.94524Z" fill="#F5F4EB"/>
<path d="M92.718 18.5714H93.6012C93.6012 23.4 92.6234 26 89.5325 26C87.0723 26 85.7792 24.5452 85.7792 20.2119V10.369H83.5714V9.22381C85.8738 9.16191 87.3247 7.49048 87.6401 4.58095H88.7755V9.1H92.5603V10.369H88.8386V19.4071C88.8386 22.1619 89.1224 23.9881 90.6048 23.9881C92.0241 23.9881 92.718 22.2548 92.718 18.5714Z" fill="#F5F4EB"/>
<path d="M104.253 25.5048H94.6964V24.7619C97.6297 24.7619 98.0397 24.2048 98.0397 22.3167V3.93095C98.0397 2.04286 97.6297 1.48572 94.6964 1.48572V0.742859H104.569C109.173 0.742859 112.233 2.72381 112.233 6.87143C112.233 10.3071 109.93 12.319 106.871 12.6905V12.8452C110.813 13.0929 113.4 15.5071 113.4 18.85C113.4 23.7405 109.3 25.5048 104.253 25.5048ZM101.541 2.97143V12.0714C102.329 12.1952 103.149 12.1952 103.906 12.1952C106.492 12.1952 108.763 10.5857 108.763 6.99524C108.763 3.46667 106.461 2.0119 103.969 2.0119C103.37 2.0119 102.708 2.04286 102.171 2.16667C101.73 2.25952 101.541 2.5381 101.541 2.97143ZM101.541 13.5881V23.2762C101.541 24.019 102.361 24.2357 103.843 24.2357C106.808 24.2357 109.867 23.1524 109.867 18.881C109.867 14.6095 106.366 13.4643 103.938 13.4643C103.118 13.4643 102.329 13.4643 101.541 13.5881Z" fill="#F5F4EB"/>
<path d="M125.323 26L124.693 25.4738L124.63 22.8429L124.535 22.8119C123.463 24.4833 121.949 26 119.709 26C117.533 26 116.271 24.2667 116.271 21.5429V12.8143C116.271 10.8024 116.177 10.431 114.253 11.019L114.032 10.3381L118.889 8.79048L119.331 9.19286V21.2333C119.331 23.0595 119.899 23.9262 121.097 23.9262C122.359 23.9262 123.62 22.8738 124.63 21.5429V12.8143C124.63 10.8024 124.566 10.431 122.611 11.019L122.39 10.3381L127.279 8.79048L127.689 9.19286V21.8214C127.689 23.8952 127.752 24.2976 129.708 23.5857L129.991 24.2976L125.323 26Z" fill="#F5F4EB"/>
<path d="M139.474 18.5714H140.357C140.357 23.4 139.379 26 136.288 26C133.828 26 132.535 24.5452 132.535 20.2119V10.369H130.327V9.22381C132.63 9.16191 134.081 7.49048 134.396 4.58095H135.531V9.1H139.316V10.369H135.594V19.4071C135.594 22.1619 135.878 23.9881 137.361 23.9881C138.78 23.9881 139.474 22.2548 139.474 18.5714Z" fill="#F5F4EB"/>
<path d="M146.475 0.433333V22.3167C146.475 24.2976 146.758 24.7619 148.682 24.7619V25.5048H141.176V24.7619C143.1 24.7619 143.415 24.2976 143.415 22.3167V4.42619C143.415 2.44524 143.415 2.04286 141.523 2.97143L141.207 2.29048L146.001 0L146.475 0.433333Z" fill="#F5F4EB"/>
<path d="M160.627 18.881H161.384C160.722 23.8643 158.577 26 155.612 26C152.048 26 149.809 22.6881 149.809 17.581C149.809 12.6905 152.017 8.54286 155.77 8.54286C159.46 8.54286 161.195 11.9476 161.195 16.4667H152.868V16.5286C152.868 20.7381 154.193 23.7095 156.811 23.7095C158.23 23.7095 159.87 22.6262 160.627 18.881ZM155.77 9.84286C153.878 9.84286 153.089 12.1024 152.9 15.1976H158.167C158.167 12.2262 157.631 9.84286 155.77 9.84286Z" fill="#F5F4EB"/>
<path d="M172.296 8.54286C173.4 8.54286 173.999 9.16191 173.999 10.1833C173.999 11.3905 173.274 12.1643 172.454 12.1643C171.886 12.1643 171.634 11.9476 171.224 11.5143C170.814 11.1119 170.656 10.9881 170.278 10.9881C169.552 10.9881 168.701 12.0095 168.038 13.8976V22.131C168.038 24.2357 168.511 24.731 171.381 24.731V25.5048H162.866V24.7619C164.695 24.7619 165.01 24.2976 165.01 22.3167V12.7833C165.01 10.7095 165.01 10.2762 163.118 11.05L162.803 10.3381L165.326 9.34762L167.47 8.48095L168.038 8.94524V11.9167H168.133C169.016 10.2762 170.561 8.54286 172.296 8.54286Z" fill="#F5F4EB"/>
<path d="M15.9312 14.9272L37.3428 25.7697C38.7574 26.4861 40.4219 25.4443 40.4219 23.8425V2.1575C40.4219 0.555717 38.7574 -0.486076 37.3428 0.230259L15.9312 11.0728C14.3631 11.8668 14.3631 14.1332 15.9312 14.9272Z" fill="url(#paint0_radial_725_2817)"/>
<path d="M24.4907 14.9272L3.07905 25.7697C1.66443 26.4861 0 25.4443 0 23.8425V2.1575C0 0.555717 1.66443 -0.486076 3.07903 0.230259L24.4907 11.0728C26.0588 11.8668 26.0588 14.1332 24.4907 14.9272Z" fill="#F5F4EB"/>
<defs>
<radialGradient id="paint0_radial_725_2817" cx="0" cy="0" r="1" gradientUnits="userSpaceOnUse" gradientTransform="translate(20.5258 13) rotate(-179.999) scale(19.9332 20.8396)">
<stop stop-color="#F5F4EB" stop-opacity="0"/>
<stop offset="1" stop-color="#F5F4EB"/>
</radialGradient>
</defs>
</svg>
