<svg width="643" height="976" viewBox="0 0 643 976" fill="none" xmlns="http://www.w3.org/2000/svg">
<g clip-path="url(#clip0_320_4527)">
<path d="M-1125.67 450.961L-414.5 450.961C-385.577 450.961 -357.576 461.134 -335.399 479.7L-125.203 655.67C-103.026 674.236 -75.0248 684.41 -46.1022 684.41L81.6339 684.41C149.689 684.41 204.859 739.58 204.859 807.635L204.859 873.546L204.857 1302.85" stroke="#46446D" stroke-width="124.29"/>
<path d="M620.992 -180.9L620.992 515.559C620.992 568.646 599.163 619.398 560.626 655.909L440.599 769.627C402.061 806.139 380.232 856.89 380.232 909.977L380.232 1034.29C380.232 1088.15 336.567 1131.81 282.703 1131.81V1131.81C228.839 1131.81 185.173 1175.48 185.173 1229.34L185.173 1511.44" stroke="#46446D" stroke-width="124.29"/>
<path fill-rule="evenodd" clip-rule="evenodd" d="M235.643 224.668L235.643 328.371C201.788 344.66 175.302 373.834 162.547 409.535L-3.20824 409.535L-3.20825 533.824L175.916 533.824C201.285 574.458 246.403 601.492 297.834 601.492C377.156 601.492 441.458 537.19 441.458 457.869C441.458 400.79 408.162 351.489 359.933 328.327L359.933 224.668C359.933 167.465 406.305 121.093 463.508 121.093L683.141 121.093L683.141 -443.921L558.851 -443.921L558.851 -3.19658L463.508 -3.19659C337.662 -3.19654 235.643 98.8216 235.643 224.668ZM333.911 457.922C333.911 437.865 317.651 421.605 297.594 421.605C277.536 421.605 261.276 437.865 261.276 457.922C261.276 477.98 277.536 494.24 297.594 494.24C317.651 494.24 333.911 477.98 333.911 457.922Z" fill="#46446D"/>
</g>
<defs>
<clipPath id="clip0_320_4527">
<rect width="643" height="976" fill="white" transform="translate(643 976) rotate(-180)"/>
</clipPath>
</defs>
</svg>
