<svg width="152" height="53" viewBox="0 0 152 53" fill="none" xmlns="http://www.w3.org/2000/svg">
<path d="M115.931 53C123.013 52.9826 126.554 49.3794 126.554 42.1906V22.8227H115.435V30.1511H119.168V42.1906C119.168 44.5113 118.089 45.6716 115.931 45.6716C113.791 45.6716 112.721 44.5113 112.721 42.1906V10.7832C112.721 8.46255 113.783 7.30222 115.905 7.30222H115.957C118.098 7.31967 119.168 8.48 119.168 10.7832V17.6928H126.554V10.7832C126.554 3.5944 123.013 0 115.931 0C108.867 0 105.335 3.5944 105.335 10.7832V42.1906C105.335 49.3969 108.867 53 115.931 53Z" fill="#F5F4EB"/>
<path fill-rule="evenodd" clip-rule="evenodd" d="M16.0769 35.9877L24.6635 0.811358H32.0494V22.4616H63.0038C62.405 20.9964 62.0749 19.3923 62.0749 17.7109V13.3045C62.0749 10.6784 59.952 8.33141 57.3333 8.33141H38.0386V0.768583H57.1162C64.02 0.768583 69.6167 6.38112 69.6167 13.3045V17.7109C69.6167 20.2688 71.6308 22.355 74.1553 22.4616L78.6099 22.4643V0.811358H89.3626C95.9222 0.828807 99.2019 4.43193 99.2019 11.6207V19.3417C99.2019 23.8609 97.2619 26.8359 93.3819 28.2667L101.681 52.1625H93.5907L86.9354 29.5753L85.9959 29.7062V52.1625H78.6099V29.5921C77.2993 29.5917 75.9887 29.591 74.6782 29.5904C72.5229 29.5893 70.3677 29.5882 68.2123 29.5882V29.5911H64.7638C62.1452 29.5911 60.0223 31.72 60.0223 34.3461V39.5916C60.0223 46.515 54.4256 52.1276 47.5217 52.1276H38.0386V44.5647H47.7389C50.3576 44.5647 52.4805 42.2178 52.4805 39.5916V34.3461C52.4805 32.6619 52.8116 31.0553 53.4123 29.5882H32.0494V52.1625H24.9766V23.3462L18.6607 52.1625H13.6497L7.1511 23.3462V52.1625H0V0.811358H7.38599L16.0769 35.9877ZM85.9959 8.11358V22.8227H87.6923C88.7189 22.8227 89.4235 22.7529 89.8063 22.6133C91.1461 22.0724 91.8159 20.9819 91.8159 19.3417V11.6207C91.8159 9.28263 90.7459 8.11358 88.6058 8.11358H85.9959Z" fill="#F5F4EB"/>
<path d="M132.843 0.811358H152V8.11358H140.229V22.8227H150.356V30.1511H140.229V44.8602H152V52.1625H132.843V0.811358Z" fill="#F5F4EB"/>
<path d="M13.6079 1.90383V0.950195H10.7856V1.90383H11.7055V7.65643H12.6879V1.90383H13.6079Z" fill="#F5F4EB"/>
<path d="M15.2186 0.950195H14.2362V7.65643H15.2186V4.78184H16.076V7.65643H17.0585V0.950195H16.076V3.82478H15.2186V0.950195Z" fill="#F5F4EB"/>
<path d="M17.9645 0.950195H20.5125V1.90383H18.9469V3.82478H20.2938V4.78184H18.9469V6.70279H20.5125V7.65643H17.9645V0.950195Z" fill="#F5F4EB"/>
</svg>
