<svg width="685" height="466" viewBox="0 0 685 466" fill="none" xmlns="http://www.w3.org/2000/svg">
<g clip-path="url(#clip0_450_2083)">
<path d="M350.5 191V256M383 223.5L318 223.5M373.481 200.519L327.519 246.481M373.488 246.483L327.526 200.521" stroke="#B5F6C3" stroke-width="6"/>
<path d="M121.5 50V117M155 83.5H88M145.188 59.8119L97.8119 107.188M145.196 107.191L97.8195 59.8144" stroke="#B5F6C3" stroke-width="6"/>
<path d="M518 308V362M545 335L491 335M537.092 315.908L498.908 354.092M537.098 354.094L498.914 315.91" stroke="#B5F6C3" stroke-width="6"/>
<path d="M683.5 169V256M727 212.5L640 212.5M714.259 181.741L652.741 243.259M714.269 243.262L652.751 181.744" stroke="#B5F6C3" stroke-width="6"/>
<path d="M-0.500001 169V256M43 212.5L-44 212.5M30.2591 181.741L-31.2592 243.259M30.2689 243.262L-31.2494 181.744" stroke="#B5F6C3" stroke-width="6"/>
<path d="M105.5 349V420M141 384.5L70 384.5M130.602 359.398L80.3977 409.602M130.61 409.605L80.4057 359.4" stroke="#B5F6C3" stroke-width="6"/>
<path d="M317.5 430V501M353 465.5L282 465.5M342.602 440.398L292.398 490.602M342.61 490.605L292.406 440.4" stroke="#B5F6C3" stroke-width="6"/>
<path d="M317.5 -35V36M353 0.499999L282 0.499996M342.602 -24.6023L292.398 25.6023M342.61 25.6049L292.406 -24.5996" stroke="#B5F6C3" stroke-width="6"/>
<path d="M595 59V109M620 84L570 84M612.678 66.3223L577.322 101.678M612.683 101.68L577.328 66.3242" stroke="#B5F6C3" stroke-width="6"/>
</g>
<defs>
<clipPath id="clip0_450_2083">
<rect width="685" height="466" fill="white"/>
</clipPath>
</defs>
</svg>
