<svg width="136" height="44" viewBox="0 0 136 44" fill="none" xmlns="http://www.w3.org/2000/svg">
<path d="M95.6616 18.0911C95.5763 17.3714 95.2307 16.8127 94.6246 16.415C94.0186 16.0172 93.2752 15.8184 92.3945 15.8184C91.7506 15.8184 91.1871 15.9225 90.7042 16.1309C90.226 16.3392 89.8519 16.6257 89.582 16.9902C89.3169 17.3548 89.1843 17.7691 89.1843 18.2331C89.1843 18.6214 89.2766 18.9552 89.4613 19.2346C89.6507 19.5092 89.8922 19.7388 90.1857 19.9235C90.4793 20.1034 90.7871 20.2525 91.109 20.3709C91.431 20.4846 91.7269 20.5769 91.9968 20.6479L93.4741 21.0456C93.8529 21.1451 94.2743 21.2824 94.7383 21.4576C95.207 21.6328 95.6545 21.8719 96.0806 22.1749C96.5115 22.4732 96.8666 22.8567 97.146 23.3255C97.4253 23.7942 97.565 24.3695 97.565 25.0513C97.565 25.8373 97.359 26.5475 96.9471 27.182C96.5399 27.8165 95.9433 28.3207 95.1573 28.6948C94.3761 29.0688 93.4267 29.2559 92.3093 29.2559C91.2676 29.2559 90.3656 29.0878 89.6033 28.7516C88.8458 28.4154 88.2492 27.9467 87.8136 27.3453C87.3827 26.744 87.1388 26.0456 87.082 25.2502H88.9002C88.9476 25.7994 89.1322 26.254 89.4542 26.6138C89.7809 26.9689 90.1928 27.2341 90.69 27.4093C91.1919 27.5797 91.7317 27.665 92.3093 27.665C92.9817 27.665 93.5853 27.556 94.1204 27.3382C94.6554 27.1157 95.0792 26.8079 95.3917 26.415C95.7042 26.0172 95.8604 25.5532 95.8604 25.0229C95.8604 24.54 95.7255 24.147 95.4556 23.8439C95.1857 23.5409 94.8306 23.2947 94.3903 23.1053C93.9499 22.9159 93.4741 22.7502 92.9627 22.6081L91.1729 22.0968C90.0366 21.7701 89.137 21.3037 88.4741 20.6976C87.8112 20.0916 87.4798 19.2985 87.4798 18.3184C87.4798 17.504 87.6999 16.7937 88.1403 16.1877C88.5853 15.5769 89.1819 15.1034 89.93 14.7672C90.6829 14.4263 91.5233 14.2559 92.4513 14.2559C93.3888 14.2559 94.2222 14.4239 94.9513 14.7601C95.6805 15.0916 96.2582 15.5461 96.6843 16.1238C97.1152 16.7014 97.3424 17.3572 97.3661 18.0911H95.6616Z" fill="#FFDAAE"/>
<path d="M74.6602 29.0005V14.4551H76.4215V21.671H76.592L83.1261 14.4551H85.4272L79.3192 21.0176L85.4272 29.0005H83.2965L78.2397 22.2392L76.4215 24.2846V29.0005H74.6602Z" fill="#FFDAAE"/>
<path d="M63.4102 29.0005V14.4551H65.1715V27.438H71.9329V29.0005H63.4102Z" fill="#FFDAAE"/>
<path d="M50.4911 29.0005H48.6445L53.9854 14.4551H55.8036L61.1445 29.0005H59.2979L54.9513 16.7562H54.8377L50.4911 29.0005ZM51.1729 23.3187H58.6161V24.8812H51.1729V23.3187Z" fill="#FFDAAE"/>
<path d="M37.9668 16.0176V14.4551H48.8759V16.0176H44.302V29.0005H42.5407V16.0176H37.9668Z" fill="#FFDAAE"/>
</svg>
